<svg width="84" height="70" viewBox="0 0 84 70" fill="none" xmlns="http://www.w3.org/2000/svg">
<path d="M16.7598 69.9985C21.4558 62.0757 46.4552 50.8009 65.5155 69.9985C65.5155 70.1509 43.8309 58.5714 16.7598 69.9985Z" fill="#0F9F16"/>
<path fill-rule="evenodd" clip-rule="evenodd" d="M5.97638 23.2288C5.07623 25.5203 4.6938 29.2864 5.10853 31.7766C5.67714 35.1919 7.44484 38.4985 9.97069 40.872C11.9544 42.7363 15.0779 44.7444 15.4362 44.3857C15.5298 44.2922 14.8252 43.428 13.8705 42.4657C10.323 38.8897 9.0742 35.8696 8.8938 30.43L8.76582 26.5728L10.5378 26.2047C11.5123 26.0024 13.3769 25.8988 14.6814 25.9744C15.9859 26.0499 17.0531 25.9984 17.0531 25.8601C17.0531 25.722 16.4019 25.133 15.6056 24.5516C13.5698 23.0646 10.4104 21.9462 8.24474 21.9462H6.48009L5.97638 23.2288ZM72.1129 22.4039C70.0697 22.9655 67.5241 24.303 66.5367 25.3332L65.7055 26.2011L68.6119 26.1855C72.1162 26.1663 73.6277 26.4162 73.873 27.0552C74.3617 28.329 74.3821 31.1074 73.9193 33.3816C73.2172 36.8323 71.6 39.9465 69.2707 42.3337C68.2121 43.4185 67.4195 44.3799 67.5097 44.4698C67.8946 44.855 71.3002 42.665 73.1544 40.8397C76.2544 37.7885 77.9977 33.6321 77.9977 29.2934C77.9977 27.423 77.0153 23.0554 76.4381 22.36C76.0115 21.846 74.0701 21.8658 72.1129 22.4039ZM0.000151316 39.0519C0.0153875 39.5967 1.67582 42.6832 3.09461 44.8047C6.01386 49.1696 10.5009 52.9811 15.6526 55.4728C21.8238 58.4575 28.3373 59.5759 34.6648 58.7376C36.5581 58.4868 38.189 58.1997 38.2889 58.0998C38.5942 57.7948 37.8611 57.1335 36.2378 56.2501C34.9519 55.5502 34.0234 55.342 30.7336 55.0166C28.557 54.8015 26.6799 54.5211 26.5616 54.3937C26.4437 54.2664 26.8956 54.2429 27.566 54.3413C28.2364 54.4401 30.019 54.6046 31.5274 54.7073C34.9744 54.9416 36.9085 55.3561 38.8216 56.2705C39.6492 56.6658 40.4375 56.9894 40.5737 56.9894C41.6457 56.9894 39.0047 51.626 36.8707 49.4694C34.2331 46.8043 30.0544 44.9946 22.5381 43.2625C20.9459 42.8956 18.7854 42.178 17.7372 41.6679C16.6889 41.1578 15.7613 40.8104 15.6763 40.8954C15.456 41.1157 16.2769 42.9828 16.9955 43.8963C17.3295 44.3208 18.3363 44.9836 19.2324 45.3691C21.9588 46.541 24.7016 47.919 24.57 48.0503C24.3783 48.242 18.9667 47.543 16.7483 47.0399C11.9745 45.9575 6.15312 43.2863 2.88344 40.6776C0.863736 39.0665 -0.0132565 38.5719 0.000151316 39.0519ZM81.8067 39.4879C77.7417 42.8682 72.0647 45.6491 66.5867 46.9442C64.0167 47.5518 58.7843 48.238 58.5454 47.9991C58.4153 47.8693 61.1715 46.5337 64.2595 45.2304C65.2106 44.8288 65.8584 44.2629 66.4688 43.3006C67.7246 41.3205 67.6206 40.3155 66.2576 41.252C65.2356 41.954 62.128 42.9956 59.2572 43.5983C57.7488 43.9149 55.7605 44.397 54.8387 44.6691C52.6502 45.3157 48.6919 47.3123 47.1506 48.5467C45.5066 49.8637 43.7889 52.321 42.9564 54.5467C42.5794 55.555 42.1504 56.3799 42.0032 56.3799C41.856 56.3799 41.7356 56.574 41.7356 56.8117C41.7356 57.0491 41.5741 57.2972 41.377 57.363C41.1573 57.4361 41.1177 57.643 41.2749 57.8975C41.4733 58.2183 41.5866 58.1626 41.7759 57.6509C41.9105 57.2871 42.2266 56.9894 42.4783 56.9894C42.73 56.9894 43.3857 56.7389 43.9357 56.4323C45.6885 55.456 46.9872 55.1382 50.4202 54.8466C52.2638 54.6896 54.4578 54.4903 55.2958 54.4032C56.2947 54.2993 56.6095 54.3355 56.21 54.5086C55.8748 54.6537 54.2978 54.8658 52.7057 54.9797C51.1135 55.0937 49.1252 55.3954 48.2872 55.6504C46.6917 56.1359 44.4772 57.6994 44.853 58.0754C44.9733 58.1955 46.7489 58.5026 48.7991 58.758C52.1916 59.18 52.8733 59.1767 56.3818 58.7202C67.7322 57.2435 76.2845 51.579 81.815 41.8745C83.6375 38.6761 83.6351 37.9677 81.8067 39.4879Z" fill="#0F9F16"/>
<path fill-rule="evenodd" clip-rule="evenodd" d="M37.7959 0.361168C35.4148 1.04497 32.696 3.5891 31.5171 6.23653C30.6334 8.22119 29.8094 8.96106 27.3972 9.93557C25.2041 10.8217 24.5069 11.3443 23.8667 12.5824C23.0485 14.1642 23.4644 18.5943 24.4307 18.5943C24.5931 18.5943 23.9937 19.1711 23.0988 19.8759C19.2587 22.9009 18.6605 24.8213 20.4669 28.3241C21.7199 30.7533 24.9945 33.8834 27.5288 35.0746C28.9047 35.7212 29.7161 36.3694 30.6206 37.5441C31.4339 38.6003 32.6226 39.6025 34.1517 40.5209C36.698 42.0503 39.9984 44.5064 39.7888 44.7157C39.715 44.7895 38.8837 44.2218 37.9412 43.4542C36.0967 41.9519 33.8653 40.6852 33.5746 40.9759C33.4761 41.0743 33.8787 41.6667 34.4695 42.292C36.8619 44.8242 37.2843 45.3398 38.5796 47.3086C40.0935 49.609 41.1262 52.999 41.1262 55.6669C41.1262 58.1845 41.483 57.849 42.7991 54.0945C44.4385 49.4185 46.716 46.1345 52.8376 39.6202C59.1649 32.887 61.2172 29.3294 61.2315 25.0696C61.2382 23.0557 60.9356 22.6285 60.4587 23.9793C60.215 24.6701 60.169 24.5315 60.1552 23.0661C60.1373 21.1314 59.5805 20.1264 57.889 18.9752C55.9875 17.681 52.9836 18.3182 51.8384 20.259C51.424 20.9617 50.9745 21.3368 50.5473 21.3368C50.0409 21.3368 49.9284 21.476 50.0524 21.9496C50.1405 22.2863 50.0631 22.9582 49.8803 23.4424C49.6115 24.1543 49.6472 24.4739 50.0674 25.115C50.3529 25.5511 50.7725 25.9076 50.9995 25.9076C51.2265 25.9076 51.5678 26.095 51.758 26.3242C52.333 27.0171 51.3155 27.562 49.4457 27.562C47.831 27.562 47.7353 27.5141 46.504 26.0947C45.5313 24.9733 45.0605 24.6528 44.5068 24.7344C43.1761 24.9307 43.1752 25.9616 44.5038 28.0066C45.9152 30.1789 46.9126 30.7832 49.0847 30.7832C49.9589 30.7832 50.5741 30.8831 50.4519 31.0053C50.3297 31.1275 49.5186 31.2305 48.6489 31.2339C47.2639 31.2394 47.0808 31.3122 47.1689 31.8211C47.256 32.326 47.1436 32.2961 46.3074 31.5925C45.14 30.6104 43.6618 30.5312 42.5666 31.3926C41.5196 32.2163 41.3575 32.1794 40.1529 30.8463C37.9632 28.4225 36.9841 24.8856 37.8242 22.4332C38.4416 20.6301 38.9566 20.4662 40.7078 21.5144C43.0472 22.9149 43.2111 22.9439 43.9973 22.0952C44.384 21.6781 44.9246 21.3368 45.1988 21.3368C45.4728 21.3368 45.697 21.1311 45.697 20.8797C45.697 20.6283 45.9027 20.4226 46.1541 20.4226C46.408 20.4226 46.6112 20.1517 46.6112 19.8132C46.6112 19.3418 46.8145 19.2037 47.5074 19.2037C48.5873 19.2037 48.8323 18.8853 48.4813 17.9367C48.3201 17.5006 48.3429 16.9268 48.5401 16.4612C48.8205 15.7994 50.6765 13.2379 51.1894 12.8045C53.203 11.1036 52.6316 7.09768 49.958 4.17234C46.9156 0.843239 41.7515 -0.774839 37.7959 0.361168ZM47.1143 9.92978C45.4575 11.8672 43.5838 12.7262 40.1566 13.1202C38.5949 13.2997 36.4944 13.3783 35.4888 13.2948C34.2221 13.1894 33.9411 13.2202 34.5747 13.3948C36.1242 13.8217 40.2952 13.7431 42.1836 13.2513C44.292 12.7021 47.0028 10.9305 47.8798 9.52876C48.7184 8.18828 48.5106 8.29738 47.1143 9.92978ZM49.6609 9.75121C49.4497 10.2616 48.8485 11.1389 48.325 11.7008C45.3896 14.852 40.5786 15.9581 34.9754 14.7694C33.5663 14.4705 32.3541 14.3824 31.6798 14.5299C30.5359 14.7801 31.6767 14.9367 38.1966 15.4233C43.6728 15.8323 48.2104 13.8638 49.7346 10.4176C50.0561 9.69148 50.2572 9.03572 50.182 8.96045C50.1067 8.88519 49.8724 9.2411 49.6609 9.75121ZM24.7479 17.223C24.7513 17.8934 24.8138 18.1317 24.8866 17.7526C24.9594 17.3736 24.9567 16.8251 24.8805 16.5337C24.8043 16.2424 24.7446 16.5526 24.7479 17.223ZM34.8218 18.3496C34.0496 19.6587 32.5485 20.8184 30.918 21.366C29.9593 21.6881 29.8405 21.7975 30.3612 21.8789C30.7257 21.9359 31.5707 21.7034 32.2396 21.3621C33.5654 20.6859 35.7719 18.2249 35.5769 17.6399C35.5102 17.4397 35.1704 17.7587 34.8218 18.3496ZM37.2519 18.1454C36.619 19.9128 35.0823 21.6071 33.2817 22.5225C31.0204 23.6722 29.6174 25.0687 29.3633 26.4226C28.6094 30.4419 30.9993 35.5686 34.8136 38.1145C35.398 38.5046 35.0994 38.1103 34.0734 37.1376C31.7316 34.9168 30.8113 33.5729 30.1272 31.375C28.9169 27.4864 29.4849 25.3104 32.1207 23.7365C35.2816 21.8493 36.0922 21.1488 36.9591 19.5538C37.4326 18.6829 37.7654 17.806 37.6984 17.6048C37.6313 17.4037 37.4305 17.6472 37.2519 18.1454ZM30.4746 20.0033C29.1722 20.9278 29.0668 21.0321 29.4312 21.0321C29.5912 21.0321 30.197 20.6262 30.7772 20.1304C32.0512 19.0413 31.912 18.9828 30.4746 20.0033ZM27.2863 21.8771C25.0057 23.1417 23.9791 24.6046 23.8722 26.7426L23.7847 28.4978L24.051 27.0439C24.4926 24.6366 25.5701 23.2809 28.5125 21.4309C29.5936 20.7511 28.7898 21.0436 27.2863 21.8771ZM55.937 26.6216C55.0923 27.4663 54.3713 28.5962 53.9435 29.745C52.8212 32.7602 51.7059 35.1514 50.9435 36.1771C50.0025 37.4429 47.4589 38.7072 45.8659 38.7014C44.5065 38.6962 44.3535 38.6201 43.2906 37.4173C42.6547 36.6973 42.6151 36.5251 42.9835 36.0808C43.3607 35.6265 43.337 35.5929 42.7638 35.7749C42.2701 35.9318 41.9971 35.7825 41.5888 35.1334C40.9875 34.1775 38.079 31.3573 38.079 31.7303C38.079 31.8637 38.9081 32.905 39.9216 34.0443C41.8682 36.2326 44.0683 39.7683 44.9081 42.058L45.4109 43.4292L45.0577 40.5834L47.2712 39.42C50.3441 37.8055 52.3955 35.6813 53.1228 33.3615C54.2348 29.8154 54.8662 28.4713 56.0546 27.1216C57.0501 25.9908 57.3106 25.8342 57.5669 26.2124C57.8205 26.5869 57.8774 26.5454 57.8814 25.9838C57.8881 24.9825 57.4237 25.1349 55.937 26.6216ZM32.1868 27.5364C31.6749 30.0266 33.9698 34.3162 37.1648 36.842C38.2048 37.6641 37.9735 37.3375 36.2074 35.4899C33.52 32.6786 32.8917 31.4536 32.6223 28.4978C32.4373 26.4698 32.4157 26.4223 32.1868 27.5364ZM57.8668 27.3255C57.4396 27.4407 56.4596 29.468 56.7152 29.7075C56.7725 29.7609 57.1912 29.2023 57.6458 28.4658C58.1002 27.7293 58.443 27.1424 58.4077 27.1619C58.372 27.1814 58.1288 27.2551 57.8668 27.3255ZM25.89 29.9333C25.89 30.192 26.1183 30.5921 26.3971 30.8222C26.8609 31.2046 26.8703 31.1754 26.508 30.4785C25.9772 29.457 25.89 29.3799 25.89 29.9333ZM41.1033 40.0955C43.4491 42.664 43.4503 42.665 42.3896 41.0877C41.8615 40.3027 40.9842 39.3514 40.44 38.9732C39.6687 38.4372 39.8153 38.6853 41.1033 40.0955ZM35.9459 38.7895C35.9459 38.8544 36.5971 39.3715 37.3933 39.9386C38.1896 40.5057 39.5401 41.5914 40.3952 42.3517C41.2499 43.112 41.0208 42.8426 39.8857 41.7532C38.1049 40.0437 35.9459 38.4199 35.9459 38.7895ZM42.5569 45.2536C42.8357 45.8383 43.1179 46.2622 43.184 46.1961C43.3232 46.0568 42.3984 44.191 42.1897 44.191C42.1132 44.191 42.2784 44.6691 42.5569 45.2536Z" fill="#E00C5B"/>
</svg>
