<svg width="964" height="250" viewBox="0 0 964 250" fill="none" xmlns="http://www.w3.org/2000/svg">
<path d="M80 239.712C95.4108 213.712 177.45 176.712 240 239.712C240 240.212 168.839 202.212 80 239.712Z" fill="#0F9F16"/>
<path fill-rule="evenodd" clip-rule="evenodd" d="M44.6125 86.2292C41.6585 93.7492 40.4035 106.108 41.7645 114.28C43.6305 125.488 49.4315 136.339 57.7205 144.128C64.2305 150.246 74.4805 156.836 75.6565 155.659C75.9635 155.352 73.6515 152.516 70.5185 149.358C58.8765 137.623 54.7785 127.712 54.1865 109.861L53.7665 97.2032L59.5815 95.9952C62.7795 95.3312 68.8985 94.9912 73.1795 95.2392C77.4605 95.4872 80.9625 95.3182 80.9625 94.8642C80.9625 94.4112 78.8255 92.4782 76.2125 90.5702C69.5315 85.6902 59.1635 82.0202 52.0565 82.0202H46.2655L44.6125 86.2292ZM261.65 83.5222C254.945 85.3652 246.592 89.7542 243.352 93.1352L240.624 95.9832L250.161 95.9322C261.661 95.8692 266.621 96.6892 267.426 98.7862C269.03 102.966 269.097 112.084 267.578 119.547C265.274 130.871 259.967 141.091 252.323 148.925C248.849 152.485 246.248 155.64 246.544 155.935C247.807 157.199 258.983 150.012 265.068 144.022C275.241 134.009 280.962 120.369 280.962 106.131C280.962 99.9932 277.738 85.6602 275.844 83.3782C274.444 81.6912 268.073 81.7562 261.65 83.5222ZM25.0005 138.155C25.0505 139.943 30.4995 150.072 35.1555 157.034C44.7355 171.358 59.4605 183.866 76.3665 192.043C96.6185 201.838 117.993 205.508 138.758 202.757C144.971 201.934 150.323 200.992 150.651 200.664C151.653 199.663 149.247 197.493 143.92 194.594C139.7 192.297 136.653 191.614 125.857 190.546C118.714 189.84 112.554 188.92 112.166 188.502C111.779 188.084 113.262 188.007 115.462 188.33C117.662 188.654 123.512 189.194 128.462 189.531C139.774 190.3 146.121 191.66 152.399 194.661C155.115 195.958 157.702 197.02 158.149 197.02C161.667 197.02 153 179.419 145.997 172.342C137.341 163.596 123.628 157.657 98.9625 151.973C93.7375 150.769 86.6475 148.414 83.2075 146.74C79.7675 145.066 76.7235 143.926 76.4445 144.205C75.7215 144.928 78.4155 151.055 80.7735 154.053C81.8695 155.446 85.1735 157.621 88.1145 158.886C97.0615 162.732 106.062 167.254 105.63 167.685C105.001 168.314 87.2425 166.02 79.9625 164.369C64.2965 160.817 45.1925 152.051 34.4625 143.49C27.8345 138.203 24.9565 136.58 25.0005 138.155ZM293.462 139.586C280.122 150.679 261.493 159.805 243.516 164.055C235.082 166.049 217.91 168.301 217.126 167.517C216.699 167.091 225.744 162.708 235.878 158.431C238.999 157.113 241.125 155.256 243.128 152.098C247.249 145.6 246.908 142.302 242.435 145.375C239.081 147.679 228.883 151.097 219.462 153.075C214.512 154.114 207.987 155.696 204.962 156.589C197.78 158.711 184.79 165.263 179.732 169.314C174.337 173.636 168.701 181.7 165.969 189.004C164.732 192.313 163.323 195.02 162.84 195.02C162.357 195.02 161.962 195.657 161.962 196.437C161.962 197.216 161.432 198.03 160.785 198.246C160.064 198.486 159.935 199.165 160.451 200C161.102 201.053 161.473 200.87 162.094 199.191C162.536 197.997 163.574 197.02 164.4 197.02C165.226 197.02 167.377 196.198 169.182 195.192C174.934 191.988 179.196 190.945 190.462 189.988C196.512 189.473 203.712 188.819 206.462 188.533C209.74 188.192 210.773 188.311 209.462 188.879C208.362 189.355 203.187 190.051 197.962 190.425C192.737 190.799 186.212 191.789 183.462 192.626C178.226 194.219 170.96 199.35 172.193 200.584C172.588 200.978 178.414 201.986 185.142 202.824C196.275 204.209 198.512 204.198 210.026 202.7C247.274 197.854 275.341 179.265 293.49 147.418C299.471 136.922 299.462 134.597 293.462 139.586Z" fill="#0F9F16"/>
<path fill-rule="evenodd" clip-rule="evenodd" d="M149.034 11.1852C141.22 13.4292 132.298 21.7782 128.429 30.4662C125.529 36.9792 122.825 39.4072 114.909 42.6052C107.712 45.5132 105.424 47.2282 103.323 51.2912C100.638 56.4822 102.003 71.0202 105.174 71.0202C105.707 71.0202 103.74 72.9132 100.803 75.2262C88.2005 85.1532 86.2375 91.4552 92.1655 102.95C96.2775 110.922 107.024 121.194 115.341 125.103C119.856 127.225 122.519 129.352 125.487 133.207C128.156 136.673 132.057 139.962 137.075 142.976C145.431 147.995 156.262 156.055 155.574 156.742C155.332 156.984 152.604 155.121 149.511 152.602C143.458 147.672 136.135 143.515 135.181 144.469C134.858 144.792 136.179 146.736 138.118 148.788C145.969 157.098 147.355 158.79 151.606 165.251C156.574 172.8 159.963 183.925 159.963 192.68C159.963 200.942 161.134 199.841 165.453 187.52C170.833 172.175 178.307 161.398 198.396 140.02C219.16 117.924 225.895 106.249 225.942 92.2702C225.964 85.6612 224.971 84.2592 223.406 88.6922C222.606 90.9592 222.455 90.5042 222.41 85.6952C222.351 79.3462 220.524 76.0482 214.973 72.2702C208.733 68.0232 198.875 70.1142 195.117 76.4832C193.757 78.7892 192.282 80.0202 190.88 80.0202C189.218 80.0202 188.849 80.4772 189.256 82.0312C189.545 83.1362 189.291 85.3412 188.691 86.9302C187.809 89.2662 187.926 90.3152 189.305 92.4192C190.242 93.8502 191.619 95.0202 192.364 95.0202C193.109 95.0202 194.229 95.6352 194.853 96.3872C196.74 98.6612 193.401 100.449 187.265 100.449C181.966 100.449 181.652 100.292 177.611 95.6342C174.419 91.9542 172.874 90.9022 171.057 91.1702C166.69 91.8142 166.687 95.1972 171.047 101.908C175.679 109.037 178.952 111.02 186.08 111.02C188.949 111.02 190.968 111.348 190.567 111.749C190.166 112.15 187.504 112.488 184.65 112.499C180.105 112.517 179.504 112.756 179.793 114.426C180.079 116.083 179.71 115.985 176.966 113.676C173.135 110.453 168.284 110.193 164.69 113.02C161.254 115.723 160.722 115.602 156.769 111.227C149.583 103.273 146.37 91.6662 149.127 83.6182C151.153 77.7012 152.843 77.1632 158.59 80.6032C166.267 85.1992 166.805 85.2942 169.385 82.5092C170.654 81.1402 172.428 80.0202 173.328 80.0202C174.227 80.0202 174.963 79.3452 174.963 78.5202C174.963 77.6952 175.638 77.0202 176.463 77.0202C177.296 77.0202 177.963 76.1312 177.963 75.0202C177.963 73.4732 178.63 73.0202 180.904 73.0202C184.448 73.0202 185.252 71.9752 184.1 68.8622C183.571 67.4312 183.645 65.5482 184.293 64.0202C185.213 61.8482 191.304 53.4422 192.987 52.0202C199.595 46.4382 197.72 33.2922 188.946 23.6922C178.962 12.7672 162.015 7.45724 149.034 11.1852ZM179.614 42.5862C174.177 48.9442 168.028 51.7632 156.781 53.0562C151.656 53.6452 144.763 53.9032 141.463 53.6292C137.306 53.2832 136.384 53.3842 138.463 53.9572C143.548 55.3582 157.236 55.1002 163.433 53.4862C170.352 51.6842 179.248 45.8702 182.126 41.2702C184.878 36.8712 184.196 37.2292 179.614 42.5862ZM187.971 42.0002C187.278 43.6752 185.305 46.5542 183.587 48.3982C173.954 58.7392 158.166 62.3692 139.778 58.4682C135.154 57.4872 131.176 57.1982 128.963 57.6822C125.209 58.5032 128.953 59.0172 150.349 60.6142C168.32 61.9562 183.211 55.4962 188.213 44.1872C189.268 41.8042 189.928 39.6522 189.681 39.4052C189.434 39.1582 188.665 40.3262 187.971 42.0002ZM106.215 66.5202C106.226 68.7202 106.431 69.5022 106.67 68.2582C106.909 67.0142 106.9 65.2142 106.65 64.2582C106.4 63.3022 106.204 64.3202 106.215 66.5202ZM139.274 70.2172C136.74 74.5132 131.814 78.3192 126.463 80.1162C123.317 81.1732 122.927 81.5322 124.636 81.7992C125.832 81.9862 128.605 81.2232 130.8 80.1032C135.151 77.8842 142.392 69.8082 141.752 67.8882C141.533 67.2312 140.418 68.2782 139.274 70.2172ZM147.249 69.5472C145.172 75.3472 140.129 80.9072 134.22 83.9112C126.799 87.6842 122.195 92.2672 121.361 96.7102C118.887 109.9 126.73 126.724 139.247 135.079C141.165 136.359 140.185 135.065 136.818 131.873C129.133 124.585 126.113 120.175 123.868 112.962C119.896 100.201 121.76 93.0602 130.41 87.8952C140.783 81.7022 143.443 79.4032 146.288 74.1692C147.842 71.3112 148.934 68.4332 148.714 67.7732C148.494 67.1132 147.835 67.9122 147.249 69.5472ZM125.008 75.6442C120.734 78.6782 120.388 79.0202 121.584 79.0202C122.109 79.0202 124.097 77.6882 126.001 76.0612C130.182 72.4872 129.725 72.2952 125.008 75.6442ZM114.545 81.7932C107.061 85.9432 103.692 90.7442 103.341 97.7602L103.054 103.52L103.928 98.7492C105.377 90.8492 108.913 86.4002 118.569 80.3292C122.117 78.0982 119.479 79.0582 114.545 81.7932ZM208.567 97.3632C205.795 100.135 203.429 103.843 202.025 107.613C198.342 117.508 194.682 125.355 192.18 128.721C189.092 132.875 180.744 137.024 175.517 137.005C171.056 136.988 170.554 136.738 167.066 132.791C164.979 130.428 164.849 129.863 166.058 128.405C167.296 126.914 167.218 126.804 165.337 127.401C163.717 127.916 162.821 127.426 161.481 125.296C159.508 122.159 149.963 112.904 149.963 114.128C149.963 114.566 152.684 117.983 156.01 121.722C162.398 128.903 169.618 140.506 172.374 148.02L174.024 152.52L173.444 147.85L172.865 143.181L180.129 139.363C190.213 134.065 196.945 127.094 199.332 119.481C202.981 107.844 205.053 103.433 208.953 99.0042C212.22 95.2932 213.075 94.7792 213.916 96.0202C214.748 97.2492 214.935 97.1132 214.948 95.2702C214.97 91.9842 213.446 92.4842 208.567 97.3632ZM130.627 100.365C128.947 108.537 136.478 122.614 146.963 130.903C150.376 133.601 149.617 132.529 143.821 126.466C135.002 117.24 132.94 113.22 132.056 103.52C131.449 96.8652 131.378 96.7092 130.627 100.365ZM214.9 99.6732C213.498 100.051 210.282 106.704 211.121 107.49C211.309 107.665 212.683 105.832 214.175 103.415C215.666 100.998 216.791 99.0722 216.675 99.1362C216.558 99.2002 215.76 99.4422 214.9 99.6732ZM109.963 108.231C109.963 109.08 110.712 110.393 111.627 111.148C113.149 112.403 113.18 112.307 111.991 110.02C110.249 106.668 109.963 106.415 109.963 108.231ZM159.888 141.58C167.586 150.009 167.59 150.012 164.109 144.836C162.376 142.26 159.497 139.138 157.711 137.897C155.18 136.138 155.661 136.952 159.888 141.58ZM142.963 137.294C142.963 137.507 145.1 139.204 147.713 141.065C150.326 142.926 154.758 146.489 157.564 148.984C160.369 151.479 159.617 150.595 155.892 147.02C150.048 141.41 142.963 136.081 142.963 137.294ZM164.658 158.507C165.573 160.426 166.499 161.817 166.716 161.6C167.173 161.143 164.138 155.02 163.453 155.02C163.202 155.02 163.744 156.589 164.658 158.507Z" fill="#E00C5B"/>
<path d="M327 146.061C327 130.603 327 114.96 327 99.1344C327 83.3084 327 67.6663 327 52.2083C331.049 52.2083 335.097 52.2083 339.146 52.2083C343.194 52.2083 347.197 52.2083 351.153 52.2083C351.153 58.1891 351.153 64.2619 351.153 70.4267C351.153 76.4995 351.153 82.5263 351.153 88.507C355.846 82.5263 360.538 76.4995 365.231 70.4267C370.016 64.2619 374.754 58.1891 379.447 52.2083C383.955 52.2083 388.51 52.2083 393.111 52.2083C397.711 52.2083 402.266 52.2083 406.774 52.2083C400.978 59.5693 395.089 67.0222 389.108 74.5672C383.219 82.0202 377.377 89.4272 371.58 96.7881C377.653 104.885 383.771 113.074 389.936 121.355C396.193 129.636 402.358 137.871 408.431 146.061C403.646 146.061 398.815 146.061 393.939 146.061C389.154 146.061 384.37 146.061 379.585 146.061C374.892 139.528 370.154 132.995 365.369 126.462C360.584 119.837 355.846 113.304 351.153 106.863C351.153 113.304 351.153 119.837 351.153 126.462C351.153 132.995 351.153 139.528 351.153 146.061C347.197 146.061 343.194 146.061 339.146 146.061C335.097 146.061 331.049 146.061 327 146.061Z" fill="#E00C5B"/>
<path d="M467.4 148.269C460.683 148.269 454.472 147.073 448.768 144.68C443.063 142.196 438.14 138.746 434 134.329C429.859 129.912 426.639 124.714 424.338 118.733C422.038 112.66 420.888 106.081 420.888 98.9964C420.888 91.9115 422.038 85.3786 424.338 79.3978C426.639 73.4171 429.859 68.2644 434 63.9398C438.14 59.5232 443.063 56.1188 448.768 53.7265C454.472 51.2422 460.683 50 467.4 50C474.117 50 480.282 51.2422 485.894 53.7265C491.599 56.1188 496.522 59.5232 500.662 63.9398C504.895 68.2644 508.161 73.4171 510.462 79.3978C512.762 85.3786 513.912 91.9115 513.912 98.9964C513.912 106.081 512.762 112.66 510.462 118.733C508.161 124.714 504.895 129.912 500.662 134.329C496.522 138.746 491.599 142.196 485.894 144.68C480.282 147.073 474.117 148.269 467.4 148.269ZM467.4 125.91C471.909 125.91 475.773 124.806 478.993 122.598C482.214 120.297 484.698 117.123 486.446 113.074C488.287 109.026 489.207 104.333 489.207 98.9964C489.207 93.6597 488.287 89.0131 486.446 85.0566C484.698 81.1001 482.214 78.0177 478.993 75.8094C475.773 73.5091 471.909 72.3589 467.4 72.3589C462.983 72.3589 459.119 73.4631 455.806 75.6714C452.586 77.8796 450.056 81.0081 448.215 85.0566C446.467 89.0131 445.593 93.6597 445.593 98.9964C445.593 104.333 446.467 109.026 448.215 113.074C450.056 117.123 452.586 120.297 455.806 122.598C459.119 124.806 462.983 125.91 467.4 125.91Z" fill="#E00C5B"/>
<path d="M541.009 146.061C541.009 130.603 541.009 114.96 541.009 99.1344C541.009 83.3084 541.009 67.6663 541.009 52.2083C546.714 52.2083 552.418 52.2083 558.123 52.2083C563.92 52.2083 569.625 52.2083 575.237 52.2083C582.322 52.2083 588.487 53.5885 593.732 56.3488C598.976 59.0172 603.071 62.7897 606.015 67.6663C608.96 72.5429 610.432 78.2477 610.432 84.7805C610.432 91.2214 608.96 96.8801 606.015 101.757C603.163 106.633 599.206 110.406 594.146 113.074C589.177 115.743 583.518 117.077 577.17 117.077C575.145 117.077 573.121 117.077 571.097 117.077C569.165 117.077 567.186 117.077 565.162 117.077C565.162 121.861 565.162 126.692 565.162 131.569C565.162 136.445 565.162 141.276 565.162 146.061C561.206 146.061 557.203 146.061 553.154 146.061C549.106 146.061 545.057 146.061 541.009 146.061ZM575.237 73.8771C573.581 73.8771 571.879 73.8771 570.131 73.8771C568.474 73.8771 566.818 73.8771 565.162 73.8771C565.162 77.5576 565.162 81.2841 565.162 85.0566C565.162 88.7371 565.162 92.4176 565.162 96.098C567.002 96.098 568.889 96.098 570.821 96.098C572.845 96.098 574.777 96.098 576.618 96.098C579.47 96.098 581.77 95.0399 583.518 92.9236C585.359 90.8073 586.279 88.185 586.279 85.0566C586.279 81.8362 585.313 79.1678 583.38 77.0515C581.448 74.9353 578.734 73.8771 575.237 73.8771Z" fill="#E00C5B"/>
<path d="M637.314 146.061C637.314 130.603 637.314 114.96 637.314 99.1344C637.314 83.3084 637.314 67.6663 637.314 52.2083C641.363 52.2083 645.411 52.2083 649.46 52.2083C653.508 52.2083 657.511 52.2083 661.467 52.2083C661.467 67.6663 661.467 83.3084 661.467 99.1344C661.467 114.96 661.467 130.603 661.467 146.061C657.511 146.061 653.508 146.061 649.46 146.061C645.411 146.061 641.363 146.061 637.314 146.061Z" fill="#E00C5B"/>
<path d="M693.961 146.061C693.961 130.603 693.961 114.96 693.961 99.1344C693.961 83.3084 693.961 67.6663 693.961 52.2083C698.009 52.2083 702.058 52.2083 706.107 52.2083C710.155 52.2083 714.158 52.2083 718.114 52.2083C718.114 64.0778 718.114 76.0854 718.114 88.231C718.114 100.285 718.114 112.246 718.114 124.116C722.991 124.116 727.913 124.116 732.882 124.116C737.851 124.116 742.727 124.116 747.512 124.116C747.512 127.704 747.512 131.385 747.512 135.157C747.512 138.838 747.512 142.472 747.512 146.061C738.679 146.061 729.754 146.061 720.736 146.061C711.719 146.061 702.794 146.061 693.961 146.061Z" fill="#E00C5B"/>
<path d="M765.509 146.061C770.294 130.603 775.079 114.96 779.863 99.1344C784.74 83.3084 789.57 67.6663 794.355 52.2083C799.784 52.2083 805.258 52.2083 810.779 52.2083C816.392 52.2083 821.913 52.2083 827.341 52.2083C832.126 67.6663 836.911 83.3084 841.695 99.1344C846.572 114.96 851.403 130.603 856.187 146.061C852.231 146.061 848.182 146.061 844.042 146.061C839.993 146.061 835.944 146.061 831.896 146.061C830.976 143.116 830.102 140.172 829.274 137.227C828.445 134.191 827.571 131.201 826.651 128.256C821.407 128.256 816.116 128.256 810.779 128.256C805.535 128.256 800.29 128.256 795.045 128.256C794.125 131.201 793.251 134.191 792.423 137.227C791.595 140.172 790.721 143.116 789.8 146.061C785.844 146.061 781.795 146.061 777.655 146.061C773.606 146.061 769.558 146.061 765.509 146.061ZM801.118 107.692C804.338 107.692 807.559 107.692 810.779 107.692C814.092 107.692 817.358 107.692 820.578 107.692C819.014 102.263 817.404 96.7881 815.748 91.2674C814.092 85.7467 812.481 80.272 810.917 74.8433C809.353 80.272 807.697 85.7467 805.949 91.2674C804.292 96.7881 802.682 102.263 801.118 107.692Z" fill="#E00C5B"/>
<path d="M329.552 199.296C329.552 194.659 329.552 189.966 329.552 185.218C329.552 180.47 329.552 175.778 329.552 171.14C332.34 171.14 335.156 171.14 337.999 171.14C340.842 171.14 343.658 171.14 346.446 171.14C346.446 172.217 346.446 173.307 346.446 174.411C346.446 175.516 346.446 176.606 346.446 177.682C344.845 177.682 343.23 177.682 341.601 177.682C340 177.682 338.399 177.682 336.798 177.682C336.798 178.483 336.798 179.311 336.798 180.167C336.798 180.995 336.798 181.809 336.798 182.61C338.261 182.61 339.738 182.61 341.229 182.61C342.719 182.61 344.182 182.61 345.618 182.61C345.618 183.631 345.618 184.666 345.618 185.715C345.618 186.764 345.618 187.813 345.618 188.862C344.182 188.862 342.719 188.862 341.229 188.862C339.738 188.862 338.261 188.862 336.798 188.862C336.798 190.573 336.798 192.312 336.798 194.079C336.798 195.846 336.798 197.585 336.798 199.296C335.611 199.296 334.411 199.296 333.196 199.296C331.981 199.296 330.767 199.296 329.552 199.296Z" fill="#199F1B"/>
<path d="M350.983 199.296C350.983 194.659 350.983 189.966 350.983 185.218C350.983 180.47 350.983 175.778 350.983 171.14C353.771 171.14 356.586 171.14 359.43 171.14C362.273 171.14 365.088 171.14 367.876 171.14C367.876 172.189 367.876 173.266 367.876 174.37C367.876 175.474 367.876 176.551 367.876 177.6C366.275 177.6 364.66 177.6 363.032 177.6C361.431 177.6 359.83 177.6 358.229 177.6C358.229 178.29 358.229 178.98 358.229 179.67C358.229 180.332 358.229 181.009 358.229 181.699C359.692 181.699 361.169 181.699 362.659 181.699C364.15 181.699 365.613 181.699 367.048 181.699C367.048 182.72 367.048 183.755 367.048 184.804C367.048 185.853 367.048 186.902 367.048 187.951C365.613 187.951 364.15 187.951 362.659 187.951C361.169 187.951 359.692 187.951 358.229 187.951C358.229 188.752 358.229 189.566 358.229 190.394C358.229 191.222 358.229 192.036 358.229 192.837C359.83 192.837 361.431 192.837 363.032 192.837C364.66 192.837 366.275 192.837 367.876 192.837C367.876 193.886 367.876 194.962 367.876 196.066C367.876 197.171 367.876 198.247 367.876 199.296C365.088 199.296 362.273 199.296 359.43 199.296C356.586 199.296 353.771 199.296 350.983 199.296Z" fill="#199F1B"/>
<path d="M372.858 199.296C372.858 194.659 372.858 189.966 372.858 185.218C372.858 180.47 372.858 175.778 372.858 171.14C374.514 171.14 376.171 171.14 377.827 171.14C379.511 171.14 381.181 171.14 382.837 171.14C384.935 171.14 386.77 171.541 388.344 172.341C389.917 173.114 391.132 174.218 391.987 175.654C392.871 177.061 393.312 178.718 393.312 180.622C393.312 182.251 392.981 183.7 392.319 184.97C391.656 186.24 390.759 187.275 389.627 188.075C390.732 189.925 391.836 191.802 392.94 193.706C394.072 195.583 395.19 197.447 396.294 199.296C394.941 199.296 393.589 199.296 392.236 199.296C390.883 199.296 389.531 199.296 388.178 199.296C387.322 197.75 386.453 196.177 385.57 194.576C384.714 192.975 383.844 191.401 382.961 189.856C382.492 189.856 382.009 189.856 381.512 189.856C381.043 189.856 380.573 189.856 380.104 189.856C380.104 191.401 380.104 192.975 380.104 194.576C380.104 196.177 380.104 197.75 380.104 199.296C378.917 199.296 377.716 199.296 376.502 199.296C375.287 199.296 374.073 199.296 372.858 199.296ZM382.837 177.682C382.395 177.682 381.94 177.682 381.471 177.682C381.029 177.682 380.573 177.682 380.104 177.682C380.104 178.704 380.104 179.725 380.104 180.746C380.104 181.768 380.104 182.789 380.104 183.81C380.629 183.81 381.153 183.81 381.678 183.81C382.202 183.81 382.726 183.81 383.251 183.81C384.079 183.81 384.755 183.521 385.28 182.941C385.804 182.334 386.067 181.602 386.067 180.746C386.067 179.863 385.777 179.132 385.197 178.552C384.645 177.972 383.858 177.682 382.837 177.682Z" fill="#199F1B"/>
<path d="M402.896 199.296C402.896 195.735 402.896 192.147 402.896 188.531C402.896 184.887 402.896 181.285 402.896 177.724C401.847 177.724 400.784 177.724 399.707 177.724C398.631 177.724 397.568 177.724 396.519 177.724C396.519 176.647 396.519 175.557 396.519 174.453C396.519 173.321 396.519 172.217 396.519 171.14C399.804 171.14 403.13 171.14 406.498 171.14C409.865 171.14 413.192 171.14 416.477 171.14C416.477 172.217 416.477 173.321 416.477 174.453C416.477 175.557 416.477 176.647 416.477 177.724C415.455 177.724 414.406 177.724 413.33 177.724C412.253 177.724 411.19 177.724 410.142 177.724C410.142 181.285 410.142 184.887 410.142 188.531C410.142 192.147 410.142 195.735 410.142 199.296C408.955 199.296 407.754 199.296 406.539 199.296C405.325 199.296 404.11 199.296 402.896 199.296Z" fill="#199F1B"/>
<path d="M420.617 199.296C420.617 194.659 420.617 189.966 420.617 185.218C420.617 180.47 420.617 175.778 420.617 171.14C421.831 171.14 423.046 171.14 424.26 171.14C425.475 171.14 426.676 171.14 427.863 171.14C427.863 175.778 427.863 180.47 427.863 185.218C427.863 189.966 427.863 194.659 427.863 199.296C426.676 199.296 425.475 199.296 424.26 199.296C423.046 199.296 421.831 199.296 420.617 199.296Z" fill="#199F1B"/>
<path d="M433.47 199.296C433.47 194.659 433.47 189.966 433.47 185.218C433.47 180.47 433.47 175.778 433.47 171.14C434.685 171.14 435.899 171.14 437.114 171.14C438.328 171.14 439.529 171.14 440.716 171.14C440.716 174.701 440.716 178.304 440.716 181.947C440.716 185.563 440.716 189.152 440.716 192.713C442.179 192.713 443.656 192.713 445.147 192.713C446.637 192.713 448.1 192.713 449.536 192.713C449.536 193.789 449.536 194.893 449.536 196.025C449.536 197.129 449.536 198.22 449.536 199.296C446.886 199.296 444.208 199.296 441.503 199.296C438.798 199.296 436.12 199.296 433.47 199.296Z" fill="#199F1B"/>
<path d="M453.693 199.296C453.693 194.659 453.693 189.966 453.693 185.218C453.693 180.47 453.693 175.778 453.693 171.14C454.907 171.14 456.122 171.14 457.336 171.14C458.551 171.14 459.752 171.14 460.939 171.14C460.939 175.778 460.939 180.47 460.939 185.218C460.939 189.966 460.939 194.659 460.939 199.296C459.752 199.296 458.551 199.296 457.336 199.296C456.122 199.296 454.907 199.296 453.693 199.296Z" fill="#199F1B"/>
<path d="M471.473 199.296C471.473 195.735 471.473 192.147 471.473 188.531C471.473 184.887 471.473 181.285 471.473 177.724C470.424 177.724 469.362 177.724 468.285 177.724C467.209 177.724 466.146 177.724 465.097 177.724C465.097 176.647 465.097 175.557 465.097 174.453C465.097 173.321 465.097 172.217 465.097 171.14C468.382 171.14 471.708 171.14 475.076 171.14C478.443 171.14 481.769 171.14 485.054 171.14C485.054 172.217 485.054 173.321 485.054 174.453C485.054 175.557 485.054 176.647 485.054 177.724C484.033 177.724 482.984 177.724 481.907 177.724C480.831 177.724 479.768 177.724 478.719 177.724C478.719 181.285 478.719 184.887 478.719 188.531C478.719 192.147 478.719 195.735 478.719 199.296C477.532 199.296 476.332 199.296 475.117 199.296C473.902 199.296 472.688 199.296 471.473 199.296Z" fill="#199F1B"/>
<path d="M495.074 199.296C495.074 197.612 495.074 195.915 495.074 194.203C495.074 192.492 495.074 190.794 495.074 189.11C493.611 186.157 492.12 183.162 490.602 180.125C489.084 177.089 487.593 174.094 486.13 171.14C487.4 171.14 488.684 171.14 489.981 171.14C491.279 171.14 492.562 171.14 493.832 171.14C494.632 172.824 495.447 174.522 496.275 176.233C497.131 177.917 497.959 179.601 498.759 181.285C499.56 179.601 500.374 177.917 501.202 176.233C502.03 174.522 502.844 172.824 503.645 171.14C504.915 171.14 506.185 171.14 507.454 171.14C508.724 171.14 509.994 171.14 511.264 171.14C509.801 174.094 508.31 177.089 506.792 180.125C505.274 183.162 503.783 186.157 502.32 189.11C502.32 190.794 502.32 192.492 502.32 194.203C502.32 195.915 502.32 197.612 502.32 199.296C501.133 199.296 499.932 199.296 498.718 199.296C497.503 199.296 496.289 199.296 495.074 199.296Z" fill="#199F1B"/>
<path d="M542.715 190.974C542.715 192.823 542.246 194.424 541.307 195.777C540.396 197.129 539.126 198.178 537.498 198.923C535.869 199.641 533.978 200 531.825 200C529.81 200 528.016 199.683 526.443 199.048C524.897 198.385 523.668 197.447 522.757 196.232C521.874 194.99 521.432 193.527 521.432 191.843C521.432 190.463 521.736 189.193 522.343 188.034C522.978 186.874 523.931 185.881 525.2 185.053C524.179 184.28 523.42 183.383 522.923 182.361C522.454 181.312 522.219 180.167 522.219 178.925C522.219 177.103 522.702 175.585 523.668 174.37C524.662 173.155 525.987 172.245 527.643 171.637C529.3 171.03 531.135 170.713 533.15 170.685C535.165 170.63 537.208 170.864 539.278 171.389C539.278 172.493 539.278 173.611 539.278 174.743C539.278 175.874 539.278 177.006 539.278 178.138C538.119 177.807 536.946 177.572 535.759 177.434C534.599 177.296 533.537 177.282 532.571 177.393C531.604 177.503 530.818 177.738 530.21 178.097C529.631 178.455 529.341 178.966 529.341 179.629C529.341 180.484 529.921 181.078 531.08 181.409C532.239 181.713 533.84 181.864 535.883 181.864C535.883 181.368 535.883 180.871 535.883 180.374C535.883 179.849 535.883 179.339 535.883 178.842C537.015 178.842 538.16 178.842 539.32 178.842C540.479 178.842 541.611 178.842 542.715 178.842C542.715 179.339 542.715 179.849 542.715 180.374C542.715 180.871 542.715 181.368 542.715 181.864C543.129 181.864 543.557 181.864 543.998 181.864C544.44 181.864 544.868 181.864 545.282 181.864C545.282 182.886 545.282 183.907 545.282 184.928C545.282 185.95 545.282 186.971 545.282 187.992C544.868 187.992 544.44 187.992 543.998 187.992C543.557 187.992 543.129 187.992 542.715 187.992C542.715 188.489 542.715 188.986 542.715 189.483C542.715 189.98 542.715 190.477 542.715 190.974ZM528.678 190.808C528.678 191.609 528.968 192.285 529.548 192.837C530.155 193.361 530.997 193.624 532.074 193.624C533.233 193.624 534.158 193.348 534.848 192.795C535.538 192.216 535.883 191.415 535.883 190.394C535.883 190.007 535.883 189.607 535.883 189.193C535.883 188.779 535.883 188.379 535.883 187.992C533.619 187.992 531.853 188.158 530.583 188.489C529.313 188.821 528.678 189.593 528.678 190.808Z" fill="#199F1B"/>
<path d="M562.496 171.14C563.131 173.984 563.766 176.868 564.401 179.794C565.036 182.72 565.657 185.619 566.264 188.489C566.899 185.619 567.534 182.72 568.169 179.794C568.831 176.868 569.466 173.984 570.073 171.14C571.15 171.14 572.24 171.14 573.345 171.14C574.449 171.14 575.539 171.14 576.616 171.14C577.278 173.984 577.941 176.854 578.603 179.753C579.265 182.651 579.928 185.536 580.59 188.406C581.225 185.536 581.846 182.651 582.454 179.753C583.089 176.854 583.71 173.984 584.317 171.14C585.421 171.14 586.525 171.14 587.629 171.14C588.761 171.14 589.879 171.14 590.983 171.14C589.962 175.778 588.941 180.47 587.919 185.218C586.898 189.966 585.877 194.659 584.855 199.296C583.503 199.296 582.122 199.296 580.715 199.296C579.335 199.296 577.954 199.296 576.574 199.296C575.994 196.729 575.401 194.148 574.794 191.553C574.186 188.931 573.593 186.336 573.013 183.769C572.461 186.336 571.895 188.931 571.316 191.553C570.736 194.148 570.17 196.729 569.618 199.296C568.265 199.296 566.899 199.296 565.519 199.296C564.166 199.296 562.814 199.296 561.461 199.296C560.44 194.659 559.419 189.966 558.397 185.218C557.376 180.47 556.355 175.778 555.333 171.14C556.52 171.14 557.707 171.14 558.894 171.14C560.109 171.14 561.309 171.14 562.496 171.14Z" fill="#199F1B"/>
<path d="M606.017 199.959C604.002 199.959 602.139 199.6 600.428 198.882C598.716 198.137 597.239 197.102 595.997 195.777C594.755 194.452 593.789 192.892 593.099 191.098C592.409 189.276 592.064 187.302 592.064 185.177C592.064 183.051 592.409 181.092 593.099 179.297C593.789 177.503 594.755 175.957 595.997 174.66C597.239 173.335 598.716 172.314 600.428 171.596C602.139 170.851 604.002 170.478 606.017 170.478C608.032 170.478 609.882 170.851 611.566 171.596C613.277 172.314 614.754 173.335 615.996 174.66C617.266 175.957 618.246 177.503 618.936 179.297C619.626 181.092 619.971 183.051 619.971 185.177C619.971 187.302 619.626 189.276 618.936 191.098C618.246 192.892 617.266 194.452 615.996 195.777C614.754 197.102 613.277 198.137 611.566 198.882C609.882 199.6 608.032 199.959 606.017 199.959ZM606.017 193.251C607.37 193.251 608.529 192.92 609.495 192.257C610.461 191.567 611.207 190.615 611.731 189.4C612.283 188.186 612.559 186.778 612.559 185.177C612.559 183.576 612.283 182.182 611.731 180.995C611.207 179.808 610.461 178.883 609.495 178.221C608.529 177.531 607.37 177.186 606.017 177.186C604.692 177.186 603.533 177.517 602.539 178.179C601.573 178.842 600.814 179.78 600.262 180.995C599.737 182.182 599.475 183.576 599.475 185.177C599.475 186.778 599.737 188.186 600.262 189.4C600.814 190.615 601.573 191.567 602.539 192.257C603.533 192.92 604.692 193.251 606.017 193.251Z" fill="#199F1B"/>
<path d="M623.959 199.296C623.959 194.659 623.959 189.966 623.959 185.218C623.959 180.47 623.959 175.778 623.959 171.14C625.671 171.14 627.396 171.14 629.135 171.14C630.874 171.14 632.599 171.14 634.311 171.14C635.111 173.956 635.898 176.813 636.671 179.711C637.471 182.582 638.258 185.425 639.031 188.241C639.804 185.425 640.577 182.582 641.35 179.711C642.15 176.813 642.937 173.956 643.71 171.14C645.421 171.14 647.133 171.14 648.844 171.14C650.556 171.14 652.253 171.14 653.937 171.14C653.965 175.778 653.992 180.47 654.02 185.218C654.047 189.966 654.075 194.659 654.103 199.296C652.943 199.296 651.77 199.296 650.583 199.296C649.424 199.296 648.264 199.296 647.105 199.296C647.105 196.149 647.105 192.975 647.105 189.773C647.105 186.543 647.105 183.355 647.105 180.208C646.277 183.355 645.435 186.543 644.579 189.773C643.724 192.975 642.882 196.149 642.054 199.296C641.032 199.296 639.983 199.296 638.907 199.296C637.858 199.296 636.809 199.296 635.76 199.296C634.932 196.204 634.104 193.085 633.276 189.938C632.448 186.764 631.619 183.631 630.791 180.539C630.791 183.631 630.791 186.764 630.791 189.938C630.791 193.085 630.791 196.204 630.791 199.296C629.687 199.296 628.555 199.296 627.396 199.296C626.237 199.296 625.091 199.296 623.959 199.296Z" fill="#199F1B"/>
<path d="M659.502 199.296C659.502 194.659 659.502 189.966 659.502 185.218C659.502 180.47 659.502 175.778 659.502 171.14C662.29 171.14 665.105 171.14 667.948 171.14C670.792 171.14 673.607 171.14 676.395 171.14C676.395 172.189 676.395 173.266 676.395 174.37C676.395 175.474 676.395 176.551 676.395 177.6C674.794 177.6 673.179 177.6 671.551 177.6C669.95 177.6 668.349 177.6 666.748 177.6C666.748 178.29 666.748 178.98 666.748 179.67C666.748 180.332 666.748 181.009 666.748 181.699C668.211 181.699 669.688 181.699 671.178 181.699C672.669 181.699 674.132 181.699 675.567 181.699C675.567 182.72 675.567 183.755 675.567 184.804C675.567 185.853 675.567 186.902 675.567 187.951C674.132 187.951 672.669 187.951 671.178 187.951C669.688 187.951 668.211 187.951 666.748 187.951C666.748 188.752 666.748 189.566 666.748 190.394C666.748 191.222 666.748 192.036 666.748 192.837C668.349 192.837 669.95 192.837 671.551 192.837C673.179 192.837 674.794 192.837 676.395 192.837C676.395 193.886 676.395 194.962 676.395 196.066C676.395 197.171 676.395 198.247 676.395 199.296C673.607 199.296 670.792 199.296 667.948 199.296C665.105 199.296 662.29 199.296 659.502 199.296Z" fill="#199F1B"/>
<path d="M681.377 199.296C681.377 194.659 681.377 189.966 681.377 185.218C681.377 180.47 681.377 175.778 681.377 171.14C682.592 171.14 683.806 171.14 685.021 171.14C686.263 171.14 687.477 171.14 688.664 171.14C690.127 173.763 691.604 176.413 693.095 179.09C694.613 181.768 696.104 184.418 697.567 187.04C697.567 184.418 697.567 181.768 697.567 179.09C697.567 176.413 697.567 173.763 697.567 171.14C698.754 171.14 699.941 171.14 701.127 171.14C702.314 171.14 703.501 171.14 704.688 171.14C704.688 175.778 704.688 180.47 704.688 185.218C704.688 189.966 704.688 194.659 704.688 199.296C703.501 199.296 702.287 199.296 701.045 199.296C699.83 199.296 698.616 199.296 697.401 199.296C695.938 196.674 694.447 194.024 692.929 191.346C691.439 188.669 689.962 186.019 688.499 183.396C688.499 186.019 688.499 188.669 688.499 191.346C688.499 194.024 688.499 196.674 688.499 199.296C687.312 199.296 686.125 199.296 684.938 199.296C683.751 199.296 682.564 199.296 681.377 199.296Z" fill="#199F1B"/>
<path d="M728.594 190.808C728.594 192.906 728.042 194.617 726.938 195.942C725.861 197.24 724.398 198.178 722.549 198.758C720.727 199.338 718.684 199.586 716.421 199.503C714.157 199.448 711.853 199.103 709.506 198.468C709.506 197.281 709.506 196.094 709.506 194.907C709.506 193.72 709.506 192.533 709.506 191.346C711.659 192.119 713.619 192.602 715.386 192.795C717.152 192.989 718.56 192.92 719.609 192.588C720.658 192.23 721.183 191.636 721.183 190.808C721.183 190.228 720.893 189.759 720.313 189.4C719.733 189.014 718.974 188.669 718.036 188.365C717.125 188.061 716.159 187.716 715.137 187.33C714.116 186.916 713.136 186.405 712.198 185.798C711.287 185.163 710.541 184.349 709.962 183.355C709.382 182.334 709.092 181.064 709.092 179.546C709.092 177.669 709.589 176.081 710.583 174.784C711.577 173.487 712.915 172.507 714.599 171.844C716.311 171.182 718.243 170.851 720.396 170.851C722.577 170.851 724.826 171.182 727.145 171.844C727.145 173.031 727.145 174.218 727.145 175.405C727.145 176.592 727.145 177.779 727.145 178.966C725.213 178.138 723.432 177.641 721.804 177.475C720.203 177.282 718.919 177.365 717.953 177.724C716.987 178.055 716.504 178.607 716.504 179.38C716.504 179.932 716.794 180.388 717.373 180.746C717.953 181.105 718.698 181.437 719.609 181.74C720.548 182.016 721.528 182.361 722.549 182.775C723.57 183.162 724.536 183.686 725.447 184.349C726.386 184.984 727.145 185.826 727.725 186.874C728.304 187.896 728.594 189.207 728.594 190.808Z" fill="#199F1B"/>
<path d="M739.651 185.218C739.651 183.093 739.983 181.161 740.645 179.421C741.335 177.655 742.301 176.123 743.543 174.826C744.786 173.528 746.276 172.521 748.015 171.803C749.754 171.085 751.673 170.699 753.771 170.644C755.896 170.588 758.16 170.92 760.561 171.637C760.561 172.797 760.561 173.97 760.561 175.157C760.561 176.316 760.561 177.475 760.561 178.635C758.932 177.862 757.318 177.42 755.717 177.31C754.116 177.199 752.666 177.42 751.369 177.972C750.072 178.524 749.037 179.408 748.264 180.622C747.491 181.809 747.104 183.341 747.104 185.218C747.104 187.095 747.491 188.641 748.264 189.856C749.037 191.043 750.072 191.912 751.369 192.464C752.666 193.016 754.116 193.237 755.717 193.127C757.318 193.016 758.932 192.575 760.561 191.802C760.561 192.961 760.561 194.134 760.561 195.321C760.561 196.481 760.561 197.64 760.561 198.799C758.16 199.517 755.896 199.848 753.771 199.793C751.673 199.738 749.754 199.351 748.015 198.634C746.276 197.916 744.786 196.908 743.543 195.611C742.301 194.314 741.335 192.795 740.645 191.056C739.983 189.29 739.651 187.344 739.651 185.218Z" fill="#199F1B"/>
<path d="M765.32 199.296C765.32 194.659 765.32 189.966 765.32 185.218C765.32 180.47 765.32 175.778 765.32 171.14C766.535 171.14 767.749 171.14 768.964 171.14C770.178 171.14 771.379 171.14 772.566 171.14C772.566 174.701 772.566 178.304 772.566 181.947C772.566 185.563 772.566 189.152 772.566 192.713C774.029 192.713 775.506 192.713 776.996 192.713C778.487 192.713 779.95 192.713 781.385 192.713C781.385 193.789 781.385 194.893 781.385 196.025C781.385 197.129 781.385 198.22 781.385 199.296C778.735 199.296 776.058 199.296 773.353 199.296C770.648 199.296 767.97 199.296 765.32 199.296Z" fill="#199F1B"/>
<path d="M785.542 199.296C785.542 194.659 785.542 189.966 785.542 185.218C785.542 180.47 785.542 175.778 785.542 171.14C786.757 171.14 787.972 171.14 789.186 171.14C790.401 171.14 791.601 171.14 792.788 171.14C792.788 175.778 792.788 180.47 792.788 185.218C792.788 189.966 792.788 194.659 792.788 199.296C791.601 199.296 790.401 199.296 789.186 199.296C787.972 199.296 786.757 199.296 785.542 199.296Z" fill="#199F1B"/>
<path d="M798.396 199.296C798.396 194.659 798.396 189.966 798.396 185.218C798.396 180.47 798.396 175.778 798.396 171.14C799.61 171.14 800.825 171.14 802.04 171.14C803.282 171.14 804.496 171.14 805.683 171.14C807.146 173.763 808.623 176.413 810.114 179.09C811.632 181.768 813.122 184.418 814.585 187.04C814.585 184.418 814.585 181.768 814.585 179.09C814.585 176.413 814.585 173.763 814.585 171.14C815.772 171.14 816.959 171.14 818.146 171.14C819.333 171.14 820.52 171.14 821.707 171.14C821.707 175.778 821.707 180.47 821.707 185.218C821.707 189.966 821.707 194.659 821.707 199.296C820.52 199.296 819.306 199.296 818.063 199.296C816.849 199.296 815.634 199.296 814.42 199.296C812.957 196.674 811.466 194.024 809.948 191.346C808.457 188.669 806.981 186.019 805.518 183.396C805.518 186.019 805.518 188.669 805.518 191.346C805.518 194.024 805.518 196.674 805.518 199.296C804.331 199.296 803.144 199.296 801.957 199.296C800.77 199.296 799.583 199.296 798.396 199.296Z" fill="#199F1B"/>
<path d="M827.312 199.296C827.312 194.659 827.312 189.966 827.312 185.218C827.312 180.47 827.312 175.778 827.312 171.14C828.526 171.14 829.741 171.14 830.955 171.14C832.17 171.14 833.371 171.14 834.558 171.14C834.558 175.778 834.558 180.47 834.558 185.218C834.558 189.966 834.558 194.659 834.558 199.296C833.371 199.296 832.17 199.296 830.955 199.296C829.741 199.296 828.526 199.296 827.312 199.296Z" fill="#199F1B"/>
<path d="M838.757 185.218C838.757 183.093 839.089 181.161 839.751 179.421C840.441 177.655 841.407 176.123 842.65 174.826C843.892 173.528 845.382 172.521 847.121 171.803C848.86 171.085 850.779 170.699 852.877 170.644C855.002 170.588 857.266 170.92 859.667 171.637C859.667 172.797 859.667 173.97 859.667 175.157C859.667 176.316 859.667 177.475 859.667 178.635C858.039 177.862 856.424 177.42 854.823 177.31C853.222 177.199 851.773 177.42 850.475 177.972C849.178 178.524 848.143 179.408 847.37 180.622C846.597 181.809 846.21 183.341 846.21 185.218C846.21 187.095 846.597 188.641 847.37 189.856C848.143 191.043 849.178 191.912 850.475 192.464C851.773 193.016 853.222 193.237 854.823 193.127C856.424 193.016 858.039 192.575 859.667 191.802C859.667 192.961 859.667 194.134 859.667 195.321C859.667 196.481 859.667 197.64 859.667 198.799C857.266 199.517 855.002 199.848 852.877 199.793C850.779 199.738 848.86 199.351 847.121 198.634C845.382 197.916 843.892 196.908 842.65 195.611C841.407 194.314 840.441 192.795 839.751 191.056C839.089 189.29 838.757 187.344 838.757 185.218Z" fill="#199F1B"/>
</svg>
