<svg width="226" height="168" viewBox="0 0 226 168" fill="none" xmlns="http://www.w3.org/2000/svg">
<path d="M11.9618 148V138.64H15.4198C16.0871 138.64 16.6548 138.748 17.1228 138.965C17.5908 139.182 17.9461 139.485 18.1887 139.875C18.4401 140.256 18.5658 140.711 18.5658 141.24C18.5658 141.769 18.4401 142.232 18.1887 142.631C17.9461 143.021 17.5908 143.329 17.1228 143.554C16.6548 143.771 16.0871 143.879 15.4198 143.879H12.7418V142.943H15.3808C16.0741 142.943 16.5984 142.791 16.9538 142.488C17.3178 142.185 17.4998 141.769 17.4998 141.24C17.4998 140.72 17.3221 140.313 16.9668 140.018C16.6114 139.723 16.0828 139.576 15.3808 139.576H13.0278V148H11.9618ZM17.4478 148L12.4688 143.359H13.9248L19.0598 148H17.4478ZM22.7384 148.13C22.1058 148.13 21.5468 147.983 21.0614 147.688C20.5761 147.385 20.1948 146.973 19.9174 146.453C19.6401 145.933 19.5014 145.335 19.5014 144.659C19.5014 143.983 19.6358 143.389 19.9044 142.878C20.1818 142.358 20.5674 141.955 21.0614 141.669C21.5554 141.383 22.1231 141.24 22.7644 141.24C23.3798 141.24 23.9128 141.374 24.3634 141.643C24.8228 141.912 25.1738 142.289 25.4164 142.774C25.6678 143.259 25.7934 143.831 25.7934 144.49C25.7934 144.577 25.7891 144.659 25.7804 144.737C25.7804 144.815 25.7718 144.902 25.7544 144.997H20.2814V144.126H25.1174L24.7794 144.607C24.7794 143.81 24.6018 143.199 24.2464 142.774C23.8998 142.341 23.4058 142.124 22.7644 142.124C22.1058 142.124 21.5728 142.354 21.1654 142.813C20.7668 143.264 20.5674 143.875 20.5674 144.646C20.5674 145.435 20.7668 146.067 21.1654 146.544C21.5728 147.012 22.1144 147.246 22.7904 147.246C23.2151 147.246 23.5878 147.155 23.9084 146.973C24.2291 146.782 24.4631 146.514 24.6104 146.167H25.5984C25.3818 146.774 25.0178 147.255 24.5064 147.61C24.0038 147.957 23.4144 148.13 22.7384 148.13ZM29.9983 150.795C29.2097 150.795 28.551 150.609 28.0223 150.236C27.5023 149.872 27.186 149.387 27.0733 148.78H28.0613C28.1567 149.127 28.369 149.4 28.6983 149.599C29.0363 149.807 29.4913 149.911 30.0633 149.911C30.7393 149.911 31.2507 149.725 31.5973 149.352C31.944 148.988 32.1173 148.451 32.1173 147.74V146.323L32.2473 146.349C32.1 146.852 31.8053 147.255 31.3633 147.558C30.9213 147.853 30.397 148 29.7903 148C29.2097 148 28.6983 147.861 28.2563 147.584C27.8143 147.298 27.472 146.904 27.2293 146.401C26.9867 145.898 26.8653 145.313 26.8653 144.646C26.8653 143.97 26.991 143.376 27.2423 142.865C27.4937 142.354 27.8447 141.959 28.2953 141.682C28.7547 141.396 29.2877 141.253 29.8943 141.253C30.5183 141.253 31.0383 141.405 31.4543 141.708C31.879 142.011 32.1607 142.445 32.2993 143.008L32.1823 143.021V141.37H33.1573V147.74C33.1573 148.685 32.8757 149.43 32.3123 149.976C31.749 150.522 30.9777 150.795 29.9983 150.795ZM30.0503 147.103C30.7003 147.103 31.216 146.878 31.5973 146.427C31.9787 145.976 32.1693 145.365 32.1693 144.594C32.1693 143.84 31.9787 143.246 31.5973 142.813C31.216 142.371 30.7003 142.15 30.0503 142.15C29.3917 142.15 28.8717 142.371 28.4903 142.813C28.1177 143.255 27.9313 143.862 27.9313 144.633C27.9313 145.387 28.122 145.989 28.5033 146.44C28.8847 146.882 29.4003 147.103 30.0503 147.103ZM37.4011 148.13C36.9678 148.13 36.5821 148.043 36.2441 147.87C35.9061 147.688 35.6418 147.437 35.4511 147.116C35.2605 146.787 35.1651 146.41 35.1651 145.985V141.37H36.2051V145.712C36.2051 146.215 36.3265 146.592 36.5691 146.843C36.8205 147.094 37.1758 147.22 37.6351 147.22C38.0511 147.22 38.4195 147.125 38.7401 146.934C39.0608 146.743 39.3121 146.479 39.4941 146.141C39.6848 145.794 39.7801 145.4 39.7801 144.958L39.9491 146.531C39.7325 147.025 39.3945 147.415 38.9351 147.701C38.4758 147.987 37.9645 148.13 37.4011 148.13ZM39.8451 148V146.44H39.7801V141.37H40.8201V148H39.8451ZM42.8984 148V138.64H43.9384V148H42.8984ZM50.0904 148C50.0558 147.853 50.0298 147.684 50.0124 147.493C50.0038 147.302 49.9994 147.06 49.9994 146.765H49.9344V143.593C49.9344 143.09 49.8174 142.722 49.5834 142.488C49.3581 142.245 48.9898 142.124 48.4784 142.124C47.9758 142.124 47.5728 142.228 47.2694 142.436C46.9748 142.635 46.8101 142.921 46.7754 143.294H45.7744C45.8178 142.653 46.0864 142.15 46.5804 141.786C47.0744 141.422 47.7201 141.24 48.5174 141.24C49.3408 141.24 49.9518 141.435 50.3504 141.825C50.7491 142.215 50.9484 142.8 50.9484 143.58V146.765C50.9484 146.956 50.9614 147.155 50.9874 147.363C51.0134 147.562 51.0481 147.775 51.0914 148H50.0904ZM47.8154 148.13C47.1308 148.13 46.5848 147.965 46.1774 147.636C45.7788 147.298 45.5794 146.839 45.5794 146.258C45.5794 145.677 45.7788 145.227 46.1774 144.906C46.5761 144.585 47.1568 144.36 47.9194 144.23L50.2334 143.84V144.698L48.0754 145.036C47.5901 145.114 47.2218 145.244 46.9704 145.426C46.7191 145.608 46.5934 145.872 46.5934 146.219C46.5934 146.557 46.7061 146.813 46.9314 146.986C47.1654 147.159 47.5078 147.246 47.9584 147.246C48.5391 147.246 49.0114 147.116 49.3754 146.856C49.7481 146.587 49.9344 146.241 49.9344 145.816L50.1034 146.739C49.9648 147.181 49.6918 147.523 49.2844 147.766C48.8858 148.009 48.3961 148.13 47.8154 148.13ZM52.9531 148V141.37H53.9281V143.06H53.9931V148H52.9531ZM53.9931 144.542L53.8241 142.969C53.9801 142.406 54.2574 141.977 54.6561 141.682C55.0548 141.387 55.5141 141.24 56.0341 141.24C56.2508 141.24 56.3981 141.257 56.4761 141.292V142.293C56.4328 142.276 56.3721 142.267 56.2941 142.267C56.2161 142.258 56.1208 142.254 56.0081 142.254C55.3494 142.254 54.8468 142.453 54.5001 142.852C54.1621 143.242 53.9931 143.805 53.9931 144.542ZM63.0566 148.13C62.45 148.13 61.9083 147.983 61.4316 147.688C60.9636 147.385 60.591 146.973 60.3136 146.453C60.045 145.924 59.9106 145.326 59.9106 144.659C59.9106 143.992 60.045 143.402 60.3136 142.891C60.591 142.38 60.9636 141.977 61.4316 141.682C61.9083 141.387 62.4456 141.24 63.0436 141.24C63.5376 141.24 63.9796 141.335 64.3696 141.526C64.7683 141.717 65.0933 141.99 65.3446 142.345C65.6046 142.692 65.7693 143.099 65.8386 143.567H64.8766C64.79 143.142 64.5906 142.796 64.2786 142.527C63.9666 142.258 63.5636 142.124 63.0696 142.124C62.645 142.124 62.2766 142.228 61.9646 142.436C61.6526 142.644 61.41 142.939 61.2366 143.32C61.0633 143.701 60.9766 144.148 60.9766 144.659C60.9766 145.17 61.0633 145.621 61.2366 146.011C61.41 146.401 61.6526 146.704 61.9646 146.921C62.2853 147.138 62.658 147.246 63.0826 147.246C63.5593 147.246 63.958 147.116 64.2786 146.856C64.5993 146.587 64.803 146.241 64.8896 145.816H65.8516C65.7736 146.275 65.6003 146.683 65.3316 147.038C65.0716 147.385 64.7466 147.653 64.3566 147.844C63.9666 148.035 63.5333 148.13 63.0566 148.13ZM67.3623 148V138.64H68.4023V148H67.3623ZM72.1073 148V143.658C72.1073 143.155 71.9816 142.778 71.7303 142.527C71.4789 142.276 71.1063 142.15 70.6123 142.15C70.1789 142.15 69.7933 142.245 69.4553 142.436C69.1259 142.627 68.8659 142.891 68.6753 143.229C68.4933 143.567 68.4023 143.961 68.4023 144.412L68.2333 142.839C68.4586 142.345 68.8009 141.955 69.2603 141.669C69.7283 141.383 70.2569 141.24 70.8463 141.24C71.5396 141.24 72.0943 141.439 72.5103 141.838C72.9349 142.228 73.1473 142.744 73.1473 143.385V148H72.1073ZM77.8615 148.13C77.2288 148.13 76.6698 147.983 76.1845 147.688C75.6992 147.385 75.3178 146.973 75.0405 146.453C74.7632 145.933 74.6245 145.335 74.6245 144.659C74.6245 143.983 74.7588 143.389 75.0275 142.878C75.3048 142.358 75.6905 141.955 76.1845 141.669C76.6785 141.383 77.2462 141.24 77.8875 141.24C78.5028 141.24 79.0358 141.374 79.4865 141.643C79.9458 141.912 80.2968 142.289 80.5395 142.774C80.7908 143.259 80.9165 143.831 80.9165 144.49C80.9165 144.577 80.9122 144.659 80.9035 144.737C80.9035 144.815 80.8948 144.902 80.8775 144.997H75.4045V144.126H80.2405L79.9025 144.607C79.9025 143.81 79.7248 143.199 79.3695 142.774C79.0228 142.341 78.5288 142.124 77.8875 142.124C77.2288 142.124 76.6958 142.354 76.2885 142.813C75.8898 143.264 75.6905 143.875 75.6905 144.646C75.6905 145.435 75.8898 146.067 76.2885 146.544C76.6958 147.012 77.2375 147.246 77.9135 147.246C78.3382 147.246 78.7108 147.155 79.0315 146.973C79.3522 146.782 79.5862 146.514 79.7335 146.167H80.7215C80.5048 146.774 80.1408 147.255 79.6295 147.61C79.1268 147.957 78.5375 148.13 77.8615 148.13ZM85.1084 148.13C84.5017 148.13 83.96 147.983 83.4834 147.688C83.0154 147.385 82.6427 146.973 82.3654 146.453C82.0967 145.924 81.9624 145.326 81.9624 144.659C81.9624 143.992 82.0967 143.402 82.3654 142.891C82.6427 142.38 83.0154 141.977 83.4834 141.682C83.96 141.387 84.4974 141.24 85.0954 141.24C85.5894 141.24 86.0314 141.335 86.4214 141.526C86.82 141.717 87.145 141.99 87.3964 142.345C87.6564 142.692 87.821 143.099 87.8904 143.567H86.9284C86.8417 143.142 86.6424 142.796 86.3304 142.527C86.0184 142.258 85.6154 142.124 85.1214 142.124C84.6967 142.124 84.3284 142.228 84.0164 142.436C83.7044 142.644 83.4617 142.939 83.2884 143.32C83.115 143.701 83.0284 144.148 83.0284 144.659C83.0284 145.17 83.115 145.621 83.2884 146.011C83.4617 146.401 83.7044 146.704 84.0164 146.921C84.337 147.138 84.7097 147.246 85.1344 147.246C85.611 147.246 86.0097 147.116 86.3304 146.856C86.651 146.587 86.8547 146.241 86.9414 145.816H87.9034C87.8254 146.275 87.652 146.683 87.3834 147.038C87.1234 147.385 86.7984 147.653 86.4084 147.844C86.0184 148.035 85.585 148.13 85.1084 148.13ZM89.414 148V138.38H90.454V148H89.414ZM93.743 148L90.22 144.555L93.613 141.37H95.043L91.234 144.854L91.299 144.243L95.173 148H93.743ZM95.2158 144.958V143.97H99.7138V144.958H95.2158ZM103.366 148.13C102.933 148.13 102.547 148.043 102.209 147.87C101.871 147.688 101.607 147.437 101.416 147.116C101.225 146.787 101.13 146.41 101.13 145.985V141.37H102.17V145.712C102.17 146.215 102.291 146.592 102.534 146.843C102.785 147.094 103.141 147.22 103.6 147.22C104.016 147.22 104.384 147.125 104.705 146.934C105.026 146.743 105.277 146.479 105.459 146.141C105.65 145.794 105.745 145.4 105.745 144.958L105.914 146.531C105.697 147.025 105.359 147.415 104.9 147.701C104.441 147.987 103.929 148.13 103.366 148.13ZM105.81 148V146.44H105.745V141.37H106.785V148H105.81ZM112.139 148.117C111.515 148.117 110.991 147.965 110.566 147.662C110.142 147.359 109.851 146.93 109.695 146.375L109.903 146.349V150.665H108.863V141.37H109.838V142.917L109.695 142.878C109.86 142.367 110.172 141.968 110.631 141.682C111.091 141.387 111.624 141.24 112.23 141.24C112.82 141.24 113.331 141.383 113.764 141.669C114.206 141.955 114.549 142.354 114.791 142.865C115.034 143.376 115.155 143.974 115.155 144.659C115.155 145.352 115.03 145.959 114.778 146.479C114.527 146.999 114.176 147.402 113.725 147.688C113.275 147.974 112.746 148.117 112.139 148.117ZM111.983 147.207C112.642 147.207 113.158 146.982 113.53 146.531C113.903 146.072 114.089 145.448 114.089 144.659C114.089 143.879 113.903 143.268 113.53 142.826C113.158 142.375 112.642 142.15 111.983 142.15C111.325 142.15 110.805 142.38 110.423 142.839C110.042 143.29 109.851 143.909 109.851 144.698C109.851 145.469 110.042 146.08 110.423 146.531C110.805 146.982 111.325 147.207 111.983 147.207ZM118.996 148.13C118.181 148.13 117.531 147.944 117.046 147.571C116.561 147.19 116.283 146.652 116.214 145.959H117.215C117.276 146.384 117.462 146.709 117.774 146.934C118.086 147.159 118.502 147.272 119.022 147.272C119.481 147.272 119.841 147.185 120.101 147.012C120.361 146.839 120.491 146.592 120.491 146.271C120.491 146.046 120.417 145.851 120.27 145.686C120.123 145.513 119.828 145.37 119.386 145.257L118.32 144.984C117.713 144.828 117.258 144.59 116.955 144.269C116.652 143.94 116.5 143.55 116.5 143.099C116.5 142.527 116.712 142.076 117.137 141.747C117.562 141.409 118.138 141.24 118.866 141.24C119.585 141.24 120.17 141.413 120.621 141.76C121.072 142.107 121.327 142.588 121.388 143.203H120.387C120.326 142.848 120.162 142.575 119.893 142.384C119.624 142.193 119.269 142.098 118.827 142.098C118.402 142.098 118.073 142.18 117.839 142.345C117.605 142.501 117.488 142.726 117.488 143.021C117.488 143.246 117.57 143.441 117.735 143.606C117.908 143.771 118.194 143.909 118.593 144.022L119.633 144.308C120.248 144.473 120.712 144.724 121.024 145.062C121.336 145.4 121.492 145.807 121.492 146.284C121.492 146.865 121.271 147.32 120.829 147.649C120.387 147.97 119.776 148.13 118.996 148.13ZM129.563 148C129.528 147.853 129.502 147.684 129.485 147.493C129.476 147.302 129.472 147.06 129.472 146.765H129.407V143.593C129.407 143.09 129.29 142.722 129.056 142.488C128.831 142.245 128.462 142.124 127.951 142.124C127.448 142.124 127.045 142.228 126.742 142.436C126.447 142.635 126.283 142.921 126.248 143.294H125.247C125.29 142.653 125.559 142.15 126.053 141.786C126.547 141.422 127.193 141.24 127.99 141.24C128.813 141.24 129.424 141.435 129.823 141.825C130.222 142.215 130.421 142.8 130.421 143.58V146.765C130.421 146.956 130.434 147.155 130.46 147.363C130.486 147.562 130.521 147.775 130.564 148H129.563ZM127.288 148.13C126.603 148.13 126.057 147.965 125.65 147.636C125.251 147.298 125.052 146.839 125.052 146.258C125.052 145.677 125.251 145.227 125.65 144.906C126.049 144.585 126.629 144.36 127.392 144.23L129.706 143.84V144.698L127.548 145.036C127.063 145.114 126.694 145.244 126.443 145.426C126.192 145.608 126.066 145.872 126.066 146.219C126.066 146.557 126.179 146.813 126.404 146.986C126.638 147.159 126.98 147.246 127.431 147.246C128.012 147.246 128.484 147.116 128.848 146.856C129.221 146.587 129.407 146.241 129.407 145.816L129.576 146.739C129.437 147.181 129.164 147.523 128.757 147.766C128.358 148.009 127.869 148.13 127.288 148.13ZM132.426 148V141.37H133.401V142.93H133.466V148H132.426ZM137.171 148V143.658C137.171 143.155 137.045 142.778 136.794 142.527C136.542 142.276 136.17 142.15 135.676 142.15C135.242 142.15 134.857 142.245 134.519 142.436C134.189 142.627 133.929 142.891 133.739 143.229C133.557 143.567 133.466 143.961 133.466 144.412L133.297 142.839C133.522 142.345 133.864 141.955 134.324 141.669C134.792 141.383 135.32 141.24 135.91 141.24C136.603 141.24 137.158 141.439 137.574 141.838C137.998 142.228 138.211 142.744 138.211 143.385V148H137.171ZM145.031 148V146.453L145.161 146.492C144.996 146.995 144.693 147.393 144.251 147.688C143.818 147.983 143.298 148.13 142.691 148.13C142.093 148.13 141.569 147.987 141.118 147.701C140.676 147.415 140.329 147.016 140.078 146.505C139.835 145.994 139.714 145.396 139.714 144.711C139.714 144.018 139.84 143.411 140.091 142.891C140.342 142.371 140.693 141.968 141.144 141.682C141.595 141.396 142.123 141.253 142.73 141.253C143.354 141.253 143.878 141.405 144.303 141.708C144.728 142.011 145.018 142.44 145.174 142.995L144.966 143.021V138.64H146.006V148H145.031ZM142.886 147.22C143.553 147.22 144.073 146.995 144.446 146.544C144.827 146.085 145.018 145.461 145.018 144.672C145.018 143.901 144.827 143.29 144.446 142.839C144.065 142.388 143.545 142.163 142.886 142.163C142.227 142.163 141.712 142.388 141.339 142.839C140.966 143.29 140.78 143.914 140.78 144.711C140.78 145.491 140.966 146.106 141.339 146.557C141.712 146.999 142.227 147.22 142.886 147.22ZM150.694 148V141.37H151.669V142.93H151.734V148H150.694ZM155.166 148V143.606C155.166 143.103 155.054 142.735 154.828 142.501C154.603 142.267 154.278 142.15 153.853 142.15C153.455 142.15 153.095 142.245 152.774 142.436C152.454 142.627 152.198 142.891 152.007 143.229C151.825 143.567 151.734 143.961 151.734 144.412L151.565 142.839C151.791 142.345 152.129 141.955 152.579 141.669C153.03 141.383 153.52 141.24 154.048 141.24C154.69 141.24 155.21 141.431 155.608 141.812C156.007 142.185 156.206 142.692 156.206 143.333V148H155.166ZM159.638 148V143.606C159.638 143.103 159.526 142.735 159.3 142.501C159.075 142.267 158.75 142.15 158.325 142.15C157.927 142.15 157.567 142.245 157.246 142.436C156.926 142.627 156.67 142.891 156.479 143.229C156.297 143.567 156.206 143.961 156.206 144.412L155.946 142.839C156.172 142.345 156.518 141.955 156.986 141.669C157.454 141.383 157.957 141.24 158.494 141.24C159.136 141.24 159.66 141.431 160.067 141.812C160.475 142.185 160.678 142.692 160.678 143.333V148H159.638ZM165.435 148.13C164.785 148.13 164.213 147.978 163.719 147.675C163.225 147.372 162.839 146.96 162.562 146.44C162.293 145.911 162.159 145.318 162.159 144.659C162.159 143.992 162.297 143.402 162.575 142.891C162.852 142.38 163.233 141.977 163.719 141.682C164.213 141.387 164.785 141.24 165.435 141.24C166.093 141.24 166.665 141.387 167.151 141.682C167.645 141.977 168.026 142.38 168.295 142.891C168.572 143.402 168.711 143.992 168.711 144.659C168.711 145.318 168.572 145.911 168.295 146.44C168.026 146.96 167.645 147.372 167.151 147.675C166.665 147.978 166.093 148.13 165.435 148.13ZM165.435 147.246C165.885 147.246 166.275 147.138 166.605 146.921C166.934 146.696 167.19 146.388 167.372 145.998C167.554 145.608 167.645 145.157 167.645 144.646C167.645 143.883 167.441 143.272 167.034 142.813C166.635 142.354 166.102 142.124 165.435 142.124C164.776 142.124 164.243 142.354 163.836 142.813C163.428 143.272 163.225 143.883 163.225 144.646C163.225 145.157 163.316 145.608 163.498 145.998C163.68 146.388 163.935 146.696 164.265 146.921C164.603 147.138 164.993 147.246 165.435 147.246ZM170.27 148V141.37H171.245V142.93H171.31V148H170.27ZM175.015 148V143.658C175.015 143.155 174.89 142.778 174.638 142.527C174.387 142.276 174.014 142.15 173.52 142.15C173.087 142.15 172.701 142.245 172.363 142.436C172.034 142.627 171.774 142.891 171.583 143.229C171.401 143.567 171.31 143.961 171.31 144.412L171.141 142.839C171.367 142.345 171.709 141.955 172.168 141.669C172.636 141.383 173.165 141.24 173.754 141.24C174.448 141.24 175.002 141.439 175.418 141.838C175.843 142.228 176.055 142.744 176.055 143.385V148H175.015ZM178.053 148V141.37H179.093V148H178.053ZM177.975 139.862V138.64H179.171V139.862H177.975ZM183.802 148.117C183.066 148.117 182.528 147.952 182.19 147.623C181.861 147.285 181.696 146.8 181.696 146.167V139.823L182.736 139.433V146.154C182.736 146.527 182.832 146.8 183.022 146.973C183.213 147.146 183.525 147.233 183.958 147.233C184.132 147.233 184.279 147.224 184.4 147.207C184.53 147.181 184.634 147.151 184.712 147.116V148C184.626 148.035 184.5 148.061 184.335 148.078C184.179 148.104 184.002 148.117 183.802 148.117ZM180.331 142.254V141.37H184.712V142.254H180.331ZM188.654 148.13C188.004 148.13 187.432 147.978 186.938 147.675C186.444 147.372 186.059 146.96 185.781 146.44C185.513 145.911 185.378 145.318 185.378 144.659C185.378 143.992 185.517 143.402 185.794 142.891C186.072 142.38 186.453 141.977 186.938 141.682C187.432 141.387 188.004 141.24 188.654 141.24C189.313 141.24 189.885 141.387 190.37 141.682C190.864 141.977 191.246 142.38 191.514 142.891C191.792 143.402 191.93 143.992 191.93 144.659C191.93 145.318 191.792 145.911 191.514 146.44C191.246 146.96 190.864 147.372 190.37 147.675C189.885 147.978 189.313 148.13 188.654 148.13ZM188.654 147.246C189.105 147.246 189.495 147.138 189.824 146.921C190.154 146.696 190.409 146.388 190.591 145.998C190.773 145.608 190.864 145.157 190.864 144.646C190.864 143.883 190.661 143.272 190.253 142.813C189.855 142.354 189.322 142.124 188.654 142.124C187.996 142.124 187.463 142.354 187.055 142.813C186.648 143.272 186.444 143.883 186.444 144.646C186.444 145.157 186.535 145.608 186.717 145.998C186.899 146.388 187.155 146.696 187.484 146.921C187.822 147.138 188.212 147.246 188.654 147.246ZM193.49 148V141.37H194.465V143.06H194.53V148H193.49ZM194.53 144.542L194.361 142.969C194.517 142.406 194.795 141.977 195.193 141.682C195.592 141.387 196.051 141.24 196.571 141.24C196.788 141.24 196.935 141.257 197.013 141.292V142.293C196.97 142.276 196.909 142.267 196.831 142.267C196.753 142.258 196.658 142.254 196.545 142.254C195.887 142.254 195.384 142.453 195.037 142.852C194.699 143.242 194.53 143.805 194.53 144.542ZM198.251 148V141.37H199.291V148H198.251ZM198.173 139.862V138.64H199.369V139.862H198.173ZM201.374 148V141.37H202.349V142.93H202.414V148H201.374ZM206.119 148V143.658C206.119 143.155 205.993 142.778 205.742 142.527C205.491 142.276 205.118 142.15 204.624 142.15C204.191 142.15 203.805 142.245 203.467 142.436C203.138 142.627 202.878 142.891 202.687 143.229C202.505 143.567 202.414 143.961 202.414 144.412L202.245 142.839C202.47 142.345 202.813 141.955 203.272 141.669C203.74 141.383 204.269 141.24 204.858 141.24C205.551 141.24 206.106 141.439 206.522 141.838C206.947 142.228 207.159 142.744 207.159 143.385V148H206.119ZM211.795 150.795C211.007 150.795 210.348 150.609 209.819 150.236C209.299 149.872 208.983 149.387 208.87 148.78H209.858C209.954 149.127 210.166 149.4 210.495 149.599C210.833 149.807 211.288 149.911 211.86 149.911C212.536 149.911 213.048 149.725 213.394 149.352C213.741 148.988 213.914 148.451 213.914 147.74V146.323L214.044 146.349C213.897 146.852 213.602 147.255 213.16 147.558C212.718 147.853 212.194 148 211.587 148C211.007 148 210.495 147.861 210.053 147.584C209.611 147.298 209.269 146.904 209.026 146.401C208.784 145.898 208.662 145.313 208.662 144.646C208.662 143.97 208.788 143.376 209.039 142.865C209.291 142.354 209.642 141.959 210.092 141.682C210.552 141.396 211.085 141.253 211.691 141.253C212.315 141.253 212.835 141.405 213.251 141.708C213.676 142.011 213.958 142.445 214.096 143.008L213.979 143.021V141.37H214.954V147.74C214.954 148.685 214.673 149.43 214.109 149.976C213.546 150.522 212.775 150.795 211.795 150.795ZM211.847 147.103C212.497 147.103 213.013 146.878 213.394 146.427C213.776 145.976 213.966 145.365 213.966 144.594C213.966 143.84 213.776 143.246 213.394 142.813C213.013 142.371 212.497 142.15 211.847 142.15C211.189 142.15 210.669 142.371 210.287 142.813C209.915 143.255 209.728 143.862 209.728 144.633C209.728 145.387 209.919 145.989 210.3 146.44C210.682 146.882 211.197 147.103 211.847 147.103Z" fill="black"/>
<path d="M132.7 31.6445C132.763 32.3603 132.764 33.182 132.764 34.4783V40.1673C132.764 57.645 119.465 72.0175 102.435 73.7167L101.535 73.8066V74.7118V84.2559C101.535 95.7254 110.833 105.023 122.302 105.023H126.406C132.593 105.023 137.997 101.648 140.87 96.6405L141.477 95.5829L140.321 95.1949C133.807 93.0079 129.116 86.8525 129.116 79.6043C129.116 70.5236 136.477 63.1626 145.558 63.1626C154.638 63.1626 162 70.5236 162 79.6043C162 88.1118 155.537 95.111 147.255 95.9597L146.659 96.0207L146.432 96.5746C143.196 104.452 135.452 110 126.406 110H122.302C108.084 110 96.558 98.4738 96.558 84.2559V74.7183V73.8098L95.6537 73.7229C77.8904 72.0168 64.0001 57.0493 64.0001 38.8384L64 34.4785V34.4784C63.9999 33.182 64.0007 32.3604 64.0639 31.6446C64.7658 23.7081 71.057 17.4169 78.9936 16.7151L78.9936 16.7151C79.6653 16.6557 80.4333 16.6512 81.6047 16.6511L82.6046 16.651V15.6511V14.4884C82.6046 13.1141 83.7187 12 85.093 12C86.4672 12 87.5813 13.1141 87.5813 14.4884V23.7906C87.5813 25.1649 86.4672 26.279 85.093 26.279C83.7187 26.279 82.6046 25.1649 82.6046 23.7906V22.6279V21.6273L81.6039 21.6279C80.3952 21.6288 79.8674 21.6339 79.4319 21.6724C73.8977 22.1618 69.5107 26.5488 69.0213 32.083C68.9792 32.5598 68.9768 33.1534 68.9768 34.6599V38.8384C68.9768 55.4456 82.4394 68.9081 99.0464 68.9081C114.92 68.9081 127.787 56.0404 127.787 40.1673V34.6599C127.787 33.155 127.785 32.5603 127.742 32.0831C127.253 26.5488 122.866 22.1618 117.332 21.6724C117.102 21.652 116.853 21.6414 116.505 21.6355L115.488 21.6183V22.6354V23.7906C115.488 25.1649 114.374 26.279 113 26.279C111.626 26.279 110.511 25.1649 110.511 23.7906V14.4884C110.511 13.1141 111.626 12 113 12C114.374 12 115.488 13.1141 115.488 14.4884V15.6578V16.6428L116.473 16.6577C116.979 16.6653 117.393 16.6817 117.77 16.7151L117.77 16.7151C125.707 17.4169 131.998 23.708 132.7 31.6445ZM132.7 31.6445L133.691 31.557L132.7 31.6447C132.7 31.6446 132.7 31.6445 132.7 31.6445ZM78.9055 15.719C79.6295 15.6549 80.4442 15.6512 81.6046 15.6511V14.4884C81.6046 12.5618 83.1664 11 85.093 11C87.0195 11 88.5813 12.5618 88.5813 14.4884V23.7906C88.5813 25.7172 87.0195 27.279 85.093 27.279C83.1664 27.279 81.6046 25.7172 81.6046 23.7906L78.9055 15.719ZM145.558 68.1393C139.226 68.1393 134.093 73.2725 134.093 79.6043C134.093 85.9361 139.226 91.0694 145.558 91.0694C151.89 91.0694 157.023 85.9361 157.023 79.6043C157.023 73.2725 151.89 68.1393 145.558 68.1393Z" fill="#1C274C" stroke="white" stroke-width="2"/>
</svg>
