<svg width="226" height="168" viewBox="0 0 226 168" fill="none" xmlns="http://www.w3.org/2000/svg">
<path d="M6.26009 148V138.64H7.36509L12.7341 146.518L12.5781 146.544V138.64H13.5921V148H12.4871L7.11809 140.122L7.27409 140.096V148H6.26009ZM17.9124 148.13C17.479 148.13 17.0934 148.043 16.7554 147.87C16.4174 147.688 16.153 147.437 15.9624 147.116C15.7717 146.787 15.6764 146.41 15.6764 145.985V141.37H16.7164V145.712C16.7164 146.215 16.8377 146.592 17.0804 146.843C17.3317 147.094 17.687 147.22 18.1464 147.22C18.5624 147.22 18.9307 147.125 19.2514 146.934C19.572 146.743 19.8234 146.479 20.0054 146.141C20.196 145.794 20.2914 145.4 20.2914 144.958L20.4604 146.531C20.2437 147.025 19.9057 147.415 19.4464 147.701C18.987 147.987 18.4757 148.13 17.9124 148.13ZM20.3564 148V146.44H20.2914V141.37H21.3314V148H20.3564ZM26.0235 148.117C25.2869 148.117 24.7495 147.952 24.4115 147.623C24.0822 147.285 23.9175 146.8 23.9175 146.167V139.823L24.9575 139.433V146.154C24.9575 146.527 25.0529 146.8 25.2435 146.973C25.4342 147.146 25.7462 147.233 26.1795 147.233C26.3529 147.233 26.5002 147.224 26.6215 147.207C26.7515 147.181 26.8555 147.151 26.9335 147.116V148C26.8469 148.035 26.7212 148.061 26.5565 148.078C26.4005 148.104 26.2229 148.117 26.0235 148.117ZM22.5525 142.254V141.37H26.9335V142.254H22.5525ZM28.2719 148V141.37H29.2469V143.06H29.3119V148H28.2719ZM29.3119 144.542L29.1429 142.969C29.2989 142.406 29.5763 141.977 29.9749 141.682C30.3736 141.387 30.8329 141.24 31.3529 141.24C31.5696 141.24 31.7169 141.257 31.7949 141.292V142.293C31.7516 142.276 31.6909 142.267 31.6129 142.267C31.5349 142.258 31.4396 142.254 31.3269 142.254C30.6683 142.254 30.1656 142.453 29.8189 142.852C29.4809 143.242 29.3119 143.805 29.3119 144.542ZM33.0327 148V141.37H34.0727V148H33.0327ZM32.9547 139.862V138.64H34.1507V139.862H32.9547ZM38.7823 148.117C38.0457 148.117 37.5083 147.952 37.1703 147.623C36.841 147.285 36.6763 146.8 36.6763 146.167V139.823L37.7163 139.433V146.154C37.7163 146.527 37.8117 146.8 38.0023 146.973C38.193 147.146 38.505 147.233 38.9383 147.233C39.1117 147.233 39.259 147.224 39.3803 147.207C39.5103 147.181 39.6143 147.151 39.6923 147.116V148C39.6057 148.035 39.48 148.061 39.3153 148.078C39.1593 148.104 38.9817 148.117 38.7823 148.117ZM35.3113 142.254V141.37H39.6923V142.254H35.3113ZM41.0307 148V141.37H42.0707V148H41.0307ZM40.9527 139.862V138.64H42.1487V139.862H40.9527ZM46.8844 148.13C46.2344 148.13 45.6624 147.978 45.1684 147.675C44.6744 147.372 44.2887 146.96 44.0114 146.44C43.7427 145.911 43.6084 145.318 43.6084 144.659C43.6084 143.992 43.747 143.402 44.0244 142.891C44.3017 142.38 44.683 141.977 45.1684 141.682C45.6624 141.387 46.2344 141.24 46.8844 141.24C47.543 141.24 48.115 141.387 48.6004 141.682C49.0944 141.977 49.4757 142.38 49.7444 142.891C50.0217 143.402 50.1604 143.992 50.1604 144.659C50.1604 145.318 50.0217 145.911 49.7444 146.44C49.4757 146.96 49.0944 147.372 48.6004 147.675C48.115 147.978 47.543 148.13 46.8844 148.13ZM46.8844 147.246C47.335 147.246 47.725 147.138 48.0544 146.921C48.3837 146.696 48.6394 146.388 48.8214 145.998C49.0034 145.608 49.0944 145.157 49.0944 144.646C49.0944 143.883 48.8907 143.272 48.4834 142.813C48.0847 142.354 47.5517 142.124 46.8844 142.124C46.2257 142.124 45.6927 142.354 45.2854 142.813C44.878 143.272 44.6744 143.883 44.6744 144.646C44.6744 145.157 44.7654 145.608 44.9474 145.998C45.1294 146.388 45.385 146.696 45.7144 146.921C46.0524 147.138 46.4424 147.246 46.8844 147.246ZM51.7202 148V141.37H52.6952V142.93H52.7602V148H51.7202ZM56.4652 148V143.658C56.4652 143.155 56.3395 142.778 56.0882 142.527C55.8368 142.276 55.4642 142.15 54.9702 142.15C54.5368 142.15 54.1512 142.245 53.8132 142.436C53.4838 142.627 53.2238 142.891 53.0332 143.229C52.8512 143.567 52.7602 143.961 52.7602 144.412L52.5912 142.839C52.8165 142.345 53.1588 141.955 53.6182 141.669C54.0862 141.383 54.6148 141.24 55.2042 141.24C55.8975 141.24 56.4522 141.439 56.8682 141.838C57.2928 142.228 57.5052 142.744 57.5052 143.385V148H56.4652ZM63.5333 148C63.4987 147.853 63.4727 147.684 63.4553 147.493C63.4466 147.302 63.4423 147.06 63.4423 146.765H63.3773V143.593C63.3773 143.09 63.2603 142.722 63.0263 142.488C62.801 142.245 62.4326 142.124 61.9213 142.124C61.4186 142.124 61.0156 142.228 60.7123 142.436C60.4176 142.635 60.253 142.921 60.2183 143.294H59.2173C59.2606 142.653 59.5293 142.15 60.0233 141.786C60.5173 141.422 61.163 141.24 61.9603 141.24C62.7836 141.24 63.3946 141.435 63.7933 141.825C64.192 142.215 64.3913 142.8 64.3913 143.58V146.765C64.3913 146.956 64.4043 147.155 64.4303 147.363C64.4563 147.562 64.491 147.775 64.5343 148H63.5333ZM61.2583 148.13C60.5736 148.13 60.0276 147.965 59.6203 147.636C59.2216 147.298 59.0223 146.839 59.0223 146.258C59.0223 145.677 59.2216 145.227 59.6203 144.906C60.019 144.585 60.5996 144.36 61.3623 144.23L63.6763 143.84V144.698L61.5183 145.036C61.033 145.114 60.6646 145.244 60.4133 145.426C60.162 145.608 60.0363 145.872 60.0363 146.219C60.0363 146.557 60.149 146.813 60.3743 146.986C60.6083 147.159 60.9506 147.246 61.4013 147.246C61.982 147.246 62.4543 147.116 62.8183 146.856C63.191 146.587 63.3773 146.241 63.3773 145.816L63.5463 146.739C63.4077 147.181 63.1347 147.523 62.7273 147.766C62.3287 148.009 61.839 148.13 61.2583 148.13ZM66.396 148V138.64H67.436V148H66.396ZM74.7605 150.795C73.9719 150.795 73.3132 150.609 72.7845 150.236C72.2645 149.872 71.9482 149.387 71.8355 148.78H72.8235C72.9189 149.127 73.1312 149.4 73.4605 149.599C73.7985 149.807 74.2535 149.911 74.8255 149.911C75.5015 149.911 76.0129 149.725 76.3595 149.352C76.7062 148.988 76.8795 148.451 76.8795 147.74V146.323L77.0095 146.349C76.8622 146.852 76.5675 147.255 76.1255 147.558C75.6835 147.853 75.1592 148 74.5525 148C73.9719 148 73.4605 147.861 73.0185 147.584C72.5765 147.298 72.2342 146.904 71.9915 146.401C71.7489 145.898 71.6275 145.313 71.6275 144.646C71.6275 143.97 71.7532 143.376 72.0045 142.865C72.2559 142.354 72.6069 141.959 73.0575 141.682C73.5169 141.396 74.0499 141.253 74.6565 141.253C75.2805 141.253 75.8005 141.405 76.2165 141.708C76.6412 142.011 76.9229 142.445 77.0615 143.008L76.9445 143.021V141.37H77.9195V147.74C77.9195 148.685 77.6379 149.43 77.0745 149.976C76.5112 150.522 75.7399 150.795 74.7605 150.795ZM74.8125 147.103C75.4625 147.103 75.9782 146.878 76.3595 146.427C76.7409 145.976 76.9315 145.365 76.9315 144.594C76.9315 143.84 76.7409 143.246 76.3595 142.813C75.9782 142.371 75.4625 142.15 74.8125 142.15C74.1539 142.15 73.6339 142.371 73.2525 142.813C72.8799 143.255 72.6935 143.862 72.6935 144.633C72.6935 145.387 72.8842 145.989 73.2655 146.44C73.6469 146.882 74.1625 147.103 74.8125 147.103ZM82.1633 148.13C81.73 148.13 81.3443 148.043 81.0063 147.87C80.6683 147.688 80.404 147.437 80.2133 147.116C80.0227 146.787 79.9273 146.41 79.9273 145.985V141.37H80.9673V145.712C80.9673 146.215 81.0887 146.592 81.3313 146.843C81.5827 147.094 81.938 147.22 82.3973 147.22C82.8133 147.22 83.1817 147.125 83.5023 146.934C83.823 146.743 84.0743 146.479 84.2563 146.141C84.447 145.794 84.5423 145.4 84.5423 144.958L84.7113 146.531C84.4947 147.025 84.1567 147.415 83.6973 147.701C83.238 147.987 82.7267 148.13 82.1633 148.13ZM84.6073 148V146.44H84.5423V141.37H85.5823V148H84.6073ZM87.6225 148V141.37H88.6625V148H87.6225ZM87.5445 139.862V138.64H88.7405V139.862H87.5445ZM95.5432 148V146.453L95.6732 146.492C95.5085 146.995 95.2052 147.393 94.7632 147.688C94.3298 147.983 93.8098 148.13 93.2032 148.13C92.6052 148.13 92.0808 147.987 91.6302 147.701C91.1882 147.415 90.8415 147.016 90.5902 146.505C90.3475 145.994 90.2262 145.396 90.2262 144.711C90.2262 144.018 90.3518 143.411 90.6032 142.891C90.8545 142.371 91.2055 141.968 91.6562 141.682C92.1068 141.396 92.6355 141.253 93.2422 141.253C93.8662 141.253 94.3905 141.405 94.8152 141.708C95.2398 142.011 95.5302 142.44 95.6862 142.995L95.4782 143.021V138.64H96.5182V148H95.5432ZM93.3982 147.22C94.0655 147.22 94.5855 146.995 94.9582 146.544C95.3395 146.085 95.5302 145.461 95.5302 144.672C95.5302 143.901 95.3395 143.29 94.9582 142.839C94.5768 142.388 94.0568 142.163 93.3982 142.163C92.7395 142.163 92.2238 142.388 91.8512 142.839C91.4785 143.29 91.2922 143.914 91.2922 144.711C91.2922 145.491 91.4785 146.106 91.8512 146.557C92.2238 146.999 92.7395 147.22 93.3982 147.22ZM102.673 148C102.638 147.853 102.612 147.684 102.595 147.493C102.586 147.302 102.582 147.06 102.582 146.765H102.517V143.593C102.517 143.09 102.4 142.722 102.166 142.488C101.941 142.245 101.572 142.124 101.061 142.124C100.558 142.124 100.155 142.228 99.852 142.436C99.5573 142.635 99.3926 142.921 99.358 143.294H98.357C98.4003 142.653 98.669 142.15 99.163 141.786C99.657 141.422 100.303 141.24 101.1 141.24C101.923 141.24 102.534 141.435 102.933 141.825C103.332 142.215 103.531 142.8 103.531 143.58V146.765C103.531 146.956 103.544 147.155 103.57 147.363C103.596 147.562 103.631 147.775 103.674 148H102.673ZM100.398 148.13C99.7133 148.13 99.1673 147.965 98.76 147.636C98.3613 147.298 98.162 146.839 98.162 146.258C98.162 145.677 98.3613 145.227 98.76 144.906C99.1586 144.585 99.7393 144.36 100.502 144.23L102.816 143.84V144.698L100.658 145.036C100.173 145.114 99.8043 145.244 99.553 145.426C99.3016 145.608 99.176 145.872 99.176 146.219C99.176 146.557 99.2886 146.813 99.514 146.986C99.748 147.159 100.09 147.246 100.541 147.246C101.122 147.246 101.594 147.116 101.958 146.856C102.331 146.587 102.517 146.241 102.517 145.816L102.686 146.739C102.547 147.181 102.274 147.523 101.867 147.766C101.468 148.009 100.979 148.13 100.398 148.13ZM105.536 148V141.37H106.511V142.93H106.576V148H105.536ZM110.281 148V143.658C110.281 143.155 110.155 142.778 109.904 142.527C109.652 142.276 109.28 142.15 108.786 142.15C108.352 142.15 107.967 142.245 107.629 142.436C107.299 142.627 107.039 142.891 106.849 143.229C106.667 143.567 106.576 143.961 106.576 144.412L106.407 142.839C106.632 142.345 106.974 141.955 107.434 141.669C107.902 141.383 108.43 141.24 109.02 141.24C109.713 141.24 110.268 141.439 110.684 141.838C111.108 142.228 111.321 142.744 111.321 143.385V148H110.281ZM115.944 148.13C115.337 148.13 114.795 147.983 114.319 147.688C113.851 147.385 113.478 146.973 113.201 146.453C112.932 145.924 112.798 145.326 112.798 144.659C112.798 143.992 112.932 143.402 113.201 142.891C113.478 142.38 113.851 141.977 114.319 141.682C114.795 141.387 115.333 141.24 115.931 141.24C116.425 141.24 116.867 141.335 117.257 141.526C117.655 141.717 117.98 141.99 118.232 142.345C118.492 142.692 118.656 143.099 118.726 143.567H117.764C117.677 143.142 117.478 142.796 117.166 142.527C116.854 142.258 116.451 142.124 115.957 142.124C115.532 142.124 115.164 142.228 114.852 142.436C114.54 142.644 114.297 142.939 114.124 143.32C113.95 143.701 113.864 144.148 113.864 144.659C113.864 145.17 113.95 145.621 114.124 146.011C114.297 146.401 114.54 146.704 114.852 146.921C115.172 147.138 115.545 147.246 115.97 147.246C116.446 147.246 116.845 147.116 117.166 146.856C117.486 146.587 117.69 146.241 117.777 145.816H118.739C118.661 146.275 118.487 146.683 118.219 147.038C117.959 147.385 117.634 147.653 117.244 147.844C116.854 148.035 116.42 148.13 115.944 148.13ZM122.941 148.13C122.308 148.13 121.749 147.983 121.264 147.688C120.779 147.385 120.397 146.973 120.12 146.453C119.843 145.933 119.704 145.335 119.704 144.659C119.704 143.983 119.838 143.389 120.107 142.878C120.384 142.358 120.77 141.955 121.264 141.669C121.758 141.383 122.326 141.24 122.967 141.24C123.582 141.24 124.115 141.374 124.566 141.643C125.025 141.912 125.376 142.289 125.619 142.774C125.87 143.259 125.996 143.831 125.996 144.49C125.996 144.577 125.992 144.659 125.983 144.737C125.983 144.815 125.974 144.902 125.957 144.997H120.484V144.126H125.32L124.982 144.607C124.982 143.81 124.804 143.199 124.449 142.774C124.102 142.341 123.608 142.124 122.967 142.124C122.308 142.124 121.775 142.354 121.368 142.813C120.969 143.264 120.77 143.875 120.77 144.646C120.77 145.435 120.969 146.067 121.368 146.544C121.775 147.012 122.317 147.246 122.993 147.246C123.418 147.246 123.79 147.155 124.111 146.973C124.432 146.782 124.666 146.514 124.813 146.167H125.801C125.584 146.774 125.22 147.255 124.709 147.61C124.206 147.957 123.617 148.13 122.941 148.13ZM134.234 148C134.199 147.853 134.173 147.684 134.156 147.493C134.147 147.302 134.143 147.06 134.143 146.765H134.078V143.593C134.078 143.09 133.961 142.722 133.727 142.488C133.501 142.245 133.133 142.124 132.622 142.124C132.119 142.124 131.716 142.228 131.413 142.436C131.118 142.635 130.953 142.921 130.919 143.294H129.918C129.961 142.653 130.23 142.15 130.724 141.786C131.218 141.422 131.863 141.24 132.661 141.24C133.484 141.24 134.095 141.435 134.494 141.825C134.892 142.215 135.092 142.8 135.092 143.58V146.765C135.092 146.956 135.105 147.155 135.131 147.363C135.157 147.562 135.191 147.775 135.235 148H134.234ZM131.959 148.13C131.274 148.13 130.728 147.965 130.321 147.636C129.922 147.298 129.723 146.839 129.723 146.258C129.723 145.677 129.922 145.227 130.321 144.906C130.719 144.585 131.3 144.36 132.063 144.23L134.377 143.84V144.698L132.219 145.036C131.733 145.114 131.365 145.244 131.114 145.426C130.862 145.608 130.737 145.872 130.737 146.219C130.737 146.557 130.849 146.813 131.075 146.986C131.309 147.159 131.651 147.246 132.102 147.246C132.682 147.246 133.155 147.116 133.519 146.856C133.891 146.587 134.078 146.241 134.078 145.816L134.247 146.739C134.108 147.181 133.835 147.523 133.428 147.766C133.029 148.009 132.539 148.13 131.959 148.13ZM137.096 148V141.37H138.071V142.93H138.136V148H137.096ZM141.841 148V143.658C141.841 143.155 141.715 142.778 141.464 142.527C141.213 142.276 140.84 142.15 140.346 142.15C139.913 142.15 139.527 142.245 139.189 142.436C138.86 142.627 138.6 142.891 138.409 143.229C138.227 143.567 138.136 143.961 138.136 144.412L137.967 142.839C138.192 142.345 138.535 141.955 138.994 141.669C139.462 141.383 139.991 141.24 140.58 141.24C141.273 141.24 141.828 141.439 142.244 141.838C142.669 142.228 142.881 142.744 142.881 143.385V148H141.841ZM149.701 148V146.453L149.831 146.492C149.667 146.995 149.363 147.393 148.921 147.688C148.488 147.983 147.968 148.13 147.361 148.13C146.763 148.13 146.239 147.987 145.788 147.701C145.346 147.415 145 147.016 144.748 146.505C144.506 145.994 144.384 145.396 144.384 144.711C144.384 144.018 144.51 143.411 144.761 142.891C145.013 142.371 145.364 141.968 145.814 141.682C146.265 141.396 146.794 141.253 147.4 141.253C148.024 141.253 148.549 141.405 148.973 141.708C149.398 142.011 149.688 142.44 149.844 142.995L149.636 143.021V138.64H150.676V148H149.701ZM147.556 147.22C148.224 147.22 148.744 146.995 149.116 146.544C149.498 146.085 149.688 145.461 149.688 144.672C149.688 143.901 149.498 143.29 149.116 142.839C148.735 142.388 148.215 142.163 147.556 142.163C146.898 142.163 146.382 142.388 146.009 142.839C145.637 143.29 145.45 143.914 145.45 144.711C145.45 145.491 145.637 146.106 146.009 146.557C146.382 146.999 146.898 147.22 147.556 147.22ZM157.991 148.13C157.384 148.13 156.842 147.983 156.366 147.688C155.898 147.385 155.525 146.973 155.248 146.453C154.979 145.924 154.845 145.326 154.845 144.659C154.845 143.992 154.979 143.402 155.248 142.891C155.525 142.38 155.898 141.977 156.366 141.682C156.842 141.387 157.38 141.24 157.978 141.24C158.472 141.24 158.914 141.335 159.304 141.526C159.702 141.717 160.027 141.99 160.279 142.345C160.539 142.692 160.703 143.099 160.773 143.567H159.811C159.724 143.142 159.525 142.796 159.213 142.527C158.901 142.258 158.498 142.124 158.004 142.124C157.579 142.124 157.211 142.228 156.899 142.436C156.587 142.644 156.344 142.939 156.171 143.32C155.997 143.701 155.911 144.148 155.911 144.659C155.911 145.17 155.997 145.621 156.171 146.011C156.344 146.401 156.587 146.704 156.899 146.921C157.219 147.138 157.592 147.246 158.017 147.246C158.493 147.246 158.892 147.116 159.213 146.856C159.533 146.587 159.737 146.241 159.824 145.816H160.786C160.708 146.275 160.534 146.683 160.266 147.038C160.006 147.385 159.681 147.653 159.291 147.844C158.901 148.035 158.467 148.13 157.991 148.13ZM165.027 148.13C164.377 148.13 163.805 147.978 163.311 147.675C162.817 147.372 162.431 146.96 162.154 146.44C161.885 145.911 161.751 145.318 161.751 144.659C161.751 143.992 161.89 143.402 162.167 142.891C162.444 142.38 162.826 141.977 163.311 141.682C163.805 141.387 164.377 141.24 165.027 141.24C165.686 141.24 166.258 141.387 166.743 141.682C167.237 141.977 167.618 142.38 167.887 142.891C168.164 143.402 168.303 143.992 168.303 144.659C168.303 145.318 168.164 145.911 167.887 146.44C167.618 146.96 167.237 147.372 166.743 147.675C166.258 147.978 165.686 148.13 165.027 148.13ZM165.027 147.246C165.478 147.246 165.868 147.138 166.197 146.921C166.526 146.696 166.782 146.388 166.964 145.998C167.146 145.608 167.237 145.157 167.237 144.646C167.237 143.883 167.033 143.272 166.626 142.813C166.227 142.354 165.694 142.124 165.027 142.124C164.368 142.124 163.835 142.354 163.428 142.813C163.021 143.272 162.817 143.883 162.817 144.646C162.817 145.157 162.908 145.608 163.09 145.998C163.272 146.388 163.528 146.696 163.857 146.921C164.195 147.138 164.585 147.246 165.027 147.246ZM172.021 148.13C171.587 148.13 171.202 148.043 170.864 147.87C170.526 147.688 170.261 147.437 170.071 147.116C169.88 146.787 169.785 146.41 169.785 145.985V141.37H170.825V145.712C170.825 146.215 170.946 146.592 171.189 146.843C171.44 147.094 171.795 147.22 172.255 147.22C172.671 147.22 173.039 147.125 173.36 146.934C173.68 146.743 173.932 146.479 174.114 146.141C174.304 145.794 174.4 145.4 174.4 144.958L174.569 146.531C174.352 147.025 174.014 147.415 173.555 147.701C173.095 147.987 172.584 148.13 172.021 148.13ZM174.465 148V146.44H174.4V141.37H175.44V148H174.465ZM177.518 148V141.37H178.493V142.93H178.558V148H177.518ZM182.263 148V143.658C182.263 143.155 182.137 142.778 181.886 142.527C181.635 142.276 181.262 142.15 180.768 142.15C180.335 142.15 179.949 142.245 179.611 142.436C179.282 142.627 179.022 142.891 178.831 143.229C178.649 143.567 178.558 143.961 178.558 144.412L178.389 142.839C178.614 142.345 178.957 141.955 179.416 141.669C179.884 141.383 180.413 141.24 181.002 141.24C181.695 141.24 182.25 141.439 182.666 141.838C183.091 142.228 183.303 142.744 183.303 143.385V148H182.263ZM187.524 148.13C186.709 148.13 186.059 147.944 185.574 147.571C185.089 147.19 184.811 146.652 184.742 145.959H185.743C185.804 146.384 185.99 146.709 186.302 146.934C186.614 147.159 187.03 147.272 187.55 147.272C188.009 147.272 188.369 147.185 188.629 147.012C188.889 146.839 189.019 146.592 189.019 146.271C189.019 146.046 188.945 145.851 188.798 145.686C188.651 145.513 188.356 145.37 187.914 145.257L186.848 144.984C186.241 144.828 185.786 144.59 185.483 144.269C185.18 143.94 185.028 143.55 185.028 143.099C185.028 142.527 185.24 142.076 185.665 141.747C186.09 141.409 186.666 141.24 187.394 141.24C188.113 141.24 188.698 141.413 189.149 141.76C189.6 142.107 189.855 142.588 189.916 143.203H188.915C188.854 142.848 188.69 142.575 188.421 142.384C188.152 142.193 187.797 142.098 187.355 142.098C186.93 142.098 186.601 142.18 186.367 142.345C186.133 142.501 186.016 142.726 186.016 143.021C186.016 143.246 186.098 143.441 186.263 143.606C186.436 143.771 186.722 143.909 187.121 144.022L188.161 144.308C188.776 144.473 189.24 144.724 189.552 145.062C189.864 145.4 190.02 145.807 190.02 146.284C190.02 146.865 189.799 147.32 189.357 147.649C188.915 147.97 188.304 148.13 187.524 148.13ZM194.365 148.13C193.732 148.13 193.173 147.983 192.688 147.688C192.203 147.385 191.821 146.973 191.544 146.453C191.267 145.933 191.128 145.335 191.128 144.659C191.128 143.983 191.262 143.389 191.531 142.878C191.808 142.358 192.194 141.955 192.688 141.669C193.182 141.383 193.75 141.24 194.391 141.24C195.006 141.24 195.539 141.374 195.99 141.643C196.449 141.912 196.8 142.289 197.043 142.774C197.294 143.259 197.42 143.831 197.42 144.49C197.42 144.577 197.416 144.659 197.407 144.737C197.407 144.815 197.398 144.902 197.381 144.997H191.908V144.126H196.744L196.406 144.607C196.406 143.81 196.228 143.199 195.873 142.774C195.526 142.341 195.032 142.124 194.391 142.124C193.732 142.124 193.199 142.354 192.792 142.813C192.393 143.264 192.194 143.875 192.194 144.646C192.194 145.435 192.393 146.067 192.792 146.544C193.199 147.012 193.741 147.246 194.417 147.246C194.842 147.246 195.214 147.155 195.535 146.973C195.856 146.782 196.09 146.514 196.237 146.167H197.225C197.008 146.774 196.644 147.255 196.133 147.61C195.63 147.957 195.041 148.13 194.365 148.13ZM198.986 148V138.64H200.026V148H198.986ZM202.109 148V141.37H203.149V148H202.109ZM202.031 139.862V138.64H203.227V139.862H202.031ZM205.232 148V141.37H206.207V142.93H206.272V148H205.232ZM209.977 148V143.658C209.977 143.155 209.851 142.778 209.6 142.527C209.349 142.276 208.976 142.15 208.482 142.15C208.049 142.15 207.663 142.245 207.325 142.436C206.996 142.627 206.736 142.891 206.545 143.229C206.363 143.567 206.272 143.961 206.272 144.412L206.103 142.839C206.328 142.345 206.671 141.955 207.13 141.669C207.598 141.383 208.127 141.24 208.716 141.24C209.409 141.24 209.964 141.439 210.38 141.838C210.805 142.228 211.017 142.744 211.017 143.385V148H209.977ZM215.653 150.795C214.864 150.795 214.206 150.609 213.677 150.236C213.157 149.872 212.841 149.387 212.728 148.78H213.716C213.811 149.127 214.024 149.4 214.353 149.599C214.691 149.807 215.146 149.911 215.718 149.911C216.394 149.911 216.905 149.725 217.252 149.352C217.599 148.988 217.772 148.451 217.772 147.74V146.323L217.902 146.349C217.755 146.852 217.46 147.255 217.018 147.558C216.576 147.853 216.052 148 215.445 148C214.864 148 214.353 147.861 213.911 147.584C213.469 147.298 213.127 146.904 212.884 146.401C212.641 145.898 212.52 145.313 212.52 144.646C212.52 143.97 212.646 143.376 212.897 142.865C213.148 142.354 213.499 141.959 213.95 141.682C214.409 141.396 214.942 141.253 215.549 141.253C216.173 141.253 216.693 141.405 217.109 141.708C217.534 142.011 217.815 142.445 217.954 143.008L217.837 143.021V141.37H218.812V147.74C218.812 148.685 218.53 149.43 217.967 149.976C217.404 150.522 216.632 150.795 215.653 150.795ZM215.705 147.103C216.355 147.103 216.871 146.878 217.252 146.427C217.633 145.976 217.824 145.365 217.824 144.594C217.824 143.84 217.633 143.246 217.252 142.813C216.871 142.371 216.355 142.15 215.705 142.15C215.046 142.15 214.526 142.371 214.145 142.813C213.772 143.255 213.586 143.862 213.586 144.633C213.586 145.387 213.777 145.989 214.158 146.44C214.539 146.882 215.055 147.103 215.705 147.103Z" fill="black"/>
<path d="M118.427 32.3096C118.312 31.869 118.052 31.4801 117.688 31.2067L117.396 30.9712C114.392 33.4768 110.825 37.045 108.887 39.9843C106.758 43.1459 105.67 46.8935 105.775 50.7035L105.848 50.7065C107.248 50.7065 108.44 49.8056 109.488 48.8673C110.522 47.9426 111.574 46.9944 112.255 45.7847C113.79 43.0485 113.206 39.3615 115.187 36.9278C115.934 36.0104 117.309 34.8891 118.011 33.9371C118.196 33.7132 118.329 33.4512 118.401 33.1698C118.473 32.8885 118.482 32.5948 118.427 32.3096Z" fill="#FEBE69"/>
<path d="M90.7108 63.66C91.1956 58.9714 103.259 57.365 113 57.365C122.941 57.365 135.303 59.0394 135.303 63.9549C135.303 68.2013 122.635 70.315 113 70.3089C103.365 70.315 90.6968 68.2013 90.6968 63.9549C90.6965 63.8564 90.7011 63.758 90.7108 63.66Z" fill="white"/>
<path d="M135.851 63.9548C135.828 61.3114 133.008 59.9114 130.873 59.1278C127.373 57.8439 123.553 57.3806 119.858 57.0838C115.789 56.7608 111.702 56.7256 107.629 56.9787C103.819 57.2126 99.9262 57.6315 96.2619 58.7481C94.8514 59.1324 93.5087 59.7326 92.2817 60.5274C91.3635 61.1662 90.5161 62.0248 90.2455 63.1453C90.1824 63.4106 90.1496 63.6821 90.1475 63.9548C90.1414 64.6614 91.2394 64.6622 91.2455 63.9548C91.2455 63.8381 91.2526 63.7215 91.2669 63.6056C91.254 63.7028 91.2699 63.5933 91.2781 63.557C91.2924 63.4931 91.3056 63.4291 91.3223 63.3649C91.3502 63.2625 91.3837 63.1617 91.4225 63.063C91.4538 62.9828 91.389 63.1362 91.4247 63.0575C91.4349 63.035 91.445 63.0122 91.456 62.9899C91.4862 62.9304 91.5159 62.8708 91.5485 62.8123C91.7832 62.4055 92.0938 62.0475 92.4634 61.7577C93.3668 60.9982 94.6347 60.4511 95.7991 60.0506C99.1944 58.8834 102.842 58.4344 106.406 58.1607C110.298 57.8646 114.206 57.831 118.103 58.0602C121.784 58.2743 125.52 58.6724 129.073 59.6962C130.418 60.045 131.706 60.5845 132.898 61.2982C133.348 61.5721 133.753 61.9129 134.1 62.3089C134.366 62.6156 134.562 62.976 134.677 63.3654C134.691 63.4203 134.704 63.4766 134.716 63.5323C134.722 63.5598 134.747 63.7209 134.732 63.6051C134.746 63.7209 134.753 63.8375 134.753 63.9542C134.759 64.6603 135.857 64.6622 135.851 63.9542L135.851 63.9548Z" fill="#211715"/>
<path d="M109.686 68.0144C110.838 67.2019 112.2 66.7406 113.609 66.6864C115.017 66.6321 116.411 66.9873 117.622 67.7089C118.226 68.0781 118.779 67.1289 118.176 66.7608C116.798 65.94 115.212 65.5324 113.609 65.5866C112.005 65.6407 110.451 66.1543 109.131 67.0663C109.008 67.1425 108.919 67.2629 108.883 67.4027C108.846 67.5425 108.864 67.6909 108.934 67.8176C109.008 67.9424 109.129 68.033 109.269 68.0698C109.41 68.1067 109.559 68.0868 109.685 68.0144H109.686Z" fill="#211715"/>
<path d="M104.789 61.8729C106.821 60.6377 109.35 61.0744 111.078 62.6333C111.602 63.1057 112.38 62.3314 111.854 61.857C109.767 59.9734 106.698 59.4272 104.235 60.9237C103.631 61.2902 104.183 62.2413 104.789 61.8718V61.8729Z" fill="#211715"/>
<path d="M106.106 60.9123C106.306 60.4557 106.626 60.0619 107.032 59.7728C107.874 59.148 108.768 58.597 109.704 58.1258C111.232 57.3377 112.667 56.6765 113.892 55.598C114.741 54.8529 115.486 53.9968 116.106 53.0528C117.36 51.1341 117.843 48.7954 119.076 46.8632C119.359 46.3924 119.773 46.014 120.267 45.7743C120.482 45.6909 120.674 45.558 120.828 45.3862C120.981 45.2145 121.092 45.0088 121.152 44.7861C121.27 44.2953 121.423 43.8139 121.612 43.3455C121.789 42.9353 122.057 42.5702 122.394 42.2769C122.487 42.1985 122.595 42.1401 122.712 42.1054C122.829 42.0707 122.951 42.0605 123.072 42.0753C123.193 42.0902 123.31 42.1298 123.414 42.1916C123.519 42.2535 123.61 42.3364 123.682 42.435L123.692 42.4493C123.787 42.5773 123.841 42.7319 123.845 42.8916C123.85 43.0514 123.804 43.2086 123.716 43.3417C123.282 44.0051 123.026 44.769 122.973 45.5599C122.955 45.741 122.977 45.9239 123.038 46.0955C123.098 46.267 123.196 46.423 123.325 46.5522C124.558 47.7408 124.725 49.8335 124.444 51.9834C124.184 53.982 122.679 56.3246 122.138 57.046C119.077 61.1379 115.102 63.0174 110.266 63.8019C109.355 63.934 108.428 63.9074 107.526 63.7231C107.162 63.6421 106.828 63.4611 106.561 63.2005C106.295 62.94 106.106 62.6102 106.016 62.2482C105.914 61.8038 105.945 61.3391 106.106 60.9123Z" fill="#FFDA71"/>
<path d="M106.58 61.1893C106.972 60.3216 107.853 59.8215 108.639 59.3485C109.569 58.7877 110.55 58.3222 111.51 57.8157C113.522 56.8016 115.244 55.2929 116.514 53.4312C117.73 51.6077 118.224 49.4303 119.309 47.5391C119.529 47.0892 119.853 46.6989 120.256 46.4013C120.682 46.1287 121.089 45.9794 121.397 45.5484C121.705 45.1174 121.768 44.5501 121.934 44.0551C122.064 43.578 122.312 43.1412 122.654 42.7848C122.88 42.5709 123.295 42.5676 123.296 42.9162C123.296 43.1004 123.058 43.3541 122.977 43.516C122.85 43.7702 122.743 44.0343 122.658 44.3058C122.468 44.8358 122.396 45.401 122.447 45.9618C122.532 46.5212 122.875 46.8127 123.203 47.2327C123.756 47.9385 123.947 48.8827 123.997 49.7581C124.072 50.7779 123.975 51.8029 123.711 52.7908C123.211 54.4097 122.397 55.9145 121.316 57.2195C120.151 58.6754 118.738 59.914 117.142 60.8783C115.558 61.8018 113.844 62.4796 112.056 62.8887C111.092 63.1566 110.098 63.3075 109.098 63.3381C108.225 63.3331 107.069 63.3013 106.637 62.3913C106.549 62.1804 106.503 61.9541 106.503 61.7254C106.503 61.4968 106.548 61.2703 106.635 61.0592C106.673 60.9187 106.654 60.769 106.582 60.6427C106.51 60.5163 106.391 60.4233 106.251 60.3839C106.111 60.3487 105.962 60.3689 105.836 60.4405C105.71 60.5121 105.617 60.6295 105.576 60.7682C105.381 61.2767 105.347 61.833 105.48 62.3612C105.612 62.8895 105.905 63.364 106.317 63.7199C107.205 64.4457 108.535 64.4898 109.633 64.4223C110.701 64.3287 111.758 64.1328 112.79 63.8371C113.782 63.5781 114.753 63.2455 115.695 62.842C119.278 61.311 122.206 58.5651 123.963 55.0877C124.999 53.0967 125.347 50.819 124.953 48.6096C124.856 48.1103 124.69 47.627 124.458 47.1743C124.346 46.9602 124.214 46.7567 124.065 46.5665C123.896 46.3954 123.74 46.2119 123.598 46.0175C123.351 45.5679 123.627 44.8114 123.79 44.3705C123.994 43.8199 124.449 43.3928 124.378 42.7677C124.241 41.5737 122.804 41.1811 121.959 41.9267C121.526 42.3302 121.198 42.8336 121.003 43.393C120.908 43.6449 120.823 43.9 120.747 44.1583C120.705 44.4378 120.612 44.7074 120.475 44.9544C120.342 45.107 120.175 45.2255 119.987 45.3C119.714 45.4329 119.461 45.6046 119.237 45.8097C118.833 46.2117 118.498 46.677 118.245 47.1872C117.713 48.2359 117.239 49.3125 116.824 50.4122C115.911 52.6178 114.548 54.6046 112.534 55.9445C110.576 57.2478 108.23 57.9741 106.446 59.545C106.099 59.8457 105.821 60.2171 105.629 60.6343C105.56 60.761 105.541 60.9094 105.578 61.049C105.615 61.1887 105.703 61.3091 105.826 61.3856C105.952 61.4589 106.102 61.4795 106.243 61.4427C106.385 61.406 106.506 61.3149 106.58 61.1893Z" fill="#211715"/>
<path d="M121.24 50.6966C121.233 51.885 120.923 53.0518 120.339 54.087C119.755 55.1222 118.917 55.9916 117.905 56.6131C117.301 56.9779 117.852 57.928 118.459 57.5612C119.635 56.8408 120.609 55.8325 121.288 54.6314C121.967 53.4304 122.328 52.0762 122.338 50.6966C122.338 49.99 121.24 49.9889 121.24 50.6966Z" fill="#211715"/>
<path d="M131.717 53.4657C129.598 54.0872 127.156 55.4001 127.524 56.6551C127.941 58.0798 131.346 57.5291 133.129 57.0068C135.048 56.4438 137.675 55.3754 137.241 53.8981C136.849 52.5582 133.593 52.9156 131.717 53.4657Z" fill="#D9D9D9"/>
<path d="M137.327 54.1264C137.589 55.0199 138.081 56.5187 138.445 57.6853C138.49 57.8651 138.482 58.0542 138.422 58.2296C138.361 58.4049 138.252 58.5591 138.106 58.6735C137.159 59.5447 135.931 59.9787 134.727 60.3754C133.133 60.9021 131.34 61.4149 129.649 61.3292C129.407 61.3262 129.172 61.2468 128.977 61.1024C128.783 60.958 128.639 60.7559 128.566 60.525C128.216 59.3076 127.763 57.7037 127.486 56.7594L127.524 56.6532C127.941 58.0778 131.346 57.5272 133.129 57.0048C135.048 56.4418 137.675 55.3735 137.242 53.8961L137.327 54.1264Z" fill="#7ABEE6"/>
<path d="M136.797 54.2725C137.114 55.3447 137.467 56.4059 137.803 57.472C137.864 57.6656 137.987 57.881 137.889 58.0776C137.733 58.3069 137.527 58.4975 137.286 58.6345C136.784 58.9758 136.243 59.2547 135.674 59.4652C134.486 59.9298 133.263 60.2986 132.016 60.5678C131.361 60.7111 130.692 60.786 130.022 60.7915C129.533 60.7915 129.198 60.7366 129.052 60.2307C128.706 59.026 128.368 57.8187 128.015 56.6153C127.817 55.9387 126.757 56.2266 126.957 56.9074C127.314 58.1273 127.643 59.3554 128.008 60.5733C128.083 60.8702 128.236 61.1419 128.45 61.3606C128.665 61.5793 128.934 61.7372 129.229 61.8182C129.918 62.0007 130.731 61.8766 131.425 61.7803C132.904 61.5428 134.353 61.149 135.749 60.6054C136.413 60.3773 137.05 60.0772 137.649 59.7106C138.197 59.3589 138.847 58.9024 138.995 58.2255C139.045 57.8527 138.993 57.4732 138.845 57.1275C138.73 56.7647 138.615 56.402 138.499 56.0397C138.279 55.3535 138.06 54.6702 137.856 53.981C137.656 53.3046 136.596 53.5926 136.797 54.2728L136.797 54.2725Z" fill="#211715"/>
<path d="M131.571 52.9362C130.502 53.2344 129.479 53.6822 128.535 54.2661C127.821 54.7281 127 55.3957 126.943 56.3147C126.828 58.128 129.27 58.1854 130.498 58.0687C132.333 57.9003 134.121 57.3979 135.774 56.5864C136.505 56.2205 137.321 55.7138 137.672 54.9394C137.84 54.5944 137.879 54.2007 137.782 53.8294C137.685 53.4582 137.459 53.1338 137.143 52.915C136.42 52.4157 135.401 52.3935 134.556 52.4335C133.546 52.4846 132.544 52.6532 131.572 52.9359C130.895 53.1319 131.183 54.1917 131.864 53.9946C132.553 53.7927 133.259 53.6527 133.972 53.5763C134.654 53.4766 135.347 53.4925 136.024 53.6232C136.115 53.6457 136.294 53.6995 136.332 53.7163C136.387 53.7408 136.441 53.7683 136.493 53.7986C136.526 53.8162 136.558 53.8379 136.586 53.8634C136.648 53.9116 136.695 53.976 136.722 54.0494C136.75 54.1229 136.756 54.2024 136.741 54.2793C136.682 54.78 136.003 55.2071 135.554 55.4596C134.228 56.1622 132.792 56.6355 131.308 56.8595C130.617 56.989 129.913 57.035 129.211 56.9968C128.933 56.9845 128.658 56.9266 128.398 56.8255C128.319 56.7848 128.242 56.739 128.169 56.6883C128.229 56.7363 128.132 56.6474 128.12 56.6306C128.073 56.5689 128.111 56.6476 128.07 56.5483C128.045 56.4906 128.066 56.5483 128.07 56.5576C128.053 56.5216 128.042 56.4833 128.037 56.444C128.043 56.5085 128.038 56.3251 128.035 56.3534C128.06 56.227 128.113 56.1077 128.189 56.0037C128.413 55.7088 128.69 55.4585 129.005 55.2658C129.889 54.7012 130.852 54.2717 131.863 53.9916C132.539 53.7937 132.251 52.7338 131.571 52.9362Z" fill="#211715"/>
<path d="M94.5075 51.3562C93.7564 51.4965 93.8338 51.0364 93.8212 50.9675C93.6508 50.0743 93.4413 48.92 93.3957 48.676C93.37 48.5948 93.362 48.509 93.3722 48.4245C93.3825 48.3399 93.4108 48.2585 93.4552 48.1858C93.4995 48.1131 93.559 48.0508 93.6296 48.0031C93.7001 47.9553 93.7801 47.9232 93.864 47.909L96.6969 47.3801C96.7771 47.3623 96.8601 47.3616 96.9406 47.3781C97.0211 47.3946 97.0972 47.428 97.1639 47.4759C97.2306 47.5239 97.2864 47.5854 97.3277 47.6565C97.369 47.7275 97.3948 47.8065 97.4034 47.8882C97.5552 48.7007 97.7663 49.8193 97.8407 50.217C97.8596 50.3183 97.9395 50.7152 97.3406 50.8272L94.5077 51.3562" fill="white"/>
<path d="M97.877 70.3198L97.6662 70.3594C96.9281 70.4966 95.8293 70.5049 95.4837 70.0978C95.2004 69.7643 94.9978 69.1554 94.8405 68.3135C94.0895 64.2919 93.4911 60.6778 92.7848 56.6905C92.6219 55.7732 92.7657 54.8277 93.1941 54.0004C93.2707 53.8522 93.3544 53.6814 93.4502 53.4646C93.6064 53.1116 94.0849 52.147 94.3355 51.3886L97.3401 50.8275L97.622 50.7748C98.5899 51.7372 99.014 52.1014 99.2874 52.3746C99.4864 52.5733 99.6443 52.7182 99.7881 52.8412C100.437 53.4037 100.88 54.1669 101.046 55.0097C101.838 59.0448 102.59 62.657 103.349 66.7231C103.531 67.6956 103.684 68.3673 103.233 68.8592C102.834 69.2938 102.032 69.543 101.453 69.6512L97.877 70.3198Z" fill="#BBDEF2"/>
<path d="M101.499 57.2947C101.472 57.1635 101.446 57.032 101.42 56.9003L101.252 56.9247C99.5542 57.2417 94.554 58.1849 93.3314 58.413L93.0967 58.4644C93.364 59.9947 93.6207 61.4858 93.8826 62.9845L93.9767 62.9604C96.6001 62.3875 99.5663 61.8868 102.218 61.4624L102.327 61.4418C102.053 60.0652 101.778 58.6963 101.499 57.2947Z" fill="#3D8DCC"/>
<path d="M97.5491 51.4742C97.966 51.8821 98.3962 52.2755 98.8156 52.682C99.2672 53.1182 99.7711 53.5088 100.098 54.0545C100.512 54.7476 100.597 55.5642 100.751 56.3444C100.921 57.2017 101.092 58.0589 101.264 58.9158C101.602 60.6068 101.941 62.2977 102.27 63.9902C102.439 64.8613 102.606 65.7327 102.77 66.6045C102.838 66.9674 102.923 67.3325 102.962 67.6998C103.012 67.9315 102.99 68.1727 102.901 68.3921C102.626 68.8834 101.782 69.0325 101.286 69.1285C100.843 69.2145 100.398 69.2932 99.9548 69.3772C98.9918 69.557 97.9938 69.8367 97.0133 69.8897C96.732 69.9149 96.4486 69.9003 96.1714 69.8464C96.0788 69.8377 95.9906 69.8024 95.9176 69.7448C95.8445 69.6872 95.7897 69.6097 95.7596 69.5216C95.4206 68.8779 95.3515 68.0745 95.2216 67.3698C94.9054 65.6542 94.5992 63.9369 94.3032 62.2178C94.133 61.2406 93.9633 60.2634 93.7942 59.2862C93.6273 58.3254 93.405 57.3594 93.2919 56.3921C93.1865 55.4912 93.4588 54.7451 93.8321 53.9458C94.1615 53.2403 94.4945 52.533 94.7701 51.8047C94.8075 51.6642 94.7882 51.5147 94.7163 51.3884C94.6444 51.262 94.5257 51.169 94.3858 51.1294C94.2454 51.094 94.0967 51.1142 93.9709 51.1858C93.845 51.2574 93.7517 51.3749 93.7105 51.5137C93.1549 52.9826 92.1596 54.3496 92.1698 55.9724C92.1752 56.8736 92.4226 57.791 92.5771 58.6759C92.7418 59.6153 92.905 60.5549 93.0668 61.4948C93.3896 63.3545 93.7141 65.2137 94.0531 67.0701C94.2087 67.921 94.3089 68.8192 94.6166 69.6333C94.8593 70.2751 95.2167 70.7656 95.9202 70.9161C97.0517 71.1579 98.2433 70.8112 99.3561 70.6034C100.513 70.3874 101.805 70.2847 102.877 69.7731C103.194 69.6448 103.472 69.4339 103.681 69.1623C103.889 68.8906 104.022 68.5681 104.064 68.2282C104.148 67.4297 103.875 66.5612 103.728 65.783C103.38 63.9438 103.017 62.1069 102.65 60.2713C102.439 59.2112 102.227 58.1511 102.015 57.091C101.911 56.5705 101.808 56.0501 101.705 55.5296C101.634 55.0611 101.519 54.6004 101.361 54.1536C101.023 53.3191 100.474 52.7567 99.8359 52.1473C99.3319 51.6655 98.823 51.1887 98.3245 50.701C97.8189 50.2069 97.0418 50.9823 97.548 51.4775L97.5491 51.4742Z" fill="#211715"/>
<path d="M94.3613 50.8267C94.3066 50.8321 94.2516 50.8338 94.1966 50.8319C94.2159 50.8319 94.271 50.8594 94.2315 50.8347C94.1667 50.794 94.3174 50.8926 94.2614 50.8511C94.316 50.8913 94.3542 50.9498 94.369 51.0158C94.3723 51.1295 94.3731 51.0027 94.369 50.9686C94.3498 50.7567 94.2966 50.5451 94.2576 50.3373C94.1478 49.7504 94.047 49.1613 93.932 48.5756C93.9265 48.5481 93.9246 48.455 93.9263 48.5555C93.9279 48.6617 93.9285 48.5344 93.9263 48.5056C93.9249 48.4814 93.929 48.4581 93.9287 48.4342C93.9287 48.46 93.8939 48.5522 93.9265 48.4679C93.9315 48.4553 93.9469 48.3894 93.9238 48.4583C93.8963 48.5366 93.9337 48.4273 93.9512 48.415C93.9598 48.4089 93.8834 48.4822 93.8804 48.4863C93.8911 48.4718 93.9683 48.4468 93.8895 48.4718C93.9351 48.4572 93.9806 48.4468 94.0267 48.4369C94.0816 48.4254 94.1385 48.4163 94.1942 48.4059L95.4975 48.1624L96.7179 47.9346C96.7476 47.9291 96.839 47.9132 96.8277 47.9146C96.7786 47.9209 96.9142 47.8901 96.8483 47.9146C96.7915 47.9362 96.8757 47.9222 96.8708 47.9244C96.8914 47.9137 96.767 47.9099 96.8571 47.9264L96.8099 47.891C96.8439 47.9276 96.847 47.9283 96.8192 47.8932C96.8019 47.8212 96.8332 47.942 96.8563 47.9604C96.7959 47.9121 96.8272 47.8613 96.839 47.9192C96.8428 47.9371 96.8519 47.9544 96.856 47.9725C96.8854 48.1012 96.9076 48.2313 96.9317 48.3612C97.0503 48.9945 97.1693 49.6277 97.2886 50.2607C97.2955 50.2972 97.3007 50.3351 97.3095 50.3705C97.3303 50.4567 97.2952 50.2198 97.3012 50.3093C97.3045 50.3559 97.288 50.474 97.3127 50.298C97.2965 50.4139 97.3196 50.2873 97.3676 50.2349C97.3086 50.3008 97.3676 50.244 97.3855 50.2319C97.3586 50.251 97.3298 50.2673 97.2996 50.2805C97.3734 50.2508 97.1848 50.2999 97.1865 50.2994C97.1354 50.3101 97.0838 50.3186 97.0325 50.3282L94.3594 50.8273C94.2196 50.867 94.101 50.9601 94.0291 51.0864C93.9572 51.2128 93.9379 51.3623 93.9751 51.5028C94.0163 51.6417 94.1097 51.7592 94.2356 51.8309C94.3615 51.9025 94.5102 51.9226 94.6507 51.8871L97.3641 51.3795C97.6578 51.3442 97.9322 51.2149 98.1464 51.0109C98.2535 50.8898 98.3302 50.7449 98.3703 50.5883C98.4104 50.4316 98.4127 50.2677 98.377 50.11C98.2694 49.4496 98.1299 48.7924 98.0064 48.1353C97.9789 47.8462 97.8923 47.5659 97.7519 47.3118C97.6384 47.1388 97.4779 47.0017 97.2893 46.9167C97.1007 46.8317 96.8917 46.8022 96.6869 46.8317C96.2477 46.8866 95.8123 46.989 95.3781 47.0699L93.878 47.3499C93.6056 47.3818 93.3499 47.4975 93.1461 47.681C93.0312 47.8026 92.944 47.9477 92.8904 48.1062C92.8367 48.2648 92.818 48.433 92.8354 48.5994C92.8629 48.8934 92.9334 49.1869 92.9867 49.4778C93.0701 49.9322 93.1545 50.3862 93.2397 50.8399C93.2485 50.8863 93.2557 50.9332 93.2672 50.9788C93.2894 51.0787 93.2776 51.0189 93.2749 50.9873C93.2774 51.0147 93.2771 51.0422 93.2793 51.0683C93.2859 51.2229 93.33 51.3736 93.4077 51.5075C93.6792 51.9467 94.1977 51.9626 94.6548 51.8863C94.7947 51.8468 94.9135 51.7539 94.9855 51.6275C95.0574 51.5011 95.0766 51.3515 95.0391 51.211C94.9976 51.0723 94.9043 50.9549 94.7784 50.8833C94.6526 50.8117 94.504 50.7915 94.3635 50.8267H94.3613Z" fill="#211715"/>
<path d="M93.2523 65.4742L92.176 66.3103C94.7997 68.249 100.55 69.4815 106.43 70.0105L105.758 68.5375C105.268 66.797 103.652 65.722 102.867 65.5161C101.805 65.2378 100.528 65.097 99.4985 65.4758C97.9819 64.1308 94.7459 64.2131 93.4651 65.3111L93.2523 65.4742Z" fill="white"/>
<path d="M93.4773 58.9422C96.1179 58.4481 98.757 57.9475 101.398 57.4542C102.092 57.3246 101.798 56.2662 101.106 56.3954C98.4652 56.8895 95.8261 57.3902 93.1855 57.8835C92.4918 58.0131 92.7855 59.0715 93.4773 58.9422Z" fill="#211715"/>
<path d="M94.1225 63.4899C96.8513 62.8961 99.607 62.4336 102.364 61.9917C102.504 61.9522 102.622 61.8592 102.694 61.7328C102.766 61.6065 102.786 61.4569 102.748 61.3164C102.707 61.1778 102.613 61.0605 102.487 60.9889C102.362 60.9173 102.213 60.897 102.073 60.9321C99.316 61.3738 96.5604 61.8366 93.8316 62.4303C93.1415 62.5805 93.4336 63.6381 94.1234 63.489L94.1225 63.4899Z" fill="#211715"/>
<path d="M134.568 33.4373C134.093 33.635 133.58 33.7224 133.066 33.6929C131.666 33.5995 129.907 34.5142 129.043 36.0991C128.569 37.2471 128.53 38.5285 128.934 39.7029C129.337 40.8774 130.156 41.8643 131.235 42.4787C132.197 42.9548 133.25 43.2182 134.323 43.2512C135.043 43.292 135.764 43.1797 136.438 42.9218C137.407 42.5526 138.547 41.9509 139.241 41.1222C139.718 40.5558 140.067 39.8927 140.264 39.1786C140.46 38.4644 140.499 37.7162 140.378 36.9855C140.137 35.4947 139.323 34.0566 137.82 33.4571C137.308 33.2345 136.755 33.118 136.196 33.1146C135.637 33.1112 135.083 33.221 134.568 33.4373Z" fill="#F2635F"/>
<path d="M134.421 32.908C134.121 33.0337 133.803 33.1129 133.479 33.143C133.19 33.1619 132.901 33.1251 132.611 33.1479C132.053 33.1958 131.507 33.3409 130.999 33.5767C129.956 34.0461 128.887 34.9615 128.474 36.0521C128.069 37.1432 128.007 38.332 128.298 39.459C128.588 40.5861 129.216 41.5974 130.097 42.3573C131.112 43.1467 132.333 43.6255 133.614 43.7358C134.981 43.9044 136.366 43.6529 137.586 43.0147C138.794 42.4629 139.784 41.5244 140.399 40.3474C140.981 39.1557 141.138 37.8009 140.845 36.5075C140.588 35.2195 139.843 34.081 138.765 33.331C138.126 32.9225 137.399 32.6712 136.644 32.5977C135.889 32.5242 135.127 32.6305 134.421 32.908C134.283 32.9502 134.166 33.0436 134.095 33.1692C134.023 33.2948 134.003 33.4429 134.037 33.5833C134.076 33.7233 134.169 33.8421 134.296 33.914C134.422 33.986 134.572 34.0052 134.712 33.9676C135.223 33.7543 135.774 33.6559 136.327 33.6793C136.88 33.7026 137.421 33.8471 137.911 34.1026C138.738 34.5682 139.354 35.334 139.631 36.2412C139.977 37.25 139.977 38.3452 139.632 39.3543C139.258 40.3841 138.525 41.2443 137.568 41.7773C136.587 42.4088 135.44 42.7303 134.274 42.6999C133.183 42.6763 132.118 42.3686 131.182 41.8072C130.418 41.2787 129.833 40.53 129.506 39.6609C129.178 38.7918 129.122 37.8434 129.347 36.942C129.617 35.8528 130.47 35.0354 131.467 34.5649C131.877 34.3676 132.323 34.2563 132.778 34.2377C133.434 34.2645 134.089 34.173 134.713 33.9676C134.851 33.9255 134.968 33.832 135.039 33.7064C135.111 33.5808 135.131 33.4327 135.097 33.2923C135.058 33.1523 134.964 33.0334 134.838 32.9615C134.712 32.8896 134.562 32.8703 134.421 32.908Z" fill="#211715"/>
<path d="M133.009 34.9484C132.845 35.1037 132.698 35.2753 132.57 35.4606C132.463 35.6102 132.372 35.7707 132.299 35.9393C132.259 36.0002 132.237 36.0707 132.234 36.1433C132.217 36.2161 132.221 36.2919 132.243 36.3629C132.262 36.4325 132.295 36.4976 132.339 36.5546C132.384 36.6116 132.439 36.6593 132.501 36.695C132.564 36.7307 132.633 36.7537 132.705 36.7626C132.776 36.7716 132.849 36.7663 132.919 36.7472L133.05 36.6923C133.131 36.6446 133.199 36.5768 133.247 36.4955C133.334 36.295 133.446 36.1061 133.58 35.933L133.494 36.0428C133.583 35.9293 133.68 35.8231 133.786 35.7252C133.889 35.6223 133.947 35.4827 133.947 35.3371C133.947 35.1915 133.889 35.0519 133.786 34.9489C133.683 34.8463 133.543 34.7885 133.398 34.7881C133.253 34.7922 133.115 34.8495 133.01 34.9489L133.009 34.9484Z" fill="#211715"/>
<path d="M135.133 35.456C135.179 35.4873 135.225 35.5199 135.27 35.554L135.159 35.4683C135.337 35.6057 135.496 35.7651 135.634 35.9426L135.548 35.8328C135.598 35.898 135.645 35.9652 135.688 36.0343C135.763 36.1561 135.88 36.246 136.016 36.2866C136.087 36.3095 136.163 36.3129 136.236 36.2965C136.309 36.2933 136.379 36.2708 136.44 36.2314C136.502 36.195 136.557 36.1467 136.6 36.0893C136.644 36.0318 136.676 35.9663 136.694 35.8965C136.712 35.8268 136.717 35.7541 136.707 35.6826C136.697 35.6112 136.673 35.5424 136.637 35.4801C136.395 35.0911 136.072 34.7596 135.689 34.5089C135.627 34.4695 135.557 34.447 135.484 34.4436C135.412 34.4273 135.336 34.4307 135.265 34.4535C135.127 34.4928 135.01 34.583 134.937 34.7058C134.9 34.7691 134.876 34.8392 134.867 34.9118C134.857 34.9844 134.863 35.0581 134.882 35.1288L134.937 35.26C134.984 35.3415 135.052 35.4093 135.134 35.4571L135.133 35.456Z" fill="#211715"/>
<path d="M118.1 66.3964C117.476 67.3893 117.007 68.3138 115.67 68.8565C114.979 69.1367 114.186 69.5186 113.937 69.8068C111.776 67.0157 112.554 63.0124 113.858 61.4223C114.086 61.1764 114.391 61.0158 114.723 60.9671C115.095 60.8922 115.47 61.1044 115.938 61.4228C116.261 60.9369 116.649 60.4978 117.091 60.1179C118.006 59.4772 118.597 59.1846 119.691 59.0503C120.882 58.9054 123.613 59.4305 124.689 61.066C124.672 61.0989 124.656 61.1327 124.64 61.1662C124.132 62.2529 123.586 63.3498 122.767 64.2208C122.716 64.2742 122.665 64.3269 122.612 64.3789C121.706 65.2729 120.404 65.8625 119.156 65.6114C119.032 65.5736 118.902 65.5655 118.774 65.5878C118.635 65.6431 118.518 65.7441 118.443 65.8743C118.321 66.05 118.208 66.2243 118.1 66.3964Z" fill="#B9E2B6"/>
<path d="M122.768 64.2219C122.717 64.2753 122.666 64.328 122.613 64.38C121.708 65.274 120.406 65.8636 119.157 65.6125C119.034 65.5747 118.903 65.5666 118.776 65.5889C118.636 65.6442 118.519 65.7452 118.445 65.8754C117.612 67.0571 117.239 68.2196 115.67 68.8565C114.819 69.2012 113.814 69.6997 113.859 69.9899C113.959 70.5317 114.186 71.0423 114.519 71.4809C114.853 71.9194 115.285 72.2737 115.78 72.5153C116.721 72.945 117.746 73.1559 118.78 73.1321C119.89 73.0987 120.99 72.9158 122.05 72.5883L123.265 72.2128C124.212 71.7563 125.056 71.1134 125.749 70.3227C126.441 69.5319 126.967 68.6096 127.295 67.6108C127.622 66.6121 127.745 65.5575 127.655 64.5103C127.565 63.463 127.265 62.4447 126.773 61.5161C126.418 60.8461 125.59 60.1576 124.999 60.6325C124.841 60.7815 124.719 60.9645 124.642 61.1675C124.133 62.254 123.588 63.3509 122.768 64.2219Z" fill="#74C66D"/>
<path d="M122.38 63.8338C121.874 64.3897 121.226 64.7976 120.506 65.0142C120.19 65.104 119.861 65.1374 119.533 65.1127C119.111 65.079 118.731 64.9387 118.345 65.1973C118.077 65.4214 117.856 65.697 117.696 66.0079C117.519 66.2851 117.351 66.5681 117.172 66.844C116.857 67.3721 116.418 67.8162 115.895 68.1388C115.268 68.4956 114.56 68.6859 113.956 69.0899C113.725 69.223 113.532 69.4118 113.394 69.6389C113.224 69.9653 113.358 70.3801 113.474 70.7053C113.711 71.3222 114.086 71.877 114.57 72.3278C115.054 72.7786 115.633 73.1136 116.266 73.3076C117.782 73.8127 119.41 73.738 120.959 73.4308C121.579 73.2971 122.192 73.1311 122.794 72.9334C123.516 72.7164 124.194 72.3739 124.798 71.9216C126.384 70.7516 127.509 69.0615 127.977 67.1463C128.444 65.2312 128.224 63.2127 127.354 61.4435C127.011 60.743 126.39 60.0137 125.561 59.9338C124.558 59.8385 124.221 60.8053 123.859 61.5399C123.48 62.3709 122.982 63.143 122.382 63.8322C121.904 64.3507 122.678 65.1292 123.159 64.6085C123.647 64.0715 124.069 63.4786 124.418 62.8421C124.594 62.5261 124.756 62.203 124.912 61.8775C125.011 61.6719 125.141 61.1693 125.353 61.0515C125.735 60.8388 126.222 61.6379 126.354 61.8937C126.661 62.5037 126.88 63.1545 127.003 63.8264C127.241 65.1183 127.127 66.4505 126.673 67.6831C126.218 68.9157 125.441 70.0033 124.421 70.8316C123.965 71.2365 123.436 71.5522 122.863 71.7622C122.362 71.917 121.862 72.083 121.354 72.2145C120.014 72.6051 118.602 72.6785 117.23 72.4289C116.148 72.1939 115.116 71.6482 114.617 70.6093C114.564 70.4977 114.52 70.3822 114.485 70.2637C114.472 70.1938 114.453 70.125 114.431 70.0575L114.408 69.951L114.362 70.1525C114.381 70.1835 114.33 70.15 114.406 70.1143C114.413 70.1111 114.537 70.0188 114.511 70.0375C114.646 69.9475 114.786 69.866 114.931 69.7935C115.515 69.486 116.165 69.2994 116.711 68.9222C117.241 68.5412 117.694 68.0628 118.046 67.5124C118.219 67.2544 118.378 66.9875 118.542 66.7243C118.629 66.5871 118.716 66.4498 118.807 66.3156C118.84 66.2578 118.878 66.2027 118.92 66.1509C118.961 66.1194 118.955 66.1095 118.903 66.1212L119.013 66.1404C120.559 66.4698 122.105 65.7062 123.158 64.6085C123.645 64.1001 122.87 63.3224 122.38 63.8338Z" fill="#211715"/>
<path d="M114.411 69.5294C113.101 67.8067 112.837 65.5218 113.445 63.4721C113.561 63.0672 113.722 62.6765 113.924 62.3071C114.146 61.9085 114.315 61.6582 114.772 61.5193C114.928 61.4721 114.743 61.4883 114.887 61.5026C114.972 61.5108 114.805 61.463 114.949 61.5111C115.051 61.5339 115.147 61.5742 115.235 61.6302C115.541 61.7987 115.823 62.0112 116.113 62.2066C117.078 62.8942 118.188 63.352 119.357 63.5451C119.498 63.579 119.646 63.5582 119.771 63.4868C119.897 63.4154 119.99 63.2988 120.033 63.1608C120.07 63.0203 120.051 62.8707 119.979 62.7443C119.907 62.618 119.788 62.525 119.648 62.4855C118.55 62.3057 117.509 61.8716 116.608 61.2179C116.003 60.804 115.359 60.2846 114.577 60.4375C113.449 60.6571 112.909 61.7263 112.542 62.7109C112.146 63.7966 111.979 64.9527 112.051 66.1062C112.119 67.5417 112.61 68.9251 113.463 70.082C113.539 70.2043 113.66 70.2928 113.799 70.3294C113.939 70.366 114.087 70.348 114.214 70.2791C114.339 70.2049 114.43 70.0845 114.466 69.9439C114.503 69.8033 114.483 69.6538 114.411 69.5278L114.411 69.5294Z" fill="#211715"/>
<path d="M117.37 60.593C117.914 60.1766 118.535 59.87 119.196 59.6905C119.716 59.5728 120.252 59.5485 120.78 59.6189C121.951 59.7649 123.199 60.2049 124.017 61.0866C124.498 61.6059 125.273 60.8283 124.793 60.3103C123.792 59.2296 122.289 58.7108 120.859 58.5307C119.371 58.343 118.032 58.7998 116.815 59.6449C116.239 60.0454 116.788 60.9977 117.37 60.593Z" fill="#211715"/>
<path d="M93.8519 65.6983C94.3735 65.2643 95.1764 65.0944 95.8557 65.0431C96.6942 64.9645 97.5394 65.0829 98.324 65.3887C98.5026 65.4647 98.6744 65.5559 98.8373 65.6613C99.0295 65.784 99.1942 65.9802 99.4256 66.0151C99.6776 66.053 99.9828 65.8913 100.233 65.8471C100.505 65.8034 100.78 65.7859 101.055 65.7949C101.897 65.7742 102.729 65.9836 103.462 66.4008C104.304 66.9261 104.931 67.7359 105.229 68.6835C105.429 69.3596 106.489 69.0716 106.287 68.3917C105.877 67.0621 104.96 65.9472 103.735 65.2874C103.149 65.0006 102.515 64.8232 101.865 64.7639C101.025 64.6281 100.164 64.6906 99.352 64.9465L99.8862 65.0876C98.926 64.261 97.6386 63.9399 96.3921 63.9281C95.2326 63.9171 93.9861 64.1655 93.0754 64.9218C92.5313 65.3739 93.3117 66.1468 93.8519 65.6983Z" fill="#211715"/>
<path d="M127.074 20.6819C129.013 17.471 131.4 14.5533 134.163 12.0171C134.685 11.5381 133.907 10.7632 133.387 11.2408C130.557 13.843 128.112 16.8354 126.126 20.1277C125.76 20.7343 126.709 21.2869 127.074 20.6819Z" fill="#211715"/>
<path d="M133.772 26.4917C136.067 24.5343 138.748 23.081 141.641 22.2263C142.316 22.0262 142.029 20.9661 141.348 21.1676C138.275 22.0801 135.429 23.6296 132.994 25.7152C132.456 26.1752 133.236 26.9487 133.77 26.4917H133.772Z" fill="#211715"/>
<path d="M118.574 18.5112C117.927 19.1599 116.751 20.0561 116.084 20.6841C113.69 22.9372 113.73 25.523 111.391 27.4351C109.57 28.9235 107.176 30.1483 105.038 29.1686C102.9 28.1889 101.056 25.3042 100.237 23.0994C100.062 22.4212 100.029 21.7142 100.139 21.0225C100.25 20.3309 100.501 19.6693 100.878 19.0789C101.597 17.8843 102.748 17.0127 103.945 16.2985C105.143 15.5843 107.959 14.2623 110.176 13.1283C111.071 12.656 112.004 12.2633 112.967 11.9546C113.855 11.6568 114.789 11.5265 115.724 11.5703C116.468 11.6218 117.182 11.884 117.782 12.3262C119.127 13.2675 120.348 14.7912 120.185 16.2098C120.085 17.0781 119.379 17.7045 118.574 18.5112Z" fill="white"/>
<path d="M105.489 28.0881C107.24 27.1021 108.227 25.7428 107.671 24.5619C107.144 23.4417 106.798 22.6292 106.651 21.4505C106.431 19.6912 107.242 18.8573 108.289 17.8606C108.954 17.2271 110.478 16.2537 111.994 15.4615C113.969 14.4294 116.688 13.6223 119.072 14.4955L119.863 14.6309C120.119 15.1154 120.231 15.6634 120.185 16.2095C120.085 17.078 119.379 17.7044 118.574 18.5112C117.927 19.1598 116.751 20.056 116.083 20.6841C113.689 22.9372 113.73 25.5229 111.391 27.4351C109.57 28.9234 107.176 30.1482 105.038 29.1685C104.762 29.0404 104.499 28.8882 104.25 28.7137L105.002 28.3426C105.17 28.2615 105.333 28.1767 105.489 28.0881Z" fill="#F6928F"/>
<path d="M118.186 18.123C117.58 18.7225 116.903 19.2463 116.256 19.7991C115.55 20.3889 114.926 21.0709 114.402 21.8268C113.454 23.2196 112.96 24.9067 111.864 26.2004C111.243 26.901 110.513 27.4977 109.704 27.9676C108.934 28.4697 108.067 28.8027 107.16 28.9446C105.398 29.1562 104.016 28.019 102.954 26.7439C102.406 26.0735 101.925 25.3505 101.518 24.5855C101.127 23.8644 100.716 23.0917 100.638 22.2633C100.453 20.2836 101.633 18.5735 103.175 17.456C104.478 16.5117 105.965 15.834 107.403 15.1228C108.256 14.7006 109.111 14.2809 109.961 13.8518C110.795 13.4071 111.654 13.0129 112.535 12.6715C113.509 12.2882 114.547 12.0981 115.593 12.1118C116.603 12.1544 117.45 12.6723 118.177 13.3421C118.849 13.9614 119.535 14.789 119.641 15.7327C119.756 16.7615 118.84 17.4695 118.186 18.1208C117.685 18.6207 118.461 19.3973 118.962 18.8971C119.668 18.1928 120.54 17.4423 120.707 16.403C120.814 15.4459 120.547 14.4844 119.961 13.7198C119.375 12.8798 118.618 12.1724 117.741 11.6435C116.823 11.1215 115.761 10.9085 114.712 11.0361C112.617 11.2362 110.751 12.2329 108.902 13.1574C107.24 13.9883 105.54 14.7626 103.921 15.6775C102.142 16.6827 100.521 18.0459 99.8291 20.0278C99.4484 21.0756 99.4119 22.2174 99.7247 23.2874C100.035 24.1577 100.44 24.991 100.933 25.7722C101.864 27.3094 103.13 28.916 104.813 29.6654C106.794 30.5482 108.941 29.8046 110.649 28.6657C111.529 28.1058 112.308 27.4014 112.954 26.5822C113.484 25.8302 113.943 25.0308 114.326 24.1941C114.723 23.332 115.221 22.5199 115.808 21.7744C116.473 21.0507 117.198 20.3849 117.975 19.784C118.313 19.4985 118.649 19.21 118.963 18.8988C119.466 18.4016 118.689 17.6254 118.186 18.123Z" fill="#211715"/>
<path d="M119.218 13.9664C115.682 12.713 111.849 14.6252 108.989 16.6188C107.882 17.3905 106.683 18.4088 106.244 19.73C105.705 21.3471 106.415 23.1516 107.093 24.6117C107.233 24.8531 107.295 25.1317 107.271 25.4096C107.209 25.7312 107.067 26.032 106.859 26.2847C106.277 26.9684 105.547 27.5105 104.725 27.8697C104.091 28.1829 104.647 29.1302 105.279 28.8178C106.526 28.2015 108.046 27.1785 108.328 25.7017C108.478 24.9172 108.15 24.3212 107.843 23.6232C107.507 22.8988 107.286 22.1268 107.188 21.3347C107.093 20.6567 107.248 19.9675 107.624 19.3951C107.987 18.8905 108.417 18.4379 108.902 18.0501C109.539 17.5398 110.217 17.0829 110.929 16.6842C111.664 16.2338 112.43 15.8338 113.219 15.4868C115.012 14.7322 117.05 14.3614 118.926 15.0259C119.593 15.2625 119.88 14.2024 119.218 13.9672L119.218 13.9664Z" fill="#211715"/>
<path d="M102.025 22.2745C101.928 21.9929 101.898 21.6922 101.938 21.3969C101.978 21.1016 102.087 20.8198 102.256 20.5743C102.418 20.3274 102.639 20.1243 102.898 19.9831C103.157 19.8419 103.447 19.767 103.743 19.7651C103.843 19.7457 103.946 19.7488 104.046 19.7741C104.145 19.7994 104.237 19.8463 104.316 19.9114C104.395 19.9765 104.458 20.0582 104.502 20.1507C104.545 20.2432 104.568 20.3441 104.568 20.4464C104.623 21.4236 104.797 22.6926 104.946 23.7695C104.971 23.9099 104.96 24.0543 104.914 24.1895C104.869 24.3246 104.79 24.4462 104.686 24.543C104.456 24.6812 104.184 24.7327 103.919 24.6882C103.644 24.5682 103.398 24.3881 103.202 24.1609C102.699 23.608 102.301 22.969 102.025 22.2745Z" fill="#F6928F"/>
<path d="M102.555 22.1287C102.451 21.8374 102.448 21.5199 102.544 21.2261C102.641 20.9324 102.833 20.6792 103.089 20.5062C103.326 20.3669 103.598 20.2988 103.872 20.3102C104.005 20.3176 103.927 20.3184 103.905 20.3146C103.919 20.3171 104.004 20.3497 103.933 20.3165C103.955 20.3267 104.004 20.3747 103.954 20.3203C103.967 20.3338 104.015 20.356 103.983 20.3431C103.94 20.3261 104.01 20.4049 103.997 20.3621C103.98 20.3072 104.015 20.4238 104.017 20.4343C104.024 20.468 104.028 20.5847 104.034 20.6703C104.097 21.5619 104.218 22.4491 104.338 23.333C104.361 23.4977 104.4 23.7258 104.405 23.8457C104.407 23.8837 104.407 23.9217 104.405 23.9596C104.398 24.0557 104.42 23.8971 104.399 23.995C104.395 24.0381 104.378 24.0788 104.349 24.1109C104.407 24.0683 104.309 24.121 104.277 24.1295C104.223 24.1447 104.167 24.1522 104.111 24.1518C104.051 24.1534 104.017 24.1323 104.068 24.163C104.002 24.1224 103.919 24.073 103.871 24.0354C103.24 23.5375 102.824 22.7329 102.501 21.9964C102.427 21.8714 102.307 21.7806 102.166 21.7437C102.026 21.7068 101.876 21.7268 101.75 21.7993C101.627 21.8753 101.538 21.9957 101.501 22.1356C101.465 22.2754 101.483 22.424 101.553 22.5506C101.956 23.4705 102.501 24.4087 103.337 24.9994C103.56 25.1487 103.819 25.2347 104.087 25.2484C104.355 25.2621 104.621 25.2029 104.858 25.0771C105.082 24.9463 105.262 24.752 105.375 24.5189C105.489 24.2858 105.53 24.0244 105.495 23.7675C105.383 22.6571 105.207 21.5581 105.117 20.4444C105.113 20.1831 105.027 19.9298 104.872 19.7195C104.717 19.5092 104.5 19.3524 104.252 19.2709C103.783 19.1617 103.292 19.2084 102.852 19.4041C101.747 19.8562 101.037 21.2761 101.496 22.4205C101.538 22.5587 101.631 22.6754 101.757 22.7468C101.882 22.8183 102.031 22.839 102.171 22.8048C102.311 22.7654 102.43 22.6723 102.502 22.5457C102.574 22.4191 102.593 22.2693 102.555 22.1287Z" fill="#211715"/>
<path d="M84.035 27.5707C83.8596 27.2795 83.7375 27.0731 83.6999 27.0031C84.3257 26.579 84.8874 26.2089 85.5129 25.848C85.6227 26.025 85.8972 26.4464 86.2541 26.9907L86.2832 26.969C86.5302 26.8153 87.4825 26.2476 87.925 25.9871L87.9214 25.98C87.6798 25.4859 87.4136 24.9753 87.2818 24.6981C87.6719 24.4596 88.6378 23.935 89.0441 23.7181C89.9088 25.1016 92.08 28.5905 92.7718 29.7214C92.7752 29.7227 92.7785 29.7244 92.7816 29.7263C91.6434 30.4146 90.4883 31.0729 89.3164 31.7011C88.1251 32.3407 86.9183 32.9502 85.696 33.5298C85.6905 33.5323 85.6398 33.5572 85.5527 33.5987C84.6186 32.2547 83.1619 30.1109 82.5459 29.1938C82.9994 28.8551 83.6521 28.4222 84.2316 28.0758L84.3161 28.0354C84.2129 27.8653 84.1179 27.7085 84.035 27.5707Z" fill="#FFDA71"/>
<path d="M86.4012 33.8556C85.2511 32.2256 84.1333 30.5726 83.02 28.9168L82.8231 29.6678C83.3647 29.2662 83.931 28.8973 84.5088 28.549C85.1127 28.1853 84.5637 27.2355 83.9546 27.6009C83.3768 27.9484 82.8105 28.3173 82.2689 28.7189C82.1449 28.7942 82.055 28.9148 82.0183 29.0551C81.9815 29.1954 82.0007 29.3446 82.0718 29.471C83.1844 31.1265 84.303 32.7798 85.4531 34.4098C85.5292 34.5326 85.6496 34.6214 85.7893 34.6581C85.9291 34.6947 86.0776 34.6763 86.2041 34.6066C86.329 34.5323 86.4196 34.412 86.4565 34.2715C86.4934 34.1309 86.4735 33.9816 86.4012 33.8556Z" fill="#211715"/>
<path d="M89.9203 31.5161C88.5786 29.5587 87.2487 27.5812 85.9871 25.571C85.9119 25.4472 85.7915 25.3574 85.6514 25.3207C85.5113 25.2839 85.3623 25.303 85.236 25.3739C84.6157 25.7341 84.0167 26.1272 83.4244 26.529C83.3013 26.6049 83.2121 26.7253 83.1754 26.8652C83.1387 27.0051 83.1573 27.1538 83.2273 27.2803C83.5945 27.9567 84.0208 28.6056 84.4227 29.2614C84.9484 30.1186 85.4735 30.9764 86.0148 31.8238C86.3941 32.4173 87.3447 31.8672 86.9629 31.2696C86.4213 30.4222 85.8962 29.5644 85.3708 28.7072C84.969 28.0514 84.5427 27.4025 84.1754 26.7261L83.9772 27.4785C84.5709 27.0766 85.1699 26.6825 85.7889 26.3234L85.0392 26.125C86.3019 28.1354 87.6305 30.1137 88.9722 32.07C89.0482 32.193 89.1686 32.2821 89.3085 32.3188C89.4483 32.3555 89.5969 32.337 89.7235 32.2671C89.8482 32.1927 89.9387 32.0723 89.9755 31.9319C90.0123 31.7914 89.9925 31.6421 89.9203 31.5161Z" fill="#211715"/>
<path d="M91.7494 30.3244C90.714 28.7411 89.709 27.1318 88.63 25.5773C88.5529 25.4555 88.4325 25.3675 88.2931 25.331C88.1536 25.2944 88.0056 25.3121 87.8787 25.3805C87.5954 25.5267 87.3204 25.6887 87.0552 25.8655C86.7055 26.0739 86.3547 26.2811 86.008 26.4949C85.4076 26.8652 85.9586 27.8153 86.5622 27.443C86.9089 27.2292 87.2597 27.022 87.6094 26.8136C87.8751 26.6367 88.1505 26.4748 88.4342 26.3286L87.6832 26.1315C88.7625 27.686 89.7672 29.2951 90.8026 30.8787C91.1869 31.4677 92.1389 30.9182 91.7507 30.3244H91.7494Z" fill="#211715"/>
<path d="M88.396 25.7027C88.1855 25.2742 87.9631 24.8517 87.7565 24.4208L87.5594 25.1726C88.1339 24.8248 88.7295 24.5092 89.3216 24.1927L88.5706 23.9956C89.8188 25.9931 91.0685 27.9898 92.2983 29.9988C92.6664 30.6005 93.6159 30.0496 93.2464 29.4446C92.0169 27.4356 90.7669 25.4389 89.5187 23.4414C89.443 23.3181 89.3225 23.2288 89.1826 23.1922C89.0426 23.1555 88.8939 23.1743 88.7674 23.2446C88.1753 23.561 87.5797 23.8759 87.0052 24.2245C86.8823 24.3005 86.7933 24.4209 86.7567 24.5607C86.72 24.7005 86.7385 24.849 86.8083 24.9755C87.015 25.4059 87.2374 25.8289 87.4479 26.2574C87.7592 26.8918 88.7065 26.3359 88.396 25.7032V25.7027Z" fill="#211715"/>
<path d="M85.6979 33.5298C86.9198 32.9504 88.1265 32.3409 89.3182 31.7011C90.6744 30.9722 92.0104 30.2046 93.3262 29.3984C93.3915 29.3581 93.4642 29.3313 93.5399 29.3194C93.6157 29.3075 93.6931 29.3108 93.7676 29.329C93.8421 29.3472 93.9123 29.3801 93.974 29.4256C94.0357 29.4712 94.0878 29.5285 94.1272 29.5943C95.7393 32.3072 97.2216 35.0393 98.764 37.7626C98.8026 37.8306 98.827 37.9057 98.8357 37.9835C98.8445 38.0612 98.8374 38.1399 98.8149 38.2148C98.7924 38.2897 98.755 38.3593 98.7048 38.4193C98.6547 38.4793 98.5929 38.5286 98.5232 38.5641C95.9454 39.8876 93.2528 40.9745 90.4785 41.8114C90.2653 41.8875 90.0306 41.8757 89.8261 41.7787C89.6969 41.689 89.5918 41.5689 89.52 41.429C88.0831 39.105 86.7181 36.7391 85.425 34.3313C85.388 34.2618 85.3656 34.1855 85.359 34.1071C85.3524 34.0286 85.3618 33.9496 85.3866 33.8749C85.4115 33.8002 85.4513 33.7313 85.5035 33.6724C85.5558 33.6135 85.6195 33.5658 85.6907 33.5323L85.6979 33.5298Z" fill="white"/>
<path d="M85.9739 34.0036C88.2296 32.9321 90.4333 31.7597 92.5852 30.4864C92.8315 30.34 93.0769 30.1927 93.3214 30.0445C93.3862 30.0052 93.5594 29.8485 93.6453 29.8567C93.6217 29.8546 93.6942 29.9391 93.7222 29.9877C94.0368 30.5326 94.3599 31.0725 94.6736 31.6179C95.3091 32.722 95.9325 33.8328 96.5539 34.9446C96.8588 35.4897 97.1637 36.0349 97.4685 36.58C97.6213 36.8529 97.7744 37.1254 97.9278 37.3975C98.0045 37.534 98.0813 37.6702 98.1584 37.8062C98.1907 37.8638 98.2204 37.9264 98.2572 37.9813C98.3121 38.0612 98.2734 38.0791 98.2964 38.0285C98.2432 38.146 98.0088 38.2111 97.8929 38.269C97.6329 38.3991 97.3718 38.5272 97.1098 38.6533C96.6027 38.8956 96.0918 39.1296 95.5773 39.3555C94.521 39.8194 93.4488 40.2446 92.3607 40.6311C91.8309 40.8183 91.2976 40.9953 90.7595 41.1578C90.5998 41.2061 90.2852 41.37 90.1241 41.3088C89.963 41.2476 89.8026 40.8421 89.7173 40.703C88.9803 39.4994 88.2628 38.2855 87.5647 37.0612C87.2261 36.4679 86.8923 35.8721 86.5633 35.2737C86.3935 34.965 86.2247 34.6554 86.0571 34.3451C85.9781 34.1988 85.8101 34.0813 85.9748 34.0036C86.6127 33.7016 86.0571 32.7543 85.4206 33.0557C85.1647 33.1904 84.9699 33.4177 84.8761 33.6912C84.7824 33.9648 84.7968 34.2638 84.9163 34.5271C85.1977 35.1521 85.5702 35.7494 85.9045 36.3483C86.6111 37.6193 87.3383 38.8784 88.0862 40.1257C88.4248 40.7696 88.8101 41.3877 89.2391 41.9753C89.6917 42.5243 90.3387 42.429 90.9467 42.2476C92.2009 41.8737 93.4326 41.4241 94.6451 40.93C95.8988 40.4214 97.1327 39.867 98.3469 39.2668C98.8833 39 99.4156 38.695 99.39 38.0074C99.347 37.6924 99.2278 37.3926 99.0428 37.134C98.8561 36.8035 98.6701 36.4726 98.4847 36.1414C97.7645 34.8564 97.0494 33.5685 96.3233 32.2869C95.9588 31.6436 95.5909 31.0024 95.2196 30.3632C94.9069 29.8263 94.6116 29.0053 93.9591 28.8123C93.2245 28.5949 92.5106 29.255 91.9198 29.6042C91.2182 30.0183 90.5106 30.422 89.7969 30.8153C88.36 31.6066 86.9009 32.3534 85.4197 33.0557C84.7818 33.3588 85.3382 34.3055 85.9739 34.0036Z" fill="#211715"/>
<path d="M93.0863 33.07C93.7215 34.2759 94.3362 35.4922 94.9304 36.7186C95.0048 36.8433 95.1252 36.9338 95.2656 36.9706C95.4061 37.0074 95.5554 36.9876 95.6814 36.9154C95.8049 36.8399 95.8944 36.7196 95.9311 36.5796C95.9679 36.4396 95.949 36.2908 95.8785 36.1644C95.2843 34.9383 94.6696 33.7221 94.0344 32.5158C93.9609 32.39 93.8405 32.2987 93.6996 32.2617C93.5587 32.2248 93.409 32.2453 93.2832 32.3188C93.1575 32.3923 93.0661 32.5127 93.0292 32.6536C92.9923 32.7945 93.0128 32.9443 93.0863 33.07Z" fill="#211715"/>
<path d="M103.891 49.7224C103.844 49.6306 103.808 49.5339 103.782 49.4342C103.387 47.9261 103.581 45.7641 104.12 44.0183C104.608 42.7046 105.245 41.451 106.018 40.2819C108.367 36.841 109.855 34.4186 113.182 31.9097C114.329 31.045 115.94 30.3953 117.012 30.7617C117.147 30.8183 117.275 30.888 117.396 30.9698C114.393 33.4754 110.825 37.0436 108.887 39.9829C106.758 43.1447 105.67 46.8921 105.774 50.7021C105.328 50.6862 105.118 50.7271 104.698 50.5017C104.356 50.3306 104.074 50.0586 103.891 49.7224Z" fill="#D9D9D9"/>
<path d="M105.849 50.1567C105.519 50.1851 105.188 50.124 104.89 49.9799C104.74 49.8992 104.608 49.7875 104.504 49.6523C104.4 49.517 104.326 49.3612 104.286 49.1951C104.106 48.3566 104.064 47.4944 104.162 46.6423C104.232 45.7574 104.409 44.8842 104.689 44.0417C104.938 43.3594 105.243 42.6985 105.599 42.0653C106.414 40.6292 107.316 39.2442 108.299 37.9179C109.196 36.6031 110.208 35.3707 111.324 34.2353C112.516 33.0533 113.912 31.7475 115.578 31.3135C115.906 31.2161 116.249 31.1843 116.589 31.2199C116.857 31.2742 117.104 31.404 117.301 31.5941C117.872 32.07 118.103 32.7022 117.721 33.3819C117.316 34.1035 116.614 34.6822 116.029 35.255C115.403 35.8199 114.843 36.453 114.359 37.1425C113.461 38.5369 113.19 40.2138 112.895 41.8144C112.752 42.7005 112.541 43.5744 112.265 44.4285C111.941 45.3371 111.434 46.1698 110.777 46.8756C110.07 47.6415 109.307 48.3522 108.492 49.0016C107.733 49.6129 106.851 50.1389 105.851 50.1567C105.145 50.1693 105.143 51.2673 105.851 51.2547C107.92 51.2179 109.551 49.6283 110.947 48.2739C111.684 47.5931 112.311 46.8014 112.805 45.9275C113.221 45.1066 113.526 44.2336 113.711 43.3319C114.091 41.63 114.206 39.7908 115.01 38.2166C115.857 36.5578 117.583 35.6177 118.585 34.0755C118.848 33.6956 118.995 33.2477 119.009 32.7858C119.023 32.324 118.903 31.8679 118.664 31.4727C118.447 31.1214 118.158 30.8202 117.815 30.5892C117.473 30.3582 117.086 30.2028 116.679 30.1332C114.747 29.8982 112.963 31.3089 111.6 32.4878C110.257 33.6721 109.051 35.0026 108.003 36.4546C107.465 37.1834 106.953 37.9308 106.444 38.68C105.935 39.4291 105.401 40.1746 104.951 40.9657C104.506 41.7362 104.114 42.5358 103.778 43.359C103.456 44.2041 103.242 45.086 103.139 45.9843C102.996 46.9666 102.992 47.9641 103.126 48.9475C103.165 49.4026 103.314 49.8415 103.559 50.2267C103.829 50.5948 104.193 50.8844 104.612 51.0661C105.008 51.2087 105.428 51.2727 105.849 51.2544C106.556 51.2821 106.555 50.1842 105.849 50.1567Z" fill="#211715"/>
<path d="M106.313 49.9829C106.356 46.9536 107.173 43.9856 108.686 41.3607C110.099 38.8803 112.066 36.7349 114.083 34.7338C115.268 33.5573 116.502 32.4318 117.784 31.3575C118.327 30.9037 117.546 30.1304 117.007 30.5809C114.644 32.5372 112.453 34.6922 110.458 37.0223C108.522 39.3069 106.94 41.826 106.043 44.7008C105.51 46.4115 105.232 48.1913 105.217 49.9829C105.21 50.6898 106.308 50.6903 106.315 49.9829H106.313Z" fill="#211715"/>
<path d="M103.873 44.1224C103.943 44.3504 104.038 44.57 104.156 44.7773C104.293 45.0439 104.438 45.3052 104.586 45.5649C104.835 46.0016 105.089 46.4367 105.358 46.861C105.432 46.9868 105.552 47.0781 105.693 47.1151C105.834 47.152 105.984 47.1315 106.109 47.058C106.235 46.9845 106.326 46.8641 106.363 46.7232C106.4 46.5823 106.38 46.4325 106.306 46.3068C106.042 45.8912 105.793 45.4652 105.549 45.0378C105.402 44.7806 105.258 44.5215 105.122 44.258C105.067 44.1537 105.017 44.048 104.968 43.9415C104.947 43.8965 104.927 43.8105 104.989 43.9939C104.982 43.9728 104.972 43.9525 104.964 43.9316C104.952 43.8985 104.941 43.8648 104.932 43.8306C104.893 43.6902 104.8 43.5709 104.673 43.499C104.547 43.4271 104.397 43.4084 104.256 43.4471C104.116 43.4858 103.997 43.5787 103.925 43.7053C103.853 43.832 103.834 43.982 103.873 44.1224Z" fill="#211715"/>
<path d="M105.102 42.3437C105.377 42.9533 105.681 43.5479 105.954 44.1575C106.027 44.2812 106.144 44.3717 106.283 44.4098C106.352 44.429 106.425 44.4343 106.496 44.4254C106.568 44.4164 106.637 44.3935 106.7 44.3578C106.763 44.3221 106.818 44.2743 106.862 44.2173C106.906 44.1603 106.939 44.0951 106.958 44.0255C106.989 43.8824 106.97 43.7329 106.903 43.6025C106.629 42.9928 106.324 42.3983 106.051 41.7886C105.978 41.6647 105.86 41.5741 105.721 41.5364C105.578 41.4982 105.426 41.5179 105.298 41.5913C105.175 41.6639 105.084 41.7815 105.046 41.9193C105.015 42.0625 105.034 42.2121 105.101 42.3426L105.102 42.3437Z" fill="#211715"/>
<path d="M135.302 64.495C134.189 79.0808 133.367 92.7919 132.359 104.931C132.359 108.617 121.363 110.452 112.999 110.447C104.636 110.452 93.639 108.617 93.639 104.931C92.6782 92.8973 91.6414 78.8367 90.6958 64.4034V63.9548C90.6958 68.2013 103.364 70.3149 112.999 70.3089C122.634 70.3149 135.302 68.2013 135.302 63.9548V64.495Z" fill="#D9D9D9"/>
<path d="M90.1468 63.9547C90.1723 66.4628 93.2651 67.725 95.225 68.4194C98.7501 69.6684 102.548 70.2015 106.257 70.5438C110.235 70.9115 114.237 70.9531 118.222 70.6681C122.065 70.3936 125.97 69.8976 129.669 68.7801C131.076 68.3958 132.424 67.8218 133.676 67.0741C134.569 66.5054 135.456 65.731 135.752 64.6739C135.816 64.4395 135.849 64.1977 135.851 63.9547C135.858 63.2479 134.76 63.2474 134.753 63.9547C134.753 64.0052 134.75 64.0555 134.747 64.106C134.746 64.1411 134.72 64.2888 134.744 64.1518C134.727 64.2506 134.704 64.3482 134.675 64.4442C134.66 64.4925 134.643 64.5402 134.625 64.5875C134.603 64.6462 134.636 64.5627 134.638 64.5578C134.627 64.5853 134.615 64.6127 134.601 64.6382C134.552 64.7321 134.503 64.8252 134.446 64.9149C134.417 64.961 134.386 65.0058 134.354 65.0505C134.284 65.1502 134.368 65.0398 134.309 65.1112C134.234 65.2012 134.156 65.2885 134.074 65.3722C133.914 65.5322 133.744 65.6822 133.566 65.8213C132.505 66.5581 131.333 67.1223 130.096 67.493C126.683 68.6338 123.051 69.1524 119.479 69.4694C115.656 69.8091 111.813 69.8478 107.984 69.585C104.306 69.3316 100.589 68.8595 97.0353 67.8433C95.678 67.4913 94.3706 66.9695 93.144 66.2902C92.6952 66.0444 92.2841 65.7352 91.9233 65.3722C91.7788 65.2377 91.6535 65.0838 91.5511 64.9149C91.494 64.8252 91.4454 64.7324 91.3963 64.6382C91.3749 64.5973 91.3453 64.5175 91.3804 64.608C91.3595 64.5531 91.3398 64.4982 91.3225 64.4433C91.2933 64.3474 91.2701 64.2498 91.253 64.151C91.2703 64.2479 91.253 64.1817 91.2516 64.1266C91.2503 64.0714 91.2451 64.0116 91.2445 63.9539C91.2374 63.2476 90.1394 63.246 90.1465 63.9539L90.1468 63.9547Z" fill="#211715"/>
<path d="M95.2436 73.8186C97.276 74.54 99.3713 75.07 101.502 75.4016C103.957 75.8134 106.432 76.0893 108.917 76.2279C113.985 76.5555 119.073 76.3231 124.09 75.5348C126.513 75.1354 128.937 74.5576 131.17 73.5158C131.295 73.4416 131.386 73.3212 131.423 73.1807C131.46 73.0402 131.44 72.8908 131.368 72.7648C131.292 72.6415 131.171 72.5522 131.031 72.5155C130.891 72.4787 130.743 72.4975 130.616 72.5677C128.717 73.4538 126.642 73.9611 124.588 74.3385C122.15 74.7689 119.686 75.0389 117.212 75.1469C112.325 75.4217 107.422 75.1952 102.581 74.4708C100.181 74.138 97.8202 73.5648 95.5346 72.7599C94.8714 72.5128 94.5851 73.5743 95.2428 73.8186H95.2436Z" fill="#211715"/>
<path d="M112.999 79.2327H112.999C111.86 79.2327 110.936 80.1561 110.936 81.2952V103.978C110.936 105.117 111.86 106.04 112.999 106.04H112.999C114.138 106.04 115.062 105.117 115.062 103.978V81.2952C115.062 80.1561 114.138 79.2327 112.999 79.2327Z" fill="#B3B3B3"/>
<path d="M121.891 81.2179L120.938 103.88C120.89 105.018 121.774 105.98 122.912 106.028L122.912 106.028C124.05 106.076 125.012 105.192 125.06 104.054L126.013 81.3913C126.061 80.2532 125.177 79.2917 124.039 79.2439L124.039 79.2439C122.9 79.196 121.939 80.0798 121.891 81.2179Z" fill="#B3B3B3"/>
<path d="M101.958 79.2446L101.958 79.2446C100.82 79.2925 99.9363 80.2539 99.9842 81.392L100.938 104.054C100.985 105.192 101.947 106.076 103.085 106.028L103.085 106.028C104.223 105.98 105.107 105.019 105.059 103.881L104.106 81.2186C104.058 80.0805 103.097 79.1967 101.958 79.2446Z" fill="#B3B3B3"/>
<path d="M114.513 81.295V103.033C114.513 103.343 114.518 103.655 114.513 103.966C114.49 105.343 112.751 106.031 111.839 104.951C111.482 104.529 111.485 104.047 111.485 103.538V82.6763C111.485 82.2517 111.484 81.827 111.485 81.4026C111.488 80.4419 112.261 79.6198 113.27 79.804C113.617 79.8704 113.931 80.0553 114.158 80.3271C114.385 80.5989 114.511 80.9408 114.514 81.2948C114.53 82.0002 115.628 82.003 115.612 81.2948C115.568 79.3324 113.417 78.0236 111.682 79.0398C110.782 79.5668 110.389 80.507 110.389 81.5103V100.277C110.389 101.492 110.38 102.708 110.389 103.923C110.382 104.27 110.444 104.616 110.573 104.939C110.701 105.262 110.892 105.556 111.136 105.804C111.379 106.052 111.669 106.249 111.99 106.383C112.31 106.518 112.655 106.587 113.002 106.587C113.35 106.586 113.694 106.517 114.014 106.382C114.334 106.247 114.624 106.05 114.867 105.801C115.11 105.553 115.301 105.258 115.429 104.935C115.557 104.612 115.619 104.267 115.612 103.919C115.62 102.687 115.612 101.456 115.612 100.224V81.295C115.612 80.5888 114.514 80.5874 114.514 81.295H114.513Z" fill="#211715"/>
<path d="M121.487 103.88L121.605 101.078L121.876 94.6293L122.181 87.3801L122.401 82.1624C122.414 81.8517 122.421 81.5404 122.44 81.2291C122.462 80.9232 122.575 80.6309 122.765 80.3902C122.955 80.1495 123.213 79.9716 123.506 79.8796C123.798 79.7876 124.112 79.7858 124.405 79.8745C124.699 79.9631 124.959 80.138 125.152 80.3765C125.494 80.8193 125.467 81.3145 125.446 81.8314L125.372 83.5882L125.113 89.7386L124.804 97.0751L124.569 102.673C124.551 103.097 124.534 103.522 124.515 103.946C124.518 104.149 124.48 104.352 124.403 104.54C124.326 104.729 124.212 104.9 124.068 105.044C123.923 105.187 123.751 105.3 123.562 105.376C123.373 105.451 123.171 105.488 122.967 105.483C122.763 105.479 122.563 105.434 122.377 105.35C122.191 105.266 122.024 105.146 121.886 104.996C121.748 104.846 121.642 104.67 121.573 104.479C121.504 104.287 121.475 104.083 121.487 103.88C121.501 103.173 120.403 103.173 120.389 103.88C120.382 104.336 120.493 104.787 120.713 105.187C120.932 105.588 121.251 105.924 121.639 106.165C122.027 106.405 122.471 106.54 122.927 106.558C123.383 106.575 123.836 106.474 124.241 106.264C125.165 105.774 125.576 104.836 125.618 103.837L125.799 99.5447L126.107 92.2085L126.407 85.0878C126.458 83.8734 126.517 82.659 126.56 81.4443C126.578 81.0973 126.527 80.7501 126.41 80.4231C126.292 80.0961 126.111 79.7958 125.876 79.5398C125.641 79.2838 125.357 79.0773 125.041 78.9324C124.725 78.7874 124.384 78.707 124.037 78.6957C123.689 78.6844 123.343 78.7426 123.019 78.8668C122.694 78.9909 122.397 79.1786 122.146 79.4188C121.895 79.659 121.695 79.9469 121.556 80.2656C121.418 80.5844 121.344 80.9275 121.34 81.275C121.28 82.505 121.237 83.7361 121.185 84.9667L120.884 92.1036L120.576 99.427L120.398 103.672L120.389 103.88C120.359 104.587 121.457 104.585 121.487 103.88Z" fill="#211715"/>
<path d="M105.609 103.88L105.482 100.864L105.192 93.9854L104.878 86.5039L104.675 81.6785C104.647 81.0433 104.599 80.4309 104.231 79.8765C103.166 78.2726 100.665 78.3343 99.748 80.0628C99.4845 80.6279 99.3834 81.2552 99.456 81.8745L99.5353 83.7631L99.812 90.3411L100.131 97.9244L100.356 103.254C100.367 103.536 100.372 103.82 100.392 104.102C100.531 106.028 102.715 107.257 104.391 106.178C104.774 105.931 105.087 105.591 105.3 105.189C105.513 104.787 105.619 104.337 105.609 103.882C105.595 103.176 104.497 103.174 104.511 103.882C104.531 104.238 104.424 104.59 104.21 104.876C103.996 105.161 103.688 105.362 103.34 105.443C102.992 105.524 102.627 105.479 102.309 105.317C101.991 105.154 101.74 104.885 101.601 104.556C101.491 104.201 101.444 103.83 101.462 103.458L101.262 98.7106L100.96 91.561L100.677 84.832C100.629 83.7024 100.574 82.5728 100.534 81.4427C100.494 80.2951 101.649 79.4018 102.732 79.9574C103.364 80.2816 103.542 80.8877 103.569 81.5336L103.748 85.7847L104.044 92.8251L104.336 99.7306L104.503 103.693L104.511 103.88C104.54 104.585 105.638 104.588 105.609 103.88Z" fill="#211715"/>
<path d="M134.753 64.495C134.378 69.4164 134.021 74.339 133.684 79.263C133.36 83.9199 133.033 88.5767 132.706 93.2332C132.546 95.4541 132.381 97.6746 132.212 99.8948C132.13 100.963 132.046 102.03 131.96 103.098C131.917 103.633 131.873 104.168 131.829 104.703C131.817 104.843 131.813 104.985 131.8 105.125C131.8 105.12 131.817 105.068 131.789 105.17C131.773 105.224 131.761 105.279 131.745 105.336C131.733 105.378 131.718 105.418 131.702 105.459C131.741 105.356 131.697 105.472 131.677 105.51C131.628 105.604 131.574 105.696 131.515 105.784C131.498 105.81 131.414 105.924 131.475 105.846C131.439 105.891 131.402 105.935 131.365 105.978C131.285 106.068 131.2 106.154 131.112 106.236C130.717 106.585 130.276 106.88 129.803 107.113C128.474 107.761 127.071 108.244 125.626 108.553C121.976 109.384 118.249 109.828 114.506 109.877C110.729 109.982 106.951 109.73 103.221 109.124C101.527 108.861 99.856 108.467 98.2232 107.946C97.5811 107.74 96.9545 107.488 96.3484 107.193C95.8624 106.959 95.4054 106.669 94.9869 106.328C94.8944 106.246 94.8046 106.163 94.7198 106.073C94.6852 106.037 94.6513 106 94.618 105.961C94.5941 105.934 94.4906 105.802 94.5507 105.883C94.491 105.802 94.436 105.717 94.386 105.63C94.3586 105.584 94.3366 105.537 94.3122 105.491C94.302 105.471 94.2933 105.45 94.2847 105.43C94.2573 105.369 94.3149 105.518 94.2826 105.419C94.2535 105.33 94.2277 105.241 94.2068 105.149C94.1769 105.021 94.2051 105.202 94.198 105.104C94.1944 105.054 94.1933 105.003 94.1903 104.953C94.1577 104.429 94.108 103.906 94.0668 103.383C93.8931 101.19 93.722 98.9963 93.5535 96.8025C93.1963 92.1493 92.8502 87.4951 92.5153 82.8402C92.1612 77.9218 91.8196 73.0027 91.4904 68.0829C91.4086 66.8569 91.3274 65.6308 91.2469 64.4047C91.201 63.7033 90.1025 63.6981 90.1489 64.4047C90.4812 69.4785 90.8274 74.5512 91.1873 79.6228C91.5295 84.4518 91.8837 89.2798 92.2499 94.107C92.4223 96.3826 92.5976 98.6581 92.7758 100.933C92.8609 102.019 92.9466 103.104 93.0328 104.189C93.0838 104.83 93.0772 105.457 93.3649 106.046C93.8505 107.039 94.9004 107.7 95.8582 108.172C97.2802 108.839 98.7736 109.34 100.309 109.668C104.083 110.506 107.934 110.948 111.8 110.986C115.674 111.07 119.548 110.785 123.369 110.136C125.07 109.864 126.746 109.451 128.379 108.902C129.607 108.473 130.875 107.938 131.85 107.052C132.242 106.707 132.549 106.276 132.747 105.794C132.99 105.177 132.951 104.439 133.004 103.79C133.184 101.583 133.355 99.3753 133.519 97.1671C133.866 92.494 134.198 87.8197 134.515 83.1441C134.86 78.1746 135.212 73.2056 135.572 68.2372C135.664 66.9901 135.757 65.7432 135.853 64.4966C135.908 63.7917 134.809 63.7953 134.755 64.4966L134.753 64.495Z" fill="#211715"/>
</svg>
