<svg width="226" height="168" viewBox="0 0 226 168" fill="none" xmlns="http://www.w3.org/2000/svg">
<path d="M39.6886 145.099C38.7646 145.099 38.0276 144.872 37.4776 144.417C36.9349 143.962 36.6159 143.313 36.5206 142.47H37.4006C37.4813 143.079 37.7123 143.537 38.0936 143.845C38.4749 144.153 39.0029 144.307 39.6776 144.307C40.2496 144.307 40.6786 144.201 40.9646 143.988C41.2579 143.768 41.4046 143.449 41.4046 143.031C41.4046 142.672 41.3056 142.386 41.1076 142.173C40.9096 141.96 40.6016 141.784 40.1836 141.645L38.8526 141.183C38.1779 140.948 37.6793 140.666 37.3566 140.336C37.0339 139.999 36.8726 139.573 36.8726 139.06C36.8726 138.635 36.9789 138.268 37.1916 137.96C37.4043 137.645 37.7049 137.399 38.0936 137.223C38.4823 137.047 38.9333 136.959 39.4466 136.959C40.2386 136.959 40.8729 137.168 41.3496 137.586C41.8263 137.997 42.1013 138.583 42.1746 139.346H41.2946C41.1993 138.796 41.0013 138.393 40.7006 138.136C40.4073 137.879 39.9819 137.751 39.4246 137.751C38.8966 137.751 38.4859 137.857 38.1926 138.07C37.8993 138.283 37.7526 138.583 37.7526 138.972C37.7526 139.302 37.8553 139.566 38.0606 139.764C38.2659 139.962 38.5849 140.134 39.0176 140.281L40.4366 140.776C41.0526 140.989 41.5146 141.278 41.8226 141.645C42.1306 142.004 42.2846 142.463 42.2846 143.02C42.2846 143.68 42.0573 144.193 41.6026 144.56C41.1553 144.919 40.5173 145.099 39.6886 145.099ZM45.4355 145.11C45.0688 145.11 44.7425 145.037 44.4565 144.89C44.1705 144.736 43.9468 144.523 43.7855 144.252C43.6242 143.973 43.5435 143.654 43.5435 143.295V139.39H44.4235V143.064C44.4235 143.489 44.5262 143.808 44.7315 144.021C44.9442 144.234 45.2448 144.34 45.6335 144.34C45.9855 144.34 46.2972 144.259 46.5685 144.098C46.8398 143.937 47.0525 143.713 47.2065 143.427C47.3678 143.134 47.4485 142.8 47.4485 142.426L47.5915 143.757C47.4082 144.175 47.1222 144.505 46.7335 144.747C46.3448 144.989 45.9122 145.11 45.4355 145.11ZM47.5035 145V143.68H47.4485V139.39H48.3285V145H47.5035ZM52.859 145.099C52.331 145.099 51.8874 144.971 51.528 144.714C51.1687 144.457 50.923 144.094 50.791 143.625L50.967 143.603V147.255H50.087V139.39H50.912V140.699L50.791 140.666C50.9304 140.233 51.1944 139.896 51.583 139.654C51.9717 139.405 52.4227 139.28 52.936 139.28C53.4347 139.28 53.8674 139.401 54.234 139.643C54.608 139.885 54.8977 140.222 55.103 140.655C55.3084 141.088 55.411 141.594 55.411 142.173C55.411 142.76 55.3047 143.273 55.092 143.713C54.8794 144.153 54.5824 144.494 54.201 144.736C53.8197 144.978 53.3724 145.099 52.859 145.099ZM52.727 144.329C53.2844 144.329 53.7207 144.138 54.036 143.757C54.3514 143.368 54.509 142.84 54.509 142.173C54.509 141.513 54.3514 140.996 54.036 140.622C53.7207 140.241 53.2844 140.05 52.727 140.05C52.1697 140.05 51.7297 140.244 51.407 140.633C51.0844 141.014 50.923 141.539 50.923 142.206C50.923 142.859 51.0844 143.376 51.407 143.757C51.7297 144.138 52.1697 144.329 52.727 144.329ZM59.5299 145.099C59.0019 145.099 58.5583 144.971 58.1989 144.714C57.8396 144.457 57.5939 144.094 57.4619 143.625L57.6379 143.603V147.255H56.7579V139.39H57.5829V140.699L57.4619 140.666C57.6013 140.233 57.8653 139.896 58.2539 139.654C58.6426 139.405 59.0936 139.28 59.6069 139.28C60.1056 139.28 60.5383 139.401 60.9049 139.643C61.2789 139.885 61.5686 140.222 61.7739 140.655C61.9793 141.088 62.0819 141.594 62.0819 142.173C62.0819 142.76 61.9756 143.273 61.7629 143.713C61.5503 144.153 61.2533 144.494 60.8719 144.736C60.4906 144.978 60.0433 145.099 59.5299 145.099ZM59.3979 144.329C59.9553 144.329 60.3916 144.138 60.7069 143.757C61.0223 143.368 61.1799 142.84 61.1799 142.173C61.1799 141.513 61.0223 140.996 60.7069 140.622C60.3916 140.241 59.9553 140.05 59.3979 140.05C58.8406 140.05 58.4006 140.244 58.0779 140.633C57.7553 141.014 57.5939 141.539 57.5939 142.206C57.5939 142.859 57.7553 143.376 58.0779 143.757C58.4006 144.138 58.8406 144.329 59.3979 144.329ZM65.7608 145.11C65.2108 145.11 64.7268 144.982 64.3088 144.725C63.8908 144.468 63.5645 144.12 63.3298 143.68C63.1025 143.233 62.9888 142.73 62.9888 142.173C62.9888 141.608 63.1062 141.11 63.3408 140.677C63.5755 140.244 63.8982 139.903 64.3088 139.654C64.7268 139.405 65.2108 139.28 65.7608 139.28C66.3182 139.28 66.8022 139.405 67.2128 139.654C67.6308 139.903 67.9535 140.244 68.1808 140.677C68.4155 141.11 68.5328 141.608 68.5328 142.173C68.5328 142.73 68.4155 143.233 68.1808 143.68C67.9535 144.12 67.6308 144.468 67.2128 144.725C66.8022 144.982 66.3182 145.11 65.7608 145.11ZM65.7608 144.362C66.1422 144.362 66.4722 144.27 66.7508 144.087C67.0295 143.896 67.2458 143.636 67.3998 143.306C67.5538 142.976 67.6308 142.595 67.6308 142.162C67.6308 141.517 67.4585 141 67.1138 140.611C66.7765 140.222 66.3255 140.028 65.7608 140.028C65.2035 140.028 64.7525 140.222 64.4078 140.611C64.0632 141 63.8908 141.517 63.8908 142.162C63.8908 142.595 63.9678 142.976 64.1218 143.306C64.2758 143.636 64.4922 143.896 64.7708 144.087C65.0568 144.27 65.3868 144.362 65.7608 144.362ZM69.8527 145V139.39H70.6777V140.82H70.7327V145H69.8527ZM70.7327 142.074L70.5897 140.743C70.7217 140.266 70.9563 139.903 71.2937 139.654C71.631 139.405 72.0197 139.28 72.4597 139.28C72.643 139.28 72.7677 139.295 72.8337 139.324V140.171C72.797 140.156 72.7457 140.149 72.6797 140.149C72.6137 140.142 72.533 140.138 72.4377 140.138C71.8803 140.138 71.455 140.307 71.1617 140.644C70.8757 140.974 70.7327 141.451 70.7327 142.074ZM76.3506 145.099C75.7272 145.099 75.2726 144.96 74.9866 144.681C74.7079 144.395 74.5686 143.984 74.5686 143.449V138.081L75.4486 137.751V143.438C75.4486 143.753 75.5292 143.984 75.6906 144.131C75.8519 144.278 76.1159 144.351 76.4826 144.351C76.6292 144.351 76.7539 144.344 76.8566 144.329C76.9666 144.307 77.0546 144.281 77.1206 144.252V145C77.0472 145.029 76.9409 145.051 76.8016 145.066C76.6696 145.088 76.5192 145.099 76.3506 145.099ZM73.4136 140.138V139.39H77.1206V140.138H73.4136ZM83.8982 145C83.8689 144.875 83.8469 144.732 83.8322 144.571C83.8249 144.41 83.8212 144.204 83.8212 143.955H83.7662V141.271C83.7662 140.846 83.6672 140.534 83.4692 140.336C83.2785 140.131 82.9669 140.028 82.5342 140.028C82.1089 140.028 81.7679 140.116 81.5112 140.292C81.2619 140.461 81.1225 140.703 81.0932 141.018H80.2462C80.2829 140.475 80.5102 140.05 80.9282 139.742C81.3462 139.434 81.8925 139.28 82.5672 139.28C83.2639 139.28 83.7809 139.445 84.1182 139.775C84.4555 140.105 84.6242 140.6 84.6242 141.26V143.955C84.6242 144.116 84.6352 144.285 84.6572 144.461C84.6792 144.63 84.7085 144.809 84.7452 145H83.8982ZM81.9732 145.11C81.3939 145.11 80.9319 144.971 80.5872 144.692C80.2499 144.406 80.0812 144.017 80.0812 143.526C80.0812 143.035 80.2499 142.653 80.5872 142.382C80.9245 142.111 81.4159 141.92 82.0612 141.81L84.0192 141.48V142.206L82.1932 142.492C81.7825 142.558 81.4709 142.668 81.2582 142.822C81.0455 142.976 80.9392 143.2 80.9392 143.493C80.9392 143.779 81.0345 143.995 81.2252 144.142C81.4232 144.289 81.7129 144.362 82.0942 144.362C82.5855 144.362 82.9852 144.252 83.2932 144.032C83.6085 143.805 83.7662 143.511 83.7662 143.152L83.9092 143.933C83.7919 144.307 83.5609 144.597 83.2162 144.802C82.8789 145.007 82.4645 145.11 81.9732 145.11ZM86.3204 145V139.39H87.1454V140.71H87.2004V145H86.3204ZM90.3354 145V141.326C90.3354 140.901 90.2291 140.582 90.0164 140.369C89.8038 140.156 89.4884 140.05 89.0704 140.05C88.7038 140.05 88.3774 140.131 88.0914 140.292C87.8128 140.453 87.5928 140.677 87.4314 140.963C87.2774 141.249 87.2004 141.583 87.2004 141.964L87.0574 140.633C87.2481 140.215 87.5378 139.885 87.9264 139.643C88.3224 139.401 88.7698 139.28 89.2684 139.28C89.8551 139.28 90.3244 139.449 90.6764 139.786C91.0358 140.116 91.2154 140.552 91.2154 141.095V145H90.3354ZM96.9864 145V143.691L97.0964 143.724C96.9571 144.149 96.7004 144.487 96.3264 144.736C95.9597 144.985 95.5197 145.11 95.0064 145.11C94.5004 145.11 94.0567 144.989 93.6754 144.747C93.3014 144.505 93.0081 144.168 92.7954 143.735C92.5901 143.302 92.4874 142.796 92.4874 142.217C92.4874 141.63 92.5937 141.117 92.8064 140.677C93.0191 140.237 93.3161 139.896 93.6974 139.654C94.0787 139.412 94.5261 139.291 95.0394 139.291C95.5674 139.291 96.0111 139.419 96.3704 139.676C96.7297 139.933 96.9754 140.296 97.1074 140.765L96.9314 140.787V137.08H97.8114V145H96.9864ZM95.1714 144.34C95.7361 144.34 96.1761 144.149 96.4914 143.768C96.8141 143.379 96.9754 142.851 96.9754 142.184C96.9754 141.531 96.8141 141.014 96.4914 140.633C96.1687 140.252 95.7287 140.061 95.1714 140.061C94.6141 140.061 94.1777 140.252 93.8624 140.633C93.5471 141.014 93.3894 141.542 93.3894 142.217C93.3894 142.877 93.5471 143.398 93.8624 143.779C94.1777 144.153 94.6141 144.34 95.1714 144.34ZM104 145.11C103.487 145.11 103.029 144.985 102.625 144.736C102.229 144.479 101.914 144.131 101.679 143.691C101.452 143.244 101.338 142.738 101.338 142.173C101.338 141.608 101.452 141.11 101.679 140.677C101.914 140.244 102.229 139.903 102.625 139.654C103.029 139.405 103.483 139.28 103.989 139.28C104.407 139.28 104.781 139.361 105.111 139.522C105.449 139.683 105.724 139.914 105.936 140.215C106.156 140.508 106.296 140.853 106.354 141.249H105.54C105.467 140.89 105.298 140.596 105.034 140.369C104.77 140.142 104.429 140.028 104.011 140.028C103.652 140.028 103.34 140.116 103.076 140.292C102.812 140.468 102.607 140.717 102.46 141.04C102.314 141.363 102.24 141.74 102.24 142.173C102.24 142.606 102.314 142.987 102.46 143.317C102.607 143.647 102.812 143.904 103.076 144.087C103.348 144.27 103.663 144.362 104.022 144.362C104.426 144.362 104.763 144.252 105.034 144.032C105.306 143.805 105.478 143.511 105.551 143.152H106.365C106.299 143.541 106.153 143.885 105.925 144.186C105.705 144.479 105.43 144.707 105.1 144.868C104.77 145.029 104.404 145.11 104 145.11ZM111.065 145C111.036 144.875 111.014 144.732 110.999 144.571C110.992 144.41 110.988 144.204 110.988 143.955H110.933V141.271C110.933 140.846 110.834 140.534 110.636 140.336C110.446 140.131 110.134 140.028 109.701 140.028C109.276 140.028 108.935 140.116 108.678 140.292C108.429 140.461 108.29 140.703 108.26 141.018H107.413C107.45 140.475 107.677 140.05 108.095 139.742C108.513 139.434 109.06 139.28 109.734 139.28C110.431 139.28 110.948 139.445 111.285 139.775C111.623 140.105 111.791 140.6 111.791 141.26V143.955C111.791 144.116 111.802 144.285 111.824 144.461C111.846 144.63 111.876 144.809 111.912 145H111.065ZM109.14 145.11C108.561 145.11 108.099 144.971 107.754 144.692C107.417 144.406 107.248 144.017 107.248 143.526C107.248 143.035 107.417 142.653 107.754 142.382C108.092 142.111 108.583 141.92 109.228 141.81L111.186 141.48V142.206L109.36 142.492C108.95 142.558 108.638 142.668 108.425 142.822C108.213 142.976 108.106 143.2 108.106 143.493C108.106 143.779 108.202 143.995 108.392 144.142C108.59 144.289 108.88 144.362 109.261 144.362C109.753 144.362 110.152 144.252 110.46 144.032C110.776 143.805 110.933 143.511 110.933 143.152L111.076 143.933C110.959 144.307 110.728 144.597 110.383 144.802C110.046 145.007 109.632 145.11 109.14 145.11ZM113.487 145V139.39H114.312V140.82H114.367V145H113.487ZM114.367 142.074L114.224 140.743C114.356 140.266 114.591 139.903 114.928 139.654C115.266 139.405 115.654 139.28 116.094 139.28C116.278 139.28 116.402 139.295 116.468 139.324V140.171C116.432 140.156 116.38 140.149 116.314 140.149C116.248 140.142 116.168 140.138 116.072 140.138C115.515 140.138 115.09 140.307 114.796 140.644C114.51 140.974 114.367 141.451 114.367 142.074ZM119.718 145.11C119.183 145.11 118.71 144.985 118.299 144.736C117.888 144.479 117.566 144.131 117.331 143.691C117.096 143.251 116.979 142.745 116.979 142.173C116.979 141.601 117.093 141.099 117.32 140.666C117.555 140.226 117.881 139.885 118.299 139.643C118.717 139.401 119.197 139.28 119.74 139.28C120.261 139.28 120.712 139.394 121.093 139.621C121.482 139.848 121.779 140.167 121.984 140.578C122.197 140.989 122.303 141.473 122.303 142.03C122.303 142.103 122.299 142.173 122.292 142.239C122.292 142.305 122.285 142.378 122.27 142.459H117.639V141.722H121.731L121.445 142.129C121.445 141.454 121.295 140.937 120.994 140.578C120.701 140.211 120.283 140.028 119.74 140.028C119.183 140.028 118.732 140.222 118.387 140.611C118.05 140.992 117.881 141.509 117.881 142.162C117.881 142.829 118.05 143.365 118.387 143.768C118.732 144.164 119.19 144.362 119.762 144.362C120.121 144.362 120.437 144.285 120.708 144.131C120.979 143.97 121.177 143.742 121.302 143.449H122.138C121.955 143.962 121.647 144.369 121.214 144.67C120.789 144.963 120.29 145.11 119.718 145.11ZM128.052 145.11C127.539 145.11 127.081 144.985 126.677 144.736C126.281 144.479 125.966 144.131 125.731 143.691C125.504 143.244 125.39 142.738 125.39 142.173C125.39 141.608 125.504 141.11 125.731 140.677C125.966 140.244 126.281 139.903 126.677 139.654C127.081 139.405 127.535 139.28 128.041 139.28C128.459 139.28 128.833 139.361 129.163 139.522C129.501 139.683 129.776 139.914 129.988 140.215C130.208 140.508 130.348 140.853 130.406 141.249H129.592C129.519 140.89 129.35 140.596 129.086 140.369C128.822 140.142 128.481 140.028 128.063 140.028C127.704 140.028 127.392 140.116 127.128 140.292C126.864 140.468 126.659 140.717 126.512 141.04C126.366 141.363 126.292 141.74 126.292 142.173C126.292 142.606 126.366 142.987 126.512 143.317C126.659 143.647 126.864 143.904 127.128 144.087C127.4 144.27 127.715 144.362 128.074 144.362C128.478 144.362 128.815 144.252 129.086 144.032C129.358 143.805 129.53 143.511 129.603 143.152H130.417C130.351 143.541 130.205 143.885 129.977 144.186C129.757 144.479 129.482 144.707 129.152 144.868C128.822 145.029 128.456 145.11 128.052 145.11ZM134.006 145.11C133.456 145.11 132.972 144.982 132.554 144.725C132.136 144.468 131.81 144.12 131.575 143.68C131.348 143.233 131.234 142.73 131.234 142.173C131.234 141.608 131.351 141.11 131.586 140.677C131.821 140.244 132.143 139.903 132.554 139.654C132.972 139.405 133.456 139.28 134.006 139.28C134.563 139.28 135.047 139.405 135.458 139.654C135.876 139.903 136.199 140.244 136.426 140.677C136.661 141.11 136.778 141.608 136.778 142.173C136.778 142.73 136.661 143.233 136.426 143.68C136.199 144.12 135.876 144.468 135.458 144.725C135.047 144.982 134.563 145.11 134.006 145.11ZM134.006 144.362C134.387 144.362 134.717 144.27 134.996 144.087C135.275 143.896 135.491 143.636 135.645 143.306C135.799 142.976 135.876 142.595 135.876 142.162C135.876 141.517 135.704 141 135.359 140.611C135.022 140.222 134.571 140.028 134.006 140.028C133.449 140.028 132.998 140.222 132.653 140.611C132.308 141 132.136 141.517 132.136 142.162C132.136 142.595 132.213 142.976 132.367 143.306C132.521 143.636 132.737 143.896 133.016 144.087C133.302 144.27 133.632 144.362 134.006 144.362ZM140.43 145.11C139.88 145.11 139.396 144.982 138.978 144.725C138.56 144.468 138.233 144.12 137.999 143.68C137.771 143.233 137.658 142.73 137.658 142.173C137.658 141.608 137.775 141.11 138.01 140.677C138.244 140.244 138.567 139.903 138.978 139.654C139.396 139.405 139.88 139.28 140.43 139.28C140.987 139.28 141.471 139.405 141.882 139.654C142.3 139.903 142.622 140.244 142.85 140.677C143.084 141.11 143.202 141.608 143.202 142.173C143.202 142.73 143.084 143.233 142.85 143.68C142.622 144.12 142.3 144.468 141.882 144.725C141.471 144.982 140.987 145.11 140.43 145.11ZM140.43 144.362C140.811 144.362 141.141 144.27 141.42 144.087C141.698 143.896 141.915 143.636 142.069 143.306C142.223 142.976 142.3 142.595 142.3 142.162C142.3 141.517 142.127 141 141.783 140.611C141.445 140.222 140.994 140.028 140.43 140.028C139.872 140.028 139.421 140.222 139.077 140.611C138.732 141 138.56 141.517 138.56 142.162C138.56 142.595 138.637 142.976 138.791 143.306C138.945 143.636 139.161 143.896 139.44 144.087C139.726 144.27 140.056 144.362 140.43 144.362ZM144.522 145V139.39H145.347V140.82H145.402V145H144.522ZM145.402 142.074L145.259 140.743C145.391 140.266 145.625 139.903 145.963 139.654C146.3 139.405 146.689 139.28 147.129 139.28C147.312 139.28 147.437 139.295 147.503 139.324V140.171C147.466 140.156 147.415 140.149 147.349 140.149C147.283 140.142 147.202 140.138 147.107 140.138C146.549 140.138 146.124 140.307 145.831 140.644C145.545 140.974 145.402 141.451 145.402 142.074ZM152.545 145V143.691L152.655 143.724C152.516 144.149 152.259 144.487 151.885 144.736C151.518 144.985 151.078 145.11 150.565 145.11C150.059 145.11 149.615 144.989 149.234 144.747C148.86 144.505 148.567 144.168 148.354 143.735C148.149 143.302 148.046 142.796 148.046 142.217C148.046 141.63 148.152 141.117 148.365 140.677C148.578 140.237 148.875 139.896 149.256 139.654C149.637 139.412 150.085 139.291 150.598 139.291C151.126 139.291 151.57 139.419 151.929 139.676C152.288 139.933 152.534 140.296 152.666 140.765L152.49 140.787V137.08H153.37V145H152.545ZM150.73 144.34C151.295 144.34 151.735 144.149 152.05 143.768C152.373 143.379 152.534 142.851 152.534 142.184C152.534 141.531 152.373 141.014 152.05 140.633C151.727 140.252 151.287 140.061 150.73 140.061C150.173 140.061 149.736 140.252 149.421 140.633C149.106 141.014 148.948 141.542 148.948 142.217C148.948 142.877 149.106 143.398 149.421 143.779C149.736 144.153 150.173 144.34 150.73 144.34ZM155.135 145V139.39H156.015V145H155.135ZM155.069 138.114V137.08H156.081V138.114H155.069ZM157.777 145V139.39H158.602V140.71H158.657V145H157.777ZM161.792 145V141.326C161.792 140.901 161.686 140.582 161.473 140.369C161.261 140.156 160.945 140.05 160.527 140.05C160.161 140.05 159.834 140.131 159.548 140.292C159.27 140.453 159.05 140.677 158.888 140.963C158.734 141.249 158.657 141.583 158.657 141.964L158.514 140.633C158.705 140.215 158.995 139.885 159.383 139.643C159.779 139.401 160.227 139.28 160.725 139.28C161.312 139.28 161.781 139.449 162.133 139.786C162.493 140.116 162.672 140.552 162.672 141.095V145H161.792ZM167.773 145C167.744 144.875 167.722 144.732 167.707 144.571C167.7 144.41 167.696 144.204 167.696 143.955H167.641V141.271C167.641 140.846 167.542 140.534 167.344 140.336C167.154 140.131 166.842 140.028 166.409 140.028C165.984 140.028 165.643 140.116 165.386 140.292C165.137 140.461 164.998 140.703 164.968 141.018H164.121C164.158 140.475 164.385 140.05 164.803 139.742C165.221 139.434 165.768 139.28 166.442 139.28C167.139 139.28 167.656 139.445 167.993 139.775C168.331 140.105 168.499 140.6 168.499 141.26V143.955C168.499 144.116 168.51 144.285 168.532 144.461C168.554 144.63 168.584 144.809 168.62 145H167.773ZM165.848 145.11C165.269 145.11 164.807 144.971 164.462 144.692C164.125 144.406 163.956 144.017 163.956 143.526C163.956 143.035 164.125 142.653 164.462 142.382C164.8 142.111 165.291 141.92 165.936 141.81L167.894 141.48V142.206L166.068 142.492C165.658 142.558 165.346 142.668 165.133 142.822C164.921 142.976 164.814 143.2 164.814 143.493C164.814 143.779 164.91 143.995 165.1 144.142C165.298 144.289 165.588 144.362 165.969 144.362C166.461 144.362 166.86 144.252 167.168 144.032C167.484 143.805 167.641 143.511 167.641 143.152L167.784 143.933C167.667 144.307 167.436 144.597 167.091 144.802C166.754 145.007 166.34 145.11 165.848 145.11ZM172.289 145.099C171.666 145.099 171.211 144.96 170.925 144.681C170.646 144.395 170.507 143.984 170.507 143.449V138.081L171.387 137.751V143.438C171.387 143.753 171.468 143.984 171.629 144.131C171.79 144.278 172.054 144.351 172.421 144.351C172.568 144.351 172.692 144.344 172.795 144.329C172.905 144.307 172.993 144.281 173.059 144.252V145C172.986 145.029 172.879 145.051 172.74 145.066C172.608 145.088 172.458 145.099 172.289 145.099ZM169.352 140.138V139.39H173.059V140.138H169.352ZM174.192 145V139.39H175.072V145H174.192ZM174.126 138.114V137.08H175.138V138.114H174.126ZM179.145 145.11C178.595 145.11 178.111 144.982 177.693 144.725C177.275 144.468 176.948 144.12 176.714 143.68C176.486 143.233 176.373 142.73 176.373 142.173C176.373 141.608 176.49 141.11 176.725 140.677C176.959 140.244 177.282 139.903 177.693 139.654C178.111 139.405 178.595 139.28 179.145 139.28C179.702 139.28 180.186 139.405 180.597 139.654C181.015 139.903 181.337 140.244 181.565 140.677C181.799 141.11 181.917 141.608 181.917 142.173C181.917 142.73 181.799 143.233 181.565 143.68C181.337 144.12 181.015 144.468 180.597 144.725C180.186 144.982 179.702 145.11 179.145 145.11ZM179.145 144.362C179.526 144.362 179.856 144.27 180.135 144.087C180.413 143.896 180.63 143.636 180.784 143.306C180.938 142.976 181.015 142.595 181.015 142.162C181.015 141.517 180.842 141 180.498 140.611C180.16 140.222 179.709 140.028 179.145 140.028C178.587 140.028 178.136 140.222 177.792 140.611C177.447 141 177.275 141.517 177.275 142.162C177.275 142.595 177.352 142.976 177.506 143.306C177.66 143.636 177.876 143.896 178.155 144.087C178.441 144.27 178.771 144.362 179.145 144.362ZM183.236 145V139.39H184.061V140.71H184.116V145H183.236ZM187.251 145V141.326C187.251 140.901 187.145 140.582 186.932 140.369C186.72 140.156 186.404 140.05 185.986 140.05C185.62 140.05 185.293 140.131 185.007 140.292C184.729 140.453 184.509 140.677 184.347 140.963C184.193 141.249 184.116 141.583 184.116 141.964L183.973 140.633C184.164 140.215 184.454 139.885 184.842 139.643C185.238 139.401 185.686 139.28 186.184 139.28C186.771 139.28 187.24 139.449 187.592 139.786C187.952 140.116 188.131 140.552 188.131 141.095V145H187.251Z" fill="black"/>
<path d="M111.773 78.6481C111.484 78.6502 111.205 78.5458 110.988 78.3548C110.771 78.1639 110.632 77.8997 110.597 77.6128V21.4498C110.597 21.1377 110.721 20.8385 110.941 20.6179C111.162 20.3973 111.461 20.2733 111.773 20.2733C112.085 20.2733 112.385 20.3973 112.605 20.6179C112.826 20.8385 112.95 21.1377 112.95 21.4498V77.6128C112.915 77.8997 112.776 78.1639 112.559 78.3548C112.342 78.5458 112.062 78.6502 111.773 78.6481Z" fill="black"/>
<path d="M110.773 63.3661L109.174 62.7661C106.689 61.8754 104.265 60.8262 101.915 59.625C96.9739 57.0133 92.2211 48.3901 92.0211 48.0254L90.7388 45.6725L93.3152 45.1196C93.574 45.049 99.8091 43.5549 107.515 48.4959C114.679 53.084 112.915 59.7662 111.632 61.9426L110.773 63.3661ZM94.3034 47.2725C95.2328 48.8959 99.2326 55.5075 103.044 57.5663C105.216 58.6696 107.451 59.6438 109.738 60.4838C110.279 59.3074 112.268 54.2722 106.209 50.4253C100.15 46.5783 95.6445 47.0489 94.2798 47.2725H94.3034Z" fill="black"/>
<path d="M112.326 63.3661L111.468 61.8955C110.173 59.7309 108.385 53.0605 115.585 48.4489C123.161 43.5902 129.126 44.9195 129.785 45.0725L132.361 45.7195L131.079 48.0724C130.879 48.4371 126.126 57.0604 121.185 59.672C118.836 60.854 116.416 61.8874 113.938 62.7661L112.326 63.3661ZM127.067 47.143C123.43 47.2357 119.897 48.3754 116.891 50.4253C110.903 54.2722 112.867 59.3427 113.362 60.4838C115.649 59.646 117.885 58.6717 120.055 57.5662C123.867 55.5545 127.867 48.8841 128.796 47.2724C128.224 47.1854 127.646 47.1422 127.067 47.143Z" fill="black"/>
<path d="M111.009 44.2373L109.538 43.7196C107.508 42.9764 105.524 42.1121 103.597 41.1315C99.5973 39.0257 95.8563 32.3553 95.4445 31.6023L94.2681 29.4612L96.6209 28.8612C96.8445 28.8024 101.997 27.5554 108.385 31.6376C114.373 35.4728 112.891 41.0491 111.82 42.8844L111.009 44.2373ZM97.8327 31.0024C99.2562 33.4729 102.138 37.6728 104.703 39.0139C106.401 39.9079 108.153 40.6938 109.95 41.3668C110.479 40.1903 111.62 36.5198 107.103 33.6258C104.409 31.7058 101.133 30.7787 97.8327 31.0024Z" fill="black"/>
<path d="M112.091 44.2373L111.291 42.8844C110.209 41.0727 108.703 35.4964 114.726 31.6377C120.961 27.6378 125.914 28.7201 126.491 28.8613L128.844 29.4613L127.667 31.6024C127.255 32.3553 123.514 39.0257 119.514 41.1315C117.607 42.1107 115.643 42.975 113.632 43.7197L112.091 44.2373ZM124.161 31.0024C121.243 31.0779 118.409 31.9928 115.997 33.6376C111.491 36.5316 112.62 40.1904 113.162 41.3786C114.953 40.7006 116.701 39.9149 118.397 39.0257C120.961 37.6845 123.844 33.4847 125.267 31.0142C124.899 30.9877 124.53 30.9838 124.161 31.0024Z" fill="black"/>
<path d="M111.009 26.6142L109.538 26.0848C107.507 25.3483 105.523 24.4879 103.597 23.5084C99.5973 21.4026 95.8563 14.7322 95.4445 13.9793L94.2681 11.8382L96.6209 11.2382C96.8445 11.2382 101.997 9.93237 108.385 14.0146C114.373 17.8498 112.891 23.4261 111.82 25.2613L111.009 26.6142ZM97.8327 13.4146C99.2562 15.8851 102.138 20.085 104.703 21.4261C106.401 22.3202 108.153 23.106 109.95 23.779C110.479 22.6026 111.62 18.9321 107.103 16.0381C104.412 14.1127 101.134 13.185 97.8327 13.4146Z" fill="black"/>
<path d="M112.091 26.6142L111.291 25.2613C110.209 23.4496 108.703 17.8733 114.726 14.0146C120.961 10.0147 125.914 11.0971 126.491 11.2382L128.844 11.8382L127.667 13.9793C127.255 14.7322 123.514 21.4026 119.514 23.5085C117.608 24.4863 115.644 25.3467 113.632 26.0849L112.091 26.6142ZM124.161 13.3558C121.242 13.4368 118.408 14.3557 115.997 16.0028C111.491 18.8968 112.62 22.5555 113.162 23.7437C114.95 23.0606 116.698 22.275 118.397 21.3909C120.961 20.0497 123.844 15.8499 125.267 13.3793C124.899 13.348 124.53 13.3402 124.161 13.3558Z" fill="black"/>
<path d="M136.479 111H116.479V105.118C116.479 104.471 115.244 86.9066 128.491 77.1069C130.156 75.9163 131.683 74.5431 133.043 73.0129L148.266 55.3664C149.172 54.3111 150.423 53.6108 151.796 53.39V26.2967C151.794 24.7843 152.375 23.3294 153.418 22.2341C154.46 21.1387 155.885 20.4871 157.396 20.4145C158.171 20.3811 158.946 20.5057 159.672 20.7807C160.398 21.0558 161.06 21.4755 161.619 22.0144C162.228 22.6056 162.712 23.3134 163.041 24.0956C163.371 24.8779 163.539 25.7185 163.537 26.5672V61.8603C163.539 63.5539 163.669 65.2449 163.925 66.919C164.442 70.4483 164.631 77.2481 159.96 82.448C153.49 89.683 148.008 95.2476 142.208 101.13L139.655 103.694L136.479 105.753V111ZM118.832 108.647H134.126V104.483L138.22 101.8L140.502 99.4474C146.278 93.5653 151.737 88.036 158.148 80.8245C162.184 76.3422 161.995 70.3777 161.537 67.2131C161.288 65.436 161.17 63.643 161.184 61.8486V26.5555C161.189 26.028 161.087 25.505 160.885 25.0178C160.683 24.5307 160.384 24.0893 160.007 23.7203C159.68 23.4017 159.291 23.153 158.864 22.9892C158.437 22.8254 157.982 22.7499 157.525 22.7674C156.612 22.8009 155.747 23.1874 155.113 23.8457C154.478 24.504 154.124 25.3826 154.125 26.2967V53.5429C154.994 53.7733 155.799 54.1999 156.478 54.7899C157.064 55.2886 157.545 55.8992 157.893 56.586C158.24 57.2729 158.447 58.0221 158.501 58.7898C158.501 58.9428 158.501 59.0839 158.501 59.2369C158.501 60.65 157.991 62.0155 157.066 63.0838L141.514 81.2362C141.306 81.4609 141.02 81.596 140.714 81.6129C140.409 81.6298 140.109 81.5272 139.878 81.3269C139.647 81.1265 139.503 80.8442 139.477 80.5396C139.451 80.235 139.544 79.9321 139.737 79.6951L155.419 61.5897C155.99 60.9409 156.297 60.1011 156.278 59.2369V59.0016C156.204 58.095 155.782 57.2521 155.102 56.6487C154.519 56.0882 153.756 55.7544 152.949 55.7076H152.713C152.216 55.7069 151.724 55.8114 151.27 56.0141C150.816 56.2169 150.41 56.5133 150.078 56.884L134.855 74.5305C133.381 76.1904 131.728 77.6818 129.926 78.9775C117.738 88.0125 118.832 104.859 118.832 105.024V108.647Z" fill="black"/>
<path d="M107.703 111H87.7035V105.753L84.3742 103.53L82.0213 101.177C76.2215 95.2946 70.7393 89.7301 64.2336 82.4832C59.5279 77.2834 59.7397 70.5189 60.269 66.9543C60.5155 65.2792 60.6413 63.5887 60.6455 61.8956V26.6025C60.645 25.7473 60.8177 24.9009 61.1534 24.1144C61.489 23.3279 61.9806 22.6175 62.5984 22.0262C63.1545 21.486 63.8146 21.0646 64.5386 20.7876C65.2626 20.5105 66.0354 20.3835 66.81 20.4145C68.2689 20.4756 69.6511 21.0847 70.6805 22.1203C71.2299 22.668 71.6656 23.319 71.9624 24.0357C72.2592 24.7525 72.4113 25.5209 72.4099 26.2966V53.4488C73.783 53.6696 75.0334 54.3699 75.9392 55.4252L91.1623 73.0717C92.5225 74.6019 94.0496 75.9751 95.7151 77.1657C108.962 86.9654 107.774 104.53 107.715 105.271L107.703 111ZM90.0564 108.647H105.35V105.118C105.35 104.859 106.527 88.0125 94.3033 79.001C92.5138 77.6982 90.8761 76.1987 89.4211 74.5305L74.1275 56.9546C73.7946 56.5824 73.3865 56.2851 72.9302 56.0823C72.4739 55.8795 71.9798 55.7758 71.4805 55.7781H71.2687C70.4872 55.812 69.7404 56.1107 69.1511 56.6252C68.4704 57.2285 68.049 58.0714 67.9747 58.978C67.9747 59.0721 67.9747 59.1545 67.9747 59.2486C67.9534 60.1055 68.2511 60.9398 68.81 61.5897L84.4919 79.6951C84.685 79.9321 84.7783 80.2349 84.752 80.5395C84.7256 80.8441 84.5818 81.1265 84.3508 81.3269C84.1199 81.5272 83.82 81.6298 83.5148 81.6129C83.2095 81.596 82.9228 81.4608 82.7154 81.2362L67.0688 63.1191C66.1189 62.0485 65.5918 60.6682 65.5865 59.2368C65.5865 59.0839 65.5865 58.9427 65.5865 58.7898C65.7036 57.2375 66.4313 55.7949 67.61 54.7782C68.304 54.1686 69.1357 53.7366 70.0335 53.5194V26.2966C70.0346 25.8313 69.9437 25.3704 69.7661 24.9404C69.5884 24.5103 69.3274 24.1196 68.9982 23.7908C68.3701 23.1666 67.5303 22.8012 66.6453 22.7673C66.1875 22.7493 65.7309 22.8257 65.3039 22.9917C64.8769 23.1576 64.4886 23.4096 64.1631 23.732C63.7867 24.1015 63.4886 24.5429 63.2865 25.03C63.0844 25.5171 62.9824 26.0399 62.9866 26.5672V61.8603C62.9867 63.6676 62.853 65.4725 62.5866 67.2601C62.1161 70.4248 61.9396 76.3893 65.9748 80.8715C72.4452 88.0831 77.9038 93.6241 83.6801 99.4945L85.9624 101.847L90.0446 104.53L90.0564 108.647Z" fill="black"/>
</svg>
