<svg width="226" height="168" viewBox="0 0 226 168" fill="none" xmlns="http://www.w3.org/2000/svg">
<path d="M11.1732 148V138.64H12.2392V148H11.1732ZM17.4392 148V138.64H18.5052V148H17.4392ZM11.7192 142.657H17.9072V143.593H11.7192V142.657ZM20.6674 148V141.37H21.7074V148H20.6674ZM20.5894 139.862V138.64H21.7854V139.862H20.5894ZM26.4041 150.795C25.6154 150.795 24.9568 150.609 24.4281 150.236C23.9081 149.872 23.5918 149.387 23.4791 148.78H24.4671C24.5624 149.127 24.7748 149.4 25.1041 149.599C25.4421 149.807 25.8971 149.911 26.4691 149.911C27.1451 149.911 27.6564 149.725 28.0031 149.352C28.3498 148.988 28.5231 148.451 28.5231 147.74V146.323L28.6531 146.349C28.5058 146.852 28.2111 147.255 27.7691 147.558C27.3271 147.853 26.8028 148 26.1961 148C25.6154 148 25.1041 147.861 24.6621 147.584C24.2201 147.298 23.8778 146.904 23.6351 146.401C23.3924 145.898 23.2711 145.313 23.2711 144.646C23.2711 143.97 23.3968 143.376 23.6481 142.865C23.8994 142.354 24.2504 141.959 24.7011 141.682C25.1604 141.396 25.6934 141.253 26.3001 141.253C26.9241 141.253 27.4441 141.405 27.8601 141.708C28.2848 142.011 28.5664 142.445 28.7051 143.008L28.5881 143.021V141.37H29.5631V147.74C29.5631 148.685 29.2814 149.43 28.7181 149.976C28.1548 150.522 27.3834 150.795 26.4041 150.795ZM26.4561 147.103C27.1061 147.103 27.6218 146.878 28.0031 146.427C28.3844 145.976 28.5751 145.365 28.5751 144.594C28.5751 143.84 28.3844 143.246 28.0031 142.813C27.6218 142.371 27.1061 142.15 26.4561 142.15C25.7974 142.15 25.2774 142.371 24.8961 142.813C24.5234 143.255 24.3371 143.862 24.3371 144.633C24.3371 145.387 24.5278 145.989 24.9091 146.44C25.2904 146.882 25.8061 147.103 26.4561 147.103ZM31.6489 148V138.64H32.6889V148H31.6489ZM36.3939 148V143.658C36.3939 143.155 36.2682 142.778 36.0169 142.527C35.7656 142.276 35.3929 142.15 34.8989 142.15C34.4656 142.15 34.0799 142.245 33.7419 142.436C33.4126 142.627 33.1526 142.891 32.9619 143.229C32.7799 143.567 32.6889 143.961 32.6889 144.412L32.5199 142.839C32.7452 142.345 33.0876 141.955 33.5469 141.669C34.0149 141.383 34.5436 141.24 35.1329 141.24C35.8262 141.24 36.3809 141.439 36.7969 141.838C37.2216 142.228 37.4339 142.744 37.4339 143.385V148H36.3939ZM38.8471 144.958V143.97H43.3451V144.958H38.8471ZM45.4233 148V141.37H46.3983V143.06H46.4633V148H45.4233ZM46.4633 144.542L46.2943 142.969C46.4503 142.406 46.7276 141.977 47.1263 141.682C47.525 141.387 47.9843 141.24 48.5043 141.24C48.721 141.24 48.8683 141.257 48.9463 141.292V142.293C48.903 142.276 48.8423 142.267 48.7643 142.267C48.6863 142.258 48.591 142.254 48.4783 142.254C47.8196 142.254 47.317 142.453 46.9703 142.852C46.6323 143.242 46.4633 143.805 46.4633 144.542ZM50.184 148V141.37H51.224V148H50.184ZM50.106 139.862V138.64H51.302V139.862H50.106ZM55.5561 148.13C54.7414 148.13 54.0914 147.944 53.6061 147.571C53.1208 147.19 52.8434 146.652 52.7741 145.959H53.7751C53.8358 146.384 54.0221 146.709 54.3341 146.934C54.6461 147.159 55.0621 147.272 55.5821 147.272C56.0414 147.272 56.4011 147.185 56.6611 147.012C56.9211 146.839 57.0511 146.592 57.0511 146.271C57.0511 146.046 56.9774 145.851 56.8301 145.686C56.6828 145.513 56.3881 145.37 55.9461 145.257L54.8801 144.984C54.2734 144.828 53.8184 144.59 53.5151 144.269C53.2118 143.94 53.0601 143.55 53.0601 143.099C53.0601 142.527 53.2724 142.076 53.6971 141.747C54.1218 141.409 54.6981 141.24 55.4261 141.24C56.1454 141.24 56.7304 141.413 57.1811 141.76C57.6318 142.107 57.8874 142.588 57.9481 143.203H56.9471C56.8864 142.848 56.7218 142.575 56.4531 142.384C56.1844 142.193 55.8291 142.098 55.3871 142.098C54.9624 142.098 54.6331 142.18 54.3991 142.345C54.1651 142.501 54.0481 142.726 54.0481 143.021C54.0481 143.246 54.1304 143.441 54.2951 143.606C54.4684 143.771 54.7544 143.909 55.1531 144.022L56.1931 144.308C56.8084 144.473 57.2721 144.724 57.5841 145.062C57.8961 145.4 58.0521 145.807 58.0521 146.284C58.0521 146.865 57.8311 147.32 57.3891 147.649C56.9471 147.97 56.3361 148.13 55.5561 148.13ZM59.4516 148V138.38H60.4916V148H59.4516ZM63.7806 148L60.2576 144.555L63.6506 141.37H65.0806L61.2716 144.854L61.3366 144.243L65.2106 148H63.7806ZM72.2872 148.117C71.6632 148.117 71.1389 147.965 70.7142 147.662C70.2895 147.359 69.9992 146.93 69.8432 146.375L70.0512 146.349V150.665H69.0112V141.37H69.9862V142.917L69.8432 142.878C70.0079 142.367 70.3199 141.968 70.7792 141.682C71.2385 141.387 71.7715 141.24 72.3782 141.24C72.9675 141.24 73.4789 141.383 73.9122 141.669C74.3542 141.955 74.6965 142.354 74.9392 142.865C75.1819 143.376 75.3032 143.974 75.3032 144.659C75.3032 145.352 75.1775 145.959 74.9262 146.479C74.6749 146.999 74.3239 147.402 73.8732 147.688C73.4225 147.974 72.8939 148.117 72.2872 148.117ZM72.1312 147.207C72.7899 147.207 73.3055 146.982 73.6782 146.531C74.0509 146.072 74.2372 145.448 74.2372 144.659C74.2372 143.879 74.0509 143.268 73.6782 142.826C73.3055 142.375 72.7899 142.15 72.1312 142.15C71.4725 142.15 70.9525 142.38 70.5712 142.839C70.1899 143.29 69.9992 143.909 69.9992 144.698C69.9992 145.469 70.1899 146.08 70.5712 146.531C70.9525 146.982 71.4725 147.207 72.1312 147.207ZM76.895 148V141.37H77.87V143.06H77.935V148H76.895ZM77.935 144.542L77.766 142.969C77.922 142.406 78.1993 141.977 78.598 141.682C78.9966 141.387 79.456 141.24 79.976 141.24C80.1926 141.24 80.34 141.257 80.418 141.292V142.293C80.3746 142.276 80.314 142.267 80.236 142.267C80.158 142.258 80.0626 142.254 79.95 142.254C79.2913 142.254 78.7886 142.453 78.442 142.852C78.104 143.242 77.935 143.805 77.935 144.542ZM84.2585 148.13C83.6258 148.13 83.0668 147.983 82.5815 147.688C82.0961 147.385 81.7148 146.973 81.4375 146.453C81.1601 145.933 81.0215 145.335 81.0215 144.659C81.0215 143.983 81.1558 143.389 81.4245 142.878C81.7018 142.358 82.0875 141.955 82.5815 141.669C83.0755 141.383 83.6431 141.24 84.2845 141.24C84.8998 141.24 85.4328 141.374 85.8835 141.643C86.3428 141.912 86.6938 142.289 86.9365 142.774C87.1878 143.259 87.3135 143.831 87.3135 144.49C87.3135 144.577 87.3091 144.659 87.3005 144.737C87.3005 144.815 87.2918 144.902 87.2745 144.997H81.8015V144.126H86.6375L86.2995 144.607C86.2995 143.81 86.1218 143.199 85.7665 142.774C85.4198 142.341 84.9258 142.124 84.2845 142.124C83.6258 142.124 83.0928 142.354 82.6855 142.813C82.2868 143.264 82.0875 143.875 82.0875 144.646C82.0875 145.435 82.2868 146.067 82.6855 146.544C83.0928 147.012 83.6345 147.246 84.3105 147.246C84.7351 147.246 85.1078 147.155 85.4285 146.973C85.7491 146.782 85.9831 146.514 86.1305 146.167H87.1185C86.9018 146.774 86.5378 147.255 86.0265 147.61C85.5238 147.957 84.9345 148.13 84.2585 148.13ZM91.5184 150.795C90.7297 150.795 90.071 150.609 89.5424 150.236C89.0224 149.872 88.706 149.387 88.5934 148.78H89.5814C89.6767 149.127 89.889 149.4 90.2184 149.599C90.5564 149.807 91.0114 149.911 91.5834 149.911C92.2594 149.911 92.7707 149.725 93.1174 149.352C93.464 148.988 93.6374 148.451 93.6374 147.74V146.323L93.7674 146.349C93.62 146.852 93.3254 147.255 92.8834 147.558C92.4414 147.853 91.917 148 91.3104 148C90.7297 148 90.2184 147.861 89.7764 147.584C89.3344 147.298 88.992 146.904 88.7494 146.401C88.5067 145.898 88.3854 145.313 88.3854 144.646C88.3854 143.97 88.511 143.376 88.7624 142.865C89.0137 142.354 89.3647 141.959 89.8154 141.682C90.2747 141.396 90.8077 141.253 91.4144 141.253C92.0384 141.253 92.5584 141.405 92.9744 141.708C93.399 142.011 93.6807 142.445 93.8194 143.008L93.7024 143.021V141.37H94.6774V147.74C94.6774 148.685 94.3957 149.43 93.8324 149.976C93.269 150.522 92.4977 150.795 91.5184 150.795ZM91.5704 147.103C92.2204 147.103 92.736 146.878 93.1174 146.427C93.4987 145.976 93.6894 145.365 93.6894 144.594C93.6894 143.84 93.4987 143.246 93.1174 142.813C92.736 142.371 92.2204 142.15 91.5704 142.15C90.9117 142.15 90.3917 142.371 90.0104 142.813C89.6377 143.255 89.4514 143.862 89.4514 144.633C89.4514 145.387 89.642 145.989 90.0234 146.44C90.4047 146.882 90.9204 147.103 91.5704 147.103ZM96.7631 148V141.37H97.7381V142.93H97.8031V148H96.7631ZM101.508 148V143.658C101.508 143.155 101.382 142.778 101.131 142.527C100.88 142.276 100.507 142.15 100.013 142.15C99.5798 142.15 99.1941 142.245 98.8561 142.436C98.5268 142.627 98.2668 142.891 98.0761 143.229C97.8941 143.567 97.8031 143.961 97.8031 144.412L97.6341 142.839C97.8595 142.345 98.2018 141.955 98.6611 141.669C99.1291 141.383 99.6578 141.24 100.247 141.24C100.94 141.24 101.495 141.439 101.911 141.838C102.336 142.228 102.548 142.744 102.548 143.385V148H101.508ZM108.576 148C108.542 147.853 108.516 147.684 108.498 147.493C108.49 147.302 108.485 147.06 108.485 146.765H108.42V143.593C108.42 143.09 108.303 142.722 108.069 142.488C107.844 142.245 107.476 142.124 106.964 142.124C106.462 142.124 106.059 142.228 105.755 142.436C105.461 142.635 105.296 142.921 105.261 143.294H104.26C104.304 142.653 104.572 142.15 105.066 141.786C105.56 141.422 106.206 141.24 107.003 141.24C107.827 141.24 108.438 141.435 108.836 141.825C109.235 142.215 109.434 142.8 109.434 143.58V146.765C109.434 146.956 109.447 147.155 109.473 147.363C109.499 147.562 109.534 147.775 109.577 148H108.576ZM106.301 148.13C105.617 148.13 105.071 147.965 104.663 147.636C104.265 147.298 104.065 146.839 104.065 146.258C104.065 145.677 104.265 145.227 104.663 144.906C105.062 144.585 105.643 144.36 106.405 144.23L108.719 143.84V144.698L106.561 145.036C106.076 145.114 105.708 145.244 105.456 145.426C105.205 145.608 105.079 145.872 105.079 146.219C105.079 146.557 105.192 146.813 105.417 146.986C105.651 147.159 105.994 147.246 106.444 147.246C107.025 147.246 107.497 147.116 107.861 146.856C108.234 146.587 108.42 146.241 108.42 145.816L108.589 146.739C108.451 147.181 108.178 147.523 107.77 147.766C107.372 148.009 106.882 148.13 106.301 148.13ZM111.439 148V141.37H112.414V142.93H112.479V148H111.439ZM116.184 148V143.658C116.184 143.155 116.058 142.778 115.807 142.527C115.556 142.276 115.183 142.15 114.689 142.15C114.256 142.15 113.87 142.245 113.532 142.436C113.203 142.627 112.943 142.891 112.752 143.229C112.57 143.567 112.479 143.961 112.479 144.412L112.31 142.839C112.535 142.345 112.878 141.955 113.337 141.669C113.805 141.383 114.334 141.24 114.923 141.24C115.616 141.24 116.171 141.439 116.587 141.838C117.012 142.228 117.224 142.744 117.224 143.385V148H116.184ZM121.847 148.13C121.24 148.13 120.699 147.983 120.222 147.688C119.754 147.385 119.381 146.973 119.104 146.453C118.835 145.924 118.701 145.326 118.701 144.659C118.701 143.992 118.835 143.402 119.104 142.891C119.381 142.38 119.754 141.977 120.222 141.682C120.699 141.387 121.236 141.24 121.834 141.24C122.328 141.24 122.77 141.335 123.16 141.526C123.559 141.717 123.884 141.99 124.135 142.345C124.395 142.692 124.56 143.099 124.629 143.567H123.667C123.58 143.142 123.381 142.796 123.069 142.527C122.757 142.258 122.354 142.124 121.86 142.124C121.435 142.124 121.067 142.228 120.755 142.436C120.443 142.644 120.2 142.939 120.027 143.32C119.854 143.701 119.767 144.148 119.767 144.659C119.767 145.17 119.854 145.621 120.027 146.011C120.2 146.401 120.443 146.704 120.755 146.921C121.076 147.138 121.448 147.246 121.873 147.246C122.35 147.246 122.748 147.116 123.069 146.856C123.39 146.587 123.593 146.241 123.68 145.816H124.642C124.564 146.275 124.391 146.683 124.122 147.038C123.862 147.385 123.537 147.653 123.147 147.844C122.757 148.035 122.324 148.13 121.847 148.13ZM126.547 150.665L128.029 147.22L128.263 146.856L130.434 141.37H131.5L127.652 150.665H126.547ZM128.146 148.065L125.169 141.37H126.313L128.874 147.363L128.146 148.065ZM135.382 148V141.37H136.357V142.93H136.422V148H135.382ZM139.854 148V143.606C139.854 143.103 139.742 142.735 139.516 142.501C139.291 142.267 138.966 142.15 138.541 142.15C138.143 142.15 137.783 142.245 137.462 142.436C137.142 142.627 136.886 142.891 136.695 143.229C136.513 143.567 136.422 143.961 136.422 144.412L136.253 142.839C136.479 142.345 136.817 141.955 137.267 141.669C137.718 141.383 138.208 141.24 138.736 141.24C139.378 141.24 139.898 141.431 140.296 141.812C140.695 142.185 140.894 142.692 140.894 143.333V148H139.854ZM144.326 148V143.606C144.326 143.103 144.214 142.735 143.988 142.501C143.763 142.267 143.438 142.15 143.013 142.15C142.615 142.15 142.255 142.245 141.934 142.436C141.614 142.627 141.358 142.891 141.167 143.229C140.985 143.567 140.894 143.961 140.894 144.412L140.634 142.839C140.86 142.345 141.206 141.955 141.674 141.669C142.142 141.383 142.645 141.24 143.182 141.24C143.824 141.24 144.348 141.431 144.755 141.812C145.163 142.185 145.366 142.692 145.366 143.333V148H144.326ZM151.398 148C151.363 147.853 151.337 147.684 151.32 147.493C151.311 147.302 151.307 147.06 151.307 146.765H151.242V143.593C151.242 143.09 151.125 142.722 150.891 142.488C150.665 142.245 150.297 142.124 149.786 142.124C149.283 142.124 148.88 142.228 148.577 142.436C148.282 142.635 148.117 142.921 148.083 143.294H147.082C147.125 142.653 147.394 142.15 147.888 141.786C148.382 141.422 149.027 141.24 149.825 141.24C150.648 141.24 151.259 141.435 151.658 141.825C152.056 142.215 152.256 142.8 152.256 143.58V146.765C152.256 146.956 152.269 147.155 152.295 147.363C152.321 147.562 152.355 147.775 152.399 148H151.398ZM149.123 148.13C148.438 148.13 147.892 147.965 147.485 147.636C147.086 147.298 146.887 146.839 146.887 146.258C146.887 145.677 147.086 145.227 147.485 144.906C147.883 144.585 148.464 144.36 149.227 144.23L151.541 143.84V144.698L149.383 145.036C148.897 145.114 148.529 145.244 148.278 145.426C148.026 145.608 147.901 145.872 147.901 146.219C147.901 146.557 148.013 146.813 148.239 146.986C148.473 147.159 148.815 147.246 149.266 147.246C149.846 147.246 150.319 147.116 150.683 146.856C151.055 146.587 151.242 146.241 151.242 145.816L151.411 146.739C151.272 147.181 150.999 147.523 150.592 147.766C150.193 148.009 149.703 148.13 149.123 148.13ZM154.26 148V141.37H155.235V142.93H155.3V148H154.26ZM159.005 148V143.658C159.005 143.155 158.88 142.778 158.628 142.527C158.377 142.276 158.004 142.15 157.51 142.15C157.077 142.15 156.691 142.245 156.353 142.436C156.024 142.627 155.764 142.891 155.573 143.229C155.391 143.567 155.3 143.961 155.3 144.412L155.131 142.839C155.357 142.345 155.699 141.955 156.158 141.669C156.626 141.383 157.155 141.24 157.744 141.24C158.438 141.24 158.992 141.439 159.408 141.838C159.833 142.228 160.045 142.744 160.045 143.385V148H159.005ZM166.073 148C166.039 147.853 166.013 147.684 165.995 147.493C165.987 147.302 165.982 147.06 165.982 146.765H165.917V143.593C165.917 143.09 165.8 142.722 165.566 142.488C165.341 142.245 164.973 142.124 164.461 142.124C163.959 142.124 163.556 142.228 163.252 142.436C162.958 142.635 162.793 142.921 162.758 143.294H161.757C161.801 142.653 162.069 142.15 162.563 141.786C163.057 141.422 163.703 141.24 164.5 141.24C165.324 141.24 165.935 141.435 166.333 141.825C166.732 142.215 166.931 142.8 166.931 143.58V146.765C166.931 146.956 166.944 147.155 166.97 147.363C166.996 147.562 167.031 147.775 167.074 148H166.073ZM163.798 148.13C163.114 148.13 162.568 147.965 162.16 147.636C161.762 147.298 161.562 146.839 161.562 146.258C161.562 145.677 161.762 145.227 162.16 144.906C162.559 144.585 163.14 144.36 163.902 144.23L166.216 143.84V144.698L164.058 145.036C163.573 145.114 163.205 145.244 162.953 145.426C162.702 145.608 162.576 145.872 162.576 146.219C162.576 146.557 162.689 146.813 162.914 146.986C163.148 147.159 163.491 147.246 163.941 147.246C164.522 147.246 164.994 147.116 165.358 146.856C165.731 146.587 165.917 146.241 165.917 145.816L166.086 146.739C165.948 147.181 165.675 147.523 165.267 147.766C164.869 148.009 164.379 148.13 163.798 148.13ZM171.575 150.795C170.786 150.795 170.128 150.609 169.599 150.236C169.079 149.872 168.763 149.387 168.65 148.78H169.638C169.733 149.127 169.946 149.4 170.275 149.599C170.613 149.807 171.068 149.911 171.64 149.911C172.316 149.911 172.827 149.725 173.174 149.352C173.521 148.988 173.694 148.451 173.694 147.74V146.323L173.824 146.349C173.677 146.852 173.382 147.255 172.94 147.558C172.498 147.853 171.974 148 171.367 148C170.786 148 170.275 147.861 169.833 147.584C169.391 147.298 169.049 146.904 168.806 146.401C168.563 145.898 168.442 145.313 168.442 144.646C168.442 143.97 168.568 143.376 168.819 142.865C169.07 142.354 169.421 141.959 169.872 141.682C170.331 141.396 170.864 141.253 171.471 141.253C172.095 141.253 172.615 141.405 173.031 141.708C173.456 142.011 173.737 142.445 173.876 143.008L173.759 143.021V141.37H174.734V147.74C174.734 148.685 174.452 149.43 173.889 149.976C173.326 150.522 172.554 150.795 171.575 150.795ZM171.627 147.103C172.277 147.103 172.793 146.878 173.174 146.427C173.555 145.976 173.746 145.365 173.746 144.594C173.746 143.84 173.555 143.246 173.174 142.813C172.793 142.371 172.277 142.15 171.627 142.15C170.968 142.15 170.448 142.371 170.067 142.813C169.694 143.255 169.508 143.862 169.508 144.633C169.508 145.387 169.699 145.989 170.08 146.44C170.461 146.882 170.977 147.103 171.627 147.103ZM179.537 148.13C178.904 148.13 178.345 147.983 177.86 147.688C177.374 147.385 176.993 146.973 176.716 146.453C176.438 145.933 176.3 145.335 176.3 144.659C176.3 143.983 176.434 143.389 176.703 142.878C176.98 142.358 177.366 141.955 177.86 141.669C178.354 141.383 178.921 141.24 179.563 141.24C180.178 141.24 180.711 141.374 181.162 141.643C181.621 141.912 181.972 142.289 182.215 142.774C182.466 143.259 182.592 143.831 182.592 144.49C182.592 144.577 182.587 144.659 182.579 144.737C182.579 144.815 182.57 144.902 182.553 144.997H177.08V144.126H181.916L181.578 144.607C181.578 143.81 181.4 143.199 181.045 142.774C180.698 142.341 180.204 142.124 179.563 142.124C178.904 142.124 178.371 142.354 177.964 142.813C177.565 143.264 177.366 143.875 177.366 144.646C177.366 145.435 177.565 146.067 177.964 146.544C178.371 147.012 178.913 147.246 179.589 147.246C180.013 147.246 180.386 147.155 180.707 146.973C181.027 146.782 181.261 146.514 181.409 146.167H182.397C182.18 146.774 181.816 147.255 181.305 147.61C180.802 147.957 180.213 148.13 179.537 148.13ZM184.158 148V141.37H185.133V142.93H185.198V148H184.158ZM188.63 148V143.606C188.63 143.103 188.517 142.735 188.292 142.501C188.066 142.267 187.741 142.15 187.317 142.15C186.918 142.15 186.558 142.245 186.238 142.436C185.917 142.627 185.661 142.891 185.471 143.229C185.289 143.567 185.198 143.961 185.198 144.412L185.029 142.839C185.254 142.345 185.592 141.955 186.043 141.669C186.493 141.383 186.983 141.24 187.512 141.24C188.153 141.24 188.673 141.431 189.072 141.812C189.47 142.185 189.67 142.692 189.67 143.333V148H188.63ZM193.102 148V143.606C193.102 143.103 192.989 142.735 192.764 142.501C192.538 142.267 192.213 142.15 191.789 142.15C191.39 142.15 191.03 142.245 190.71 142.436C190.389 142.627 190.133 142.891 189.943 143.229C189.761 143.567 189.67 143.961 189.67 144.412L189.41 142.839C189.635 142.345 189.982 141.955 190.45 141.669C190.918 141.383 191.42 141.24 191.958 141.24C192.599 141.24 193.123 141.431 193.531 141.812C193.938 142.185 194.142 142.692 194.142 143.333V148H193.102ZM198.859 148.13C198.226 148.13 197.667 147.983 197.182 147.688C196.697 147.385 196.315 146.973 196.038 146.453C195.761 145.933 195.622 145.335 195.622 144.659C195.622 143.983 195.756 143.389 196.025 142.878C196.302 142.358 196.688 141.955 197.182 141.669C197.676 141.383 198.244 141.24 198.885 141.24C199.5 141.24 200.033 141.374 200.484 141.643C200.943 141.912 201.294 142.289 201.537 142.774C201.788 143.259 201.914 143.831 201.914 144.49C201.914 144.577 201.91 144.659 201.901 144.737C201.901 144.815 201.892 144.902 201.875 144.997H196.402V144.126H201.238L200.9 144.607C200.9 143.81 200.722 143.199 200.367 142.774C200.02 142.341 199.526 142.124 198.885 142.124C198.226 142.124 197.693 142.354 197.286 142.813C196.887 143.264 196.688 143.875 196.688 144.646C196.688 145.435 196.887 146.067 197.286 146.544C197.693 147.012 198.235 147.246 198.911 147.246C199.336 147.246 199.708 147.155 200.029 146.973C200.35 146.782 200.584 146.514 200.731 146.167H201.719C201.502 146.774 201.138 147.255 200.627 147.61C200.124 147.957 199.535 148.13 198.859 148.13ZM203.48 148V141.37H204.455V142.93H204.52V148H203.48ZM208.225 148V143.658C208.225 143.155 208.099 142.778 207.848 142.527C207.597 142.276 207.224 142.15 206.73 142.15C206.297 142.15 205.911 142.245 205.573 142.436C205.244 142.627 204.984 142.891 204.793 143.229C204.611 143.567 204.52 143.961 204.52 144.412L204.351 142.839C204.576 142.345 204.919 141.955 205.378 141.669C205.846 141.383 206.375 141.24 206.964 141.24C207.657 141.24 208.212 141.439 208.628 141.838C209.053 142.228 209.265 142.744 209.265 143.385V148H208.225ZM213.736 148.117C213 148.117 212.462 147.952 212.124 147.623C211.795 147.285 211.63 146.8 211.63 146.167V139.823L212.67 139.433V146.154C212.67 146.527 212.766 146.8 212.956 146.973C213.147 147.146 213.459 147.233 213.892 147.233C214.066 147.233 214.213 147.224 214.334 147.207C214.464 147.181 214.568 147.151 214.646 147.116V148C214.56 148.035 214.434 148.061 214.269 148.078C214.113 148.104 213.936 148.117 213.736 148.117ZM210.265 142.254V141.37H214.646V142.254H210.265Z" fill="black"/>
<path fill-rule="evenodd" clip-rule="evenodd" d="M109.876 26.5183C109.807 25.4247 109.97 24.3291 110.357 23.2988C110.744 22.2685 111.345 21.3253 112.124 20.5274C112.903 19.7294 113.844 19.0935 114.888 18.6589C115.931 18.2242 117.057 18 118.194 18C119.331 18 120.456 18.2242 121.5 18.6589C122.543 19.0935 123.484 19.7294 124.263 20.5274C125.042 21.3253 125.644 22.2685 126.03 23.2988C126.417 24.3291 126.581 25.4247 126.512 26.5183C126.52 28.6612 125.648 30.7204 124.087 32.2468C122.526 33.7731 120.402 34.6431 118.178 34.6667C115.957 34.6431 113.836 33.7723 112.28 32.2449C110.724 30.7177 109.859 28.6584 109.876 26.5183ZM118.178 30.4995C119.334 30.4761 120.407 30.0184 121.174 29.2676C121.947 28.5123 122.349 27.5268 122.345 26.5345L122.344 26.3945L122.353 26.2548C122.385 25.7514 122.31 25.2444 122.13 24.7628C121.948 24.2808 121.663 23.8287 121.282 23.4384C120.9 23.0476 120.431 22.7273 119.898 22.5054C119.365 22.2833 118.784 22.1667 118.194 22.1667C117.603 22.1667 117.023 22.2833 116.489 22.5054C115.956 22.7273 115.487 23.0476 115.105 23.4384C114.724 23.8287 114.439 24.2808 114.258 24.7628C114.077 25.2444 114.002 25.7514 114.034 26.2548L114.043 26.4025L114.042 26.5505C114.035 27.5372 114.432 28.5185 115.198 29.2712C115.961 30.0194 117.028 30.4762 118.178 30.4995Z" fill="#333333"/>
<path fill-rule="evenodd" clip-rule="evenodd" d="M115.213 34.5404C112.724 33.0421 109.777 32.5235 106.933 33.0883L106.913 33.0925L106.892 33.0969C104.506 33.6208 102.802 35.3277 101.589 36.8939C100.963 37.701 100.407 38.5527 99.9171 39.3277C99.7706 39.5594 99.6325 39.7802 99.5004 39.9912C99.1779 40.5067 98.8906 40.9658 98.6039 41.3885L92.9073 49.2823L92.8921 49.3035L92.8773 49.325C92.1764 50.3491 91.8814 51.5981 92.0433 52.826C92.2052 54.0544 92.8146 55.185 93.7623 55.99L93.7783 56.0035L104.064 64.5616L104.077 64.5727L104.09 64.5837C104.605 64.9975 105.194 65.3019 105.822 65.4814C104.791 68.641 103.037 73.8202 101.282 78.9591C99.8396 83.1816 98.4046 87.3525 97.4293 90.1875C96.7037 92.2964 96.2327 93.666 96.2021 93.7669L95.391 96.4525H98.1964H107.382L107.684 102.693C107.699 103.985 108.209 105.228 109.117 106.154C110.041 107.095 111.301 107.63 112.625 107.63C113.947 107.63 115.208 107.095 116.131 106.154C117.039 105.229 117.549 103.989 117.564 102.699L117.886 96.6271H126.024H128.107V94.5437C128.107 94.2358 127.985 92.3096 127.834 89.9089L127.833 89.9064C127.764 88.8041 127.687 87.6019 127.614 86.4104C127.495 84.4725 127.378 82.5127 127.297 80.9364C127.212 79.2914 127.176 78.2219 127.19 77.9425C127.194 77.88 127.224 77.6827 127.669 77.2379C127.884 77.0225 128.134 76.8091 128.448 76.5466L128.511 76.4935C128.786 76.2635 129.131 75.9756 129.432 75.6771L129.449 75.6606L129.465 75.6437C130.782 74.28 131.874 72.7106 132.7 70.9964L132.718 70.96L132.734 70.9229C133.429 69.3252 133.835 67.6139 133.932 65.8712L133.936 65.7985L133.935 65.7258C133.888 62.3081 132.989 58.9569 131.321 55.9862L130.771 54.8862L130.768 54.8798C128.725 50.7225 126.837 47.9646 124.053 44.4217C121.771 40.6827 118.851 37.3864 115.428 34.6889L115.325 34.6079L115.213 34.5404ZM104.882 39.446C105.912 38.1177 106.845 37.3804 107.767 37.1708C109.542 36.8239 111.382 37.1333 112.956 38.0464C115.971 40.4433 118.545 43.3698 120.556 46.6904L120.622 46.7994L120.701 46.8998C123.409 50.34 125.134 52.8619 127.032 56.7235L127.038 56.7364L127.617 57.8954L127.641 57.9425L127.667 57.9885C128.995 60.3383 129.718 62.9948 129.768 65.7098C129.692 66.9231 129.408 68.1127 128.929 69.2244C128.301 70.5189 127.476 71.7023 126.486 72.731C126.314 72.8985 126.098 73.08 125.779 73.3473L125.773 73.3519C125.471 73.605 125.085 73.9283 124.722 74.2916C124.01 75.0037 123.112 76.1308 123.029 77.7277C123.001 78.2779 123.057 79.6208 123.136 81.1506C123.218 82.7489 123.336 84.7262 123.455 86.6671C123.537 87.9894 123.62 89.3 123.694 90.465L123.694 90.4694L123.79 91.99L123.819 92.4604H115.91H113.934L113.83 94.4337L113.401 102.526L113.398 102.581V102.636C113.398 102.868 113.307 103.083 113.158 103.235C113.01 103.386 112.817 103.464 112.625 103.464C112.432 103.464 112.239 103.386 112.091 103.235C111.942 103.083 111.851 102.868 111.851 102.636V102.586L111.848 102.536L111.448 94.2685L111.352 92.2858H109.367H101.114L101.766 90.3912C102.706 87.6581 103.956 84.0196 105.225 80.306C107.37 74.0252 109.623 67.3706 110.463 64.6377C110.468 64.6137 110.474 64.5894 110.481 64.5648C110.831 63.2694 111.315 60.9633 111.39 58.7039C111.344 55.8562 110.952 53.025 110.222 50.2748C110.035 49.4141 109.851 48.5958 109.67 47.7931C109.422 46.6946 109.181 45.6252 108.95 44.5169L108.087 40.3735L105.33 43.5844L99.3302 50.5704L97.9416 52.1873L99.5896 53.5387L107.478 60.0087C107.756 60.1281 107.95 60.4039 107.95 60.7254C107.95 61.0554 107.745 61.3377 107.455 61.4514C107.42 61.4687 107.393 61.4781 107.37 61.4841C107.339 61.4925 107.295 61.5008 107.227 61.5031C107.209 61.5044 107.19 61.5052 107.17 61.5052C106.935 61.5052 106.724 61.4008 106.581 61.236L96.4541 52.8096C96.306 52.6814 96.2023 52.4948 96.1741 52.2814C96.1464 52.0714 96.1958 51.8619 96.306 51.6931L102 43.8029L102.017 43.7796L102.033 43.7556C102.373 43.2556 102.73 42.6862 103.075 42.1348C103.198 41.9377 103.32 41.7427 103.439 41.5544C103.912 40.8056 104.383 40.0908 104.882 39.446ZM106.183 51.3008C106.425 52.2083 106.626 53.126 106.784 54.0508L103.88 51.6683L105.774 49.4623C105.906 50.0498 106.036 50.6327 106.16 51.2044L106.17 51.2529L106.183 51.3008Z" fill="#333333"/>
</svg>
